<svg xmlns="http://www.w3.org/2000/svg" xmlns:xlink="http://www.w3.org/1999/xlink" viewBox="0 0 2472.46 1080"><defs><style>.cls-1,.cls-12,.cls-14,.cls-34,.cls-7{fill:none;}.cls-2{isolation:isolate;}.cls-3{clip-path:url(#clip-path);}.cls-15,.cls-4,.cls-9{fill:#d81942;}.cls-4,.cls-44{opacity:0.3;}.cls-5{opacity:0.31;}.cls-6{clip-path:url(#clip-path-2);}.cls-7{stroke:#006a4e;stroke-width:16px;}.cls-34,.cls-7{stroke-miterlimit:10;}.cls-8{fill:url(#Dégradé_sans_nom_10);}.cls-10{clip-path:url(#clip-path-3);}.cls-11{opacity:0.18;}.cls-12{stroke:#1f936f;}.cls-12,.cls-14{stroke-linecap:round;stroke-linejoin:round;stroke-width:19px;stroke-dasharray:0 46;}.cls-13{opacity:0.16;}.cls-14{stroke:#1a1a1a;}.cls-15{opacity:0.14;}.cls-16{clip-path:url(#clip-path-4);}.cls-17{opacity:0.45;}.cls-18{fill:url(#Dégradé_sans_nom_19);}.cls-19{fill:url(#Dégradé_sans_nom_19-2);}.cls-20{fill:url(#Dégradé_sans_nom_19-3);}.cls-21{fill:url(#Dégradé_sans_nom_19-4);}.cls-22{fill:url(#Dégradé_sans_nom_19-5);}.cls-23{fill:url(#Dégradé_sans_nom_19-6);}.cls-24{fill:url(#Dégradé_sans_nom_19-7);}.cls-25{fill:url(#Dégradé_sans_nom_19-8);}.cls-26{fill:url(#Dégradé_sans_nom_19-9);}.cls-27{fill:url(#Dégradé_sans_nom_19-10);}.cls-28{fill:url(#Dégradé_sans_nom_19-11);}.cls-29{fill:url(#Dégradé_sans_nom_19-12);}.cls-30{fill:url(#Dégradé_sans_nom_19-13);}.cls-31{fill:url(#Dégradé_sans_nom_19-14);}.cls-32{fill:url(#Dégradé_sans_nom_19-15);}.cls-33{clip-path:url(#clip-path-5);}.cls-34{stroke:#fff;stroke-width:5px;}.cls-35{fill:url(#Dégradé_sans_nom_11);}.cls-36{fill:url(#Dégradé_sans_nom_11-2);}.cls-37{fill:#5b4b43;}.cls-38{fill:#514036;opacity:0.2;mix-blend-mode:multiply;}.cls-39{fill:url(#Íîâûé_îáðàçåö_ãðàäèåíòà_11);}.cls-40{fill:#edfdfc;}.cls-41{fill:url(#Dégradé_sans_nom_19-16);}.cls-42,.cls-56{fill:#fff;}.cls-43{fill:url(#Dégradé_sans_nom_19-17);}.cls-44,.cls-45{fill:#daeef7;}.cls-46{fill:url(#Dégradé_sans_nom_19-18);}.cls-47{fill:#c0efff;}.cls-48{fill:#7f6e62;}.cls-49{fill:#ffce00;}.cls-50{fill:#212121;}.cls-51{fill:#1f936f;}.cls-52{fill:url(#Dégradé_sans_nom_11-3);}.cls-53{fill:url(#Dégradé_sans_nom_11-4);}.cls-54{opacity:0.1;}.cls-55{fill:url(#Dégradé_sans_nom_11-5);}.cls-56{font-size:29px;font-family:Gilroy-Medium, Gilroy;}.cls-57{letter-spacing:0em;}.cls-58{letter-spacing:0em;}.cls-59{font-size:57.91px;font-family:Gilroy-SemiBold, Gilroy;font-weight:700;letter-spacing:0.01em;}.cls-60{letter-spacing:-0.01em;}.cls-61{letter-spacing:-0.02em;}.cls-62{letter-spacing:0.01em;}.cls-63{letter-spacing:-0.02em;}.cls-64{fill:#231f20;}.cls-65{clip-path:url(#clip-path-6);}.cls-66{fill:url(#linear-gradient);}.cls-67{fill:url(#linear-gradient-2);}.cls-68{fill:url(#linear-gradient-3);}.cls-69{fill:url(#linear-gradient-4);}.cls-70{fill:#f9f9f9;}.cls-71{clip-path:url(#clip-path-7);}.cls-72{clip-path:url(#clip-path-8);}</style><clipPath id="clip-path"><rect class="cls-1" x="0.05" y="-1126" width="2472.42" height="1080"/></clipPath><clipPath id="clip-path-2"><path class="cls-1" d="M1488-1126c-3,7.2-510,1079.69-510,1079.69L2472.46-46V-1126Z"/></clipPath><linearGradient id="Dégradé_sans_nom_10" x1="1990.1" y1="880.17" x2="269.51" y2="103.79" gradientUnits="userSpaceOnUse"><stop offset="0" stop-color="#fff"/><stop offset="1" stop-color="#e6e6e6"/></linearGradient><clipPath id="clip-path-3"><rect class="cls-1" x="0.05" width="2472.42" height="1080"/></clipPath><clipPath id="clip-path-4"><path class="cls-1" d="M-64.07,838.19s59.7-37.84,102.67-41.65c47.33-4.21,54.67,21.55,41.33,61.91-17.69,53.56-43,105.22,34.23,73.22s126.2,48.75,82.32,109.21-13.09,63.45,12,69.45,64.38,15,54.75,50c0,0-421.64,22-420.64,19S-64.07,838.19-64.07,838.19Z"/></clipPath><linearGradient id="Dégradé_sans_nom_19" x1="3234.91" y1="1355.94" x2="1410.68" y2="370.96" gradientUnits="userSpaceOnUse"><stop offset="0" stop-color="#1f936f"/><stop offset="1" stop-color="#4aa88a"/></linearGradient><linearGradient id="Dégradé_sans_nom_19-2" x1="286.55" y1="983.52" x2="741.55" y2="1056.52" xlink:href="#Dégradé_sans_nom_19"/><linearGradient id="Dégradé_sans_nom_19-3" x1="287.26" y1="979.07" x2="742.26" y2="1052.07" xlink:href="#Dégradé_sans_nom_19"/><linearGradient id="Dégradé_sans_nom_19-4" x1="288.24" y1="972.97" x2="743.24" y2="1045.97" xlink:href="#Dégradé_sans_nom_19"/><linearGradient id="Dégradé_sans_nom_19-5" x1="289.1" y1="967.59" x2="744.1" y2="1040.59" xlink:href="#Dégradé_sans_nom_19"/><linearGradient id="Dégradé_sans_nom_19-6" x1="290.06" y1="961.6" x2="745.06" y2="1034.6" xlink:href="#Dégradé_sans_nom_19"/><linearGradient id="Dégradé_sans_nom_19-7" x1="291.27" y1="954.1" x2="746.27" y2="1027.1" xlink:href="#Dégradé_sans_nom_19"/><linearGradient id="Dégradé_sans_nom_19-8" x1="292.23" y1="948.08" x2="747.23" y2="1021.08" xlink:href="#Dégradé_sans_nom_19"/><linearGradient id="Dégradé_sans_nom_19-9" x1="293.01" y1="943.21" x2="748.01" y2="1016.21" xlink:href="#Dégradé_sans_nom_19"/><linearGradient id="Dégradé_sans_nom_19-10" x1="285.36" y1="990.94" x2="740.36" y2="1063.94" xlink:href="#Dégradé_sans_nom_19"/><linearGradient id="Dégradé_sans_nom_19-11" x1="279.18" y1="1029.46" x2="734.18" y2="1102.46" xlink:href="#Dégradé_sans_nom_19"/><linearGradient id="Dégradé_sans_nom_19-12" x1="280.65" y1="1020.26" x2="735.65" y2="1093.26" xlink:href="#Dégradé_sans_nom_19"/><linearGradient id="Dégradé_sans_nom_19-13" x1="278.29" y1="1035.02" x2="733.29" y2="1108.02" xlink:href="#Dégradé_sans_nom_19"/><linearGradient id="Dégradé_sans_nom_19-14" x1="281.17" y1="1017.01" x2="736.17" y2="1090.01" xlink:href="#Dégradé_sans_nom_19"/><linearGradient id="Dégradé_sans_nom_19-15" x1="290.9" y1="956.4" x2="745.9" y2="1029.4" xlink:href="#Dégradé_sans_nom_19"/><clipPath id="clip-path-5"><path class="cls-1" d="M1487.16-4.84c-3,7.2-510,1079.69-510,1079.69l1494.46.31V-4.84Z"/></clipPath><linearGradient id="Dégradé_sans_nom_11" x1="1932.74" y1="648.36" x2="2055.71" y2="808.1" gradientUnits="userSpaceOnUse"><stop offset="0" stop-color="#d81942"/><stop offset="1" stop-color="#de3e60"/></linearGradient><linearGradient id="Dégradé_sans_nom_11-2" x1="1462.6" y1="-59.55" x2="1689.98" y2="508.38" xlink:href="#Dégradé_sans_nom_11"/><linearGradient id="Íîâûé_îáðàçåö_ãðàäèåíòà_11" x1="1476.74" y1="535.16" x2="1817.43" y2="535.16" gradientUnits="userSpaceOnUse"><stop offset="0" stop-color="#00503e"/><stop offset="1" stop-color="#023222"/></linearGradient><linearGradient id="Dégradé_sans_nom_19-16" x1="1548.98" y1="504.43" x2="1743.54" y2="504.43" xlink:href="#Dégradé_sans_nom_19"/><linearGradient id="Dégradé_sans_nom_19-17" x1="1581.95" y1="256.06" x2="1712.72" y2="256.06" xlink:href="#Dégradé_sans_nom_19"/><linearGradient id="Dégradé_sans_nom_19-18" x1="1641.06" y1="958.14" x2="1647.06" y2="780.14" xlink:href="#Dégradé_sans_nom_19"/><linearGradient id="Dégradé_sans_nom_11-3" x1="1096.16" y1="86.83" x2="1323.32" y2="654.22" xlink:href="#Dégradé_sans_nom_11"/><linearGradient id="Dégradé_sans_nom_11-4" x1="1857.52" y1="-411.15" x2="2089.38" y2="167.98" gradientTransform="matrix(0.66, -0.19, 0.24, 0.73, 622.01, 473.53)" xlink:href="#Dégradé_sans_nom_11"/><linearGradient id="Dégradé_sans_nom_11-5" x1="1725.19" y1="750.45" x2="1586.19" y2="647.45" xlink:href="#Dégradé_sans_nom_11"/><clipPath id="clip-path-6"><path class="cls-1" d="M236.49,801.36l-18.58-10.73-35.84-20.69c-2-1.15-4-.46-4,1.94v84.31c0,1.8,1.42,2.58,3.14,1.58l36.67-21.17,18.58-10.73,17.86-10.31c2.09-1.21,1.89-2.87.12-3.82S236.49,801.36,236.49,801.36Z"/></clipPath><linearGradient id="linear-gradient" x1="201.11" y1="767.98" x2="201.11" y2="859.25" gradientUnits="userSpaceOnUse"><stop offset="0" stop-color="#257db0"/><stop offset="0.21" stop-color="#3c90b3"/><stop offset="0.74" stop-color="#73bdb9"/><stop offset="1" stop-color="#89cebc"/></linearGradient><linearGradient id="linear-gradient-2" x1="178.1" y1="790.63" x2="236.49" y2="790.63" gradientUnits="userSpaceOnUse"><stop offset="0" stop-color="#51bfac"/><stop offset="1" stop-color="#dee899"/></linearGradient><linearGradient id="linear-gradient-3" x1="207.29" y1="813.62" x2="207.29" y2="859.59" gradientUnits="userSpaceOnUse"><stop offset="0" stop-color="#eb403d"/><stop offset="0.19" stop-color="#d64252"/><stop offset="0.74" stop-color="#9f4887"/><stop offset="1" stop-color="#894a9c"/></linearGradient><linearGradient id="linear-gradient-4" x1="240.92" y1="801.36" x2="240.92" y2="825.87" gradientUnits="userSpaceOnUse"><stop offset="0" stop-color="#f48779"/><stop offset="0.61" stop-color="#fab076"/><stop offset="1" stop-color="#fdc674"/></linearGradient><clipPath id="clip-path-7"><rect class="cls-1" x="0.1" y="1136" width="2472.42" height="1080"/></clipPath><clipPath id="clip-path-8"><path class="cls-1" d="M1488,1136c-3,7.2-510,1079.69-510,1079.69l1494.46.31V1136Z"/></clipPath></defs><title>SLIDE-14</title><g class="cls-2"><g id="Slide_1" data-name="Slide 1"><g class="cls-3"><path class="cls-4" d="M-57.52-241.51s59.7-37.84,102.67-41.66c47.33-4.2,54.67,21.56,41.33,61.92C68.79-167.69,43.48-116,120.71-148S246.91-99.28,203-38.83s-13.09,63.46,12,69.46,64.38,15,54.75,50c0,0-421.64,22-420.64,19S-57.52-241.51-57.52-241.51Z"/></g><g class="cls-6"><path class="cls-7" d="M2163.94-1345.92c25.61,53.75,3.77,55-18.3,60.36-21.71,4.81-44.06,13.73-18.3,66,26.22,51.09,75.15,91.74,119.3,136.27,44.53,43.7,83.44,91.31,98.28,136.58,14.26,45.75-4.18,45.69-21.17,49.81-17.37,3.43-33.16,11-17.8,54.67,32.47,82.88,94,149,91,218.68-3.17,68.9-41.07,21.7-40,94.94-.11,34.91,4.38,62.41,7.66,85.2,3.2,23.25,5.43,41.78-1.27,69.6-7.22,28.84-15.86,42.45-22.46,54.6-7,12.52-12,23.6-19.38,56-7.3,31.83-10.45,50.74-13.15,65.9-2.87,15.74-5.37,27.77-15.88,59.13-10.78,32.1-17.36,50.7-23,68.1-5.72,17.69-10.67,34.2-21,68.88"/></g></g><g id="Slide_2" data-name="Slide 2"><rect class="cls-8" width="2472.46" height="1080"/><path class="cls-9" d="M300.88,120.92l-70.27,76,43.09,78.68H237.24L196.79,202,184,275.62H148.61l27.19-154.7h35.36l-11.49,64.75,59.44-64.75Z"/><path class="cls-9" d="M375.58,165.12h33.15l-19.45,110.5H356.13l1.33-7.51q-12.6,10.61-33.15,10.6-25.43,0-36.91-18.45t-6.85-42.54a72.4,72.4,0,0,1,20.88-39.23Q318.13,162,342.65,162q20.78,0,30.94,14.8ZM317.46,240q6,7.29,17.46,7.29A30.2,30.2,0,0,0,355,240q8.61-7.29,10.83-19.45v-.22Q368.06,208,362,200.7t-17.57-7.29a29.77,29.77,0,0,0-20,7.29q-8.51,7.29-10.72,19.67T317.46,240Z"/><path class="cls-9" d="M497.13,162q16.13,0,27.29,8.84a45.54,45.54,0,0,1,15.47,22.43,63.59,63.59,0,0,1,1.88,29.28,70.85,70.85,0,0,1-19.67,39.56Q506,278.72,481.66,278.71q-22.77,0-32.71-15.69l-2.21,12.6H413.59l27.18-154.7h33.15l-9.5,53.48A47.11,47.11,0,0,1,497.13,162Zm.88,78.12q8.4-7.18,10.61-19.78t-3.87-19.78q-6.08-7.18-17.35-7.18a30.61,30.61,0,0,0-20.22,7.29q-8.73,7.29-10.72,19.67t4.2,19.67q6.19,7.29,17.68,7.29A29.3,29.3,0,0,0,498,240.15Z"/><path class="cls-9" d="M650.94,165.12h33.15l-19.45,110.5H631.49l1.33-7.51q-12.6,10.61-33.15,10.6-25.42,0-36.91-18.45t-6.85-42.54a72.4,72.4,0,0,1,20.88-39.23Q593.48,162,618,162q20.78,0,30.94,14.8ZM592.82,240q6,7.29,17.46,7.29A30.21,30.21,0,0,0,630.39,240q8.61-7.29,10.83-19.45v-.22q2.21-12.37-3.87-19.67t-17.57-7.29a29.77,29.77,0,0,0-20,7.29q-8.52,7.29-10.72,19.67T592.82,240Z"/><path class="cls-9" d="M788.62,165.12h33.15l-19.45,110.5H769.17l1.33-7.51q-12.6,10.61-33.15,10.6-25.43,0-36.91-18.45t-6.85-42.54a72.4,72.4,0,0,1,20.88-39.23Q731.17,162,755.69,162q20.77,0,30.94,14.8ZM730.5,240q6,7.29,17.46,7.29A30.21,30.21,0,0,0,768.07,240q8.61-7.29,10.83-19.45v-.22Q781.11,208,775,200.7t-17.57-7.29a29.77,29.77,0,0,0-20,7.29q-8.52,7.29-10.72,19.67T730.5,240Z"/><path class="cls-9" d="M882.76,278.71q-26.29,0-40.88-17.46t-10.61-43.09a64.23,64.23,0,0,1,22.32-40.22Q872.16,162,897.13,162q17.24,0,29.39,7.84a45.51,45.51,0,0,1,17.68,20.89l-30.28,15.91q-5.08-11.94-19.67-11.94a30,30,0,0,0-29.83,25.2q-2,11.26,4,18.67T885.19,246q14.14,0,23-12.38l26.74,17a54.58,54.58,0,0,1-22.32,21A64.9,64.9,0,0,1,882.76,278.71Z"/><path class="cls-9" d="M1026,162q17.9,0,28.18,12.26t6.52,33.48l-11.94,67.85h-33.15l11.05-63q1.77-10.17-2.76-15.14t-13.15-5A23.44,23.44,0,0,0,995,198.16q-6.63,5.64-8.62,17.13L975.8,275.62H942.65l27.18-154.7H1003l-9.51,54.59Q1005.63,162,1026,162Z"/><path class="cls-9" d="M1170.5,165.12h33.15l-19.45,110.5h-33.15l1.33-7.51q-12.6,10.61-33.15,10.6-25.43,0-36.91-18.45t-6.85-42.54a72.4,72.4,0,0,1,20.88-39.23Q1113,162,1137.57,162q20.78,0,30.94,14.8ZM1112.38,240q6,7.29,17.46,7.29A30.2,30.2,0,0,0,1150,240q8.61-7.29,10.83-19.45v-.22q2.21-12.37-3.87-19.67t-17.57-7.29a29.77,29.77,0,0,0-20,7.29q-8.5,7.29-10.72,19.67T1112.38,240Z"/><path class="cls-9" d="M195.39,387.49q16.88,0,26.83,11.55T229,427.62a43.6,43.6,0,0,1-2.43,9.12H172.13q1.68,10.63,15.66,10.64a22.58,22.58,0,0,0,16-5.93l16,13.07q-13.08,13.23-33.44,13.23-19.31,0-29.26-12t-7.07-29.64a44.15,44.15,0,0,1,15.51-27.59A44.77,44.77,0,0,1,195.39,387.49Zm-20.06,31.92h32.22q-1.06-11.7-13.68-11.7T175.33,419.41Z"/><path class="cls-9" d="M262.57,467.75q-23.56,0-32.07-18.7L251,438.72q3.34,8.65,13.53,8.66,7.76,0,8.36-3.95c.3-1.62-.81-3-3.35-4.11a70.91,70.91,0,0,0-9.27-3.19,69.32,69.32,0,0,1-10.71-3.95,18,18,0,0,1-8.29-8q-3-5.55-1.52-13.76a24.35,24.35,0,0,1,6.54-13.07,30,30,0,0,1,11.7-7.6,41.26,41.26,0,0,1,13.68-2.28,35.5,35.5,0,0,1,17.71,4.33,26.78,26.78,0,0,1,11.32,11.94L280.2,413.94q-2.73-6.69-9.88-6.69-6.84,0-7.75,4.71c-.4,2,.63,3.6,3.12,4.72a52.13,52.13,0,0,0,9.19,3,70.41,70.41,0,0,1,10.8,3.5,16.76,16.76,0,0,1,8.36,7.75q3,5.55,1.52,14.21-2.13,11.55-11.1,17.1T262.57,467.75Z"/><path class="cls-9" d="M338,411.51l-4.71,26.9q-.92,4.71,2.58,5.93t12,.61l-3.65,20.67q-20.37,2.28-28.5-4.41t-5.24-22.8l4.71-26.9H303L307,389.62h12l2.59-14.44,24-6.84-3.8,21.28h15.81l-3.95,21.89Z"/><path class="cls-9" d="M470.81,359.22h22.8l-18.7,106.4h-22.8l.92-5.47q-8.82,7.61-23.11,7.6-17.48,0-25.38-12.69t-4.71-29.26a49.73,49.73,0,0,1,14.36-27q11.47-11.32,28.35-11.33,14.59,0,21.43,10.49Zm-33.29,86.94a20.68,20.68,0,0,0,13.61-4.86,22.08,22.08,0,0,0,7.52-12.92l.3-1.52q1.07-8.21-3-13t-11.85-4.78a20.76,20.76,0,0,0-14,5.09,22.38,22.38,0,0,0-7.44,13.45q-1.53,8.36,2.66,13.45T437.52,446.16Z"/><path class="cls-9" d="M491.63,465.62l13.38-76h22.8l-13.38,76Zm36.56-86.72a15.44,15.44,0,0,1-10.41,4,11,11,0,0,1-9-4,11.64,11.64,0,0,1-2.35-9.65,16.07,16.07,0,0,1,5.55-9.57,15.08,15.08,0,0,1,10.26-4.11,11.46,11.46,0,0,1,11.55,13.68A15.89,15.89,0,0,1,528.19,378.9Z"/><path class="cls-9" d="M560,467.75q-23.55,0-32.07-18.7l20.52-10.33q3.35,8.65,13.53,8.66,7.75,0,8.36-3.95.45-2.43-3.34-4.11a71.62,71.62,0,0,0-9.28-3.19A69.7,69.7,0,0,1,547,432.18a18,18,0,0,1-8.29-8q-3-5.55-1.52-13.76a24.42,24.42,0,0,1,6.54-13.07,30,30,0,0,1,11.7-7.6,41.26,41.26,0,0,1,13.68-2.28,35.5,35.5,0,0,1,17.71,4.33,26.86,26.86,0,0,1,11.33,11.94l-20.52,10.18q-2.74-6.69-9.88-6.69-6.84,0-7.76,4.71-.6,3,3.12,4.72a52,52,0,0,0,9.2,3,70.65,70.65,0,0,1,10.79,3.5,16.76,16.76,0,0,1,8.36,7.75q3,5.55,1.52,14.21-2.13,11.55-11.1,17.1T560,467.75Z"/><path class="cls-9" d="M657.77,387.49q16.26,0,24.62,12.54t5.78,29.11a48.21,48.21,0,0,1-13.45,27.06q-11.18,11.55-28.05,11.55-15.2,0-22.34-10.79L617.49,496h-22.8l18.69-106.4h22.8L635.12,396Q644.39,387.5,657.77,387.49Zm.3,53.66a22.55,22.55,0,0,0,7.3-13.53q1.51-8.5-2.51-13.53t-11.93-5a20.94,20.94,0,0,0-13.68,4.86,21.88,21.88,0,0,0-7.6,12.92l-.31,1.37q-1.07,8.2,3,13.07t12,4.86A20.2,20.2,0,0,0,658.07,441.15Z"/><path class="cls-9" d="M733.16,467.75q-13.38,0-22.27-6.61A31.52,31.52,0,0,1,699,444.87a40.77,40.77,0,0,1-.84-20.29,46.73,46.73,0,0,1,15.35-26.37q12.16-10.72,30.25-10.72,18.24,0,27.51,13.15a37.7,37.7,0,0,1,6.39,29.41q-2.75,15.36-15.36,26.53A42.73,42.73,0,0,1,733.16,467.75Zm-9.73-27.13q3.8,4.94,11.25,4.94a19.78,19.78,0,0,0,13.22-4.94,21.19,21.19,0,0,0,7.15-13q1.51-8.06-2.51-13t-11.48-4.94a18.92,18.92,0,0,0-13,4.94,22.39,22.39,0,0,0-7.07,13Q719.64,435.68,723.43,440.62Z"/><path class="cls-9" d="M841.69,387.49q12.3,0,19.38,8.44t4.48,23l-8.21,46.66h-22.8l7.6-43.32q1.22-7-1.9-10.41t-9-3.42a16.19,16.19,0,0,0-10.57,3.65q-4.49,3.64-6,11.09l-7.45,42.41h-22.8l13.38-76h22.8l-1.22,7.14Q827.7,387.49,841.69,387.49Z"/><path class="cls-9" d="M872.54,465.62l13.38-76h22.8l-13.38,76ZM909.1,378.9a15.49,15.49,0,0,1-10.42,4,11,11,0,0,1-9-4,11.68,11.68,0,0,1-2.36-9.65,16.12,16.12,0,0,1,5.55-9.57,15.11,15.11,0,0,1,10.26-4.11,11.44,11.44,0,0,1,11.55,13.68A15.83,15.83,0,0,1,909.1,378.9Z"/><path class="cls-9" d="M969.52,387.49q11.09,0,18.77,6.08A31.46,31.46,0,0,1,998.93,409a43.86,43.86,0,0,1,1.29,20.14,48.69,48.69,0,0,1-13.53,27.21q-11.1,11.4-27.81,11.4-15.66,0-22.5-10.79l-1.52,8.66h-22.8l18.7-106.4h22.8L947,396A32.43,32.43,0,0,1,969.52,387.49Zm.6,53.73q5.77-4.94,7.3-13.6T974.76,414q-4.18-4.95-11.93-4.94a21.06,21.06,0,0,0-13.91,5,21.4,21.4,0,0,0-7.37,13.53q-1.37,8.52,2.89,13.53t12.16,5A20.12,20.12,0,0,0,970.12,441.22Z"/><path class="cls-9" d="M1006.91,465.62l8.51-48.49,10.94-62.47h22.8l-11.09,63.54-8.36,47.42Z"/><path class="cls-9" d="M1095.06,387.49q16.88,0,26.83,11.55t6.77,28.58a43,43,0,0,1-2.44,9.12h-54.41q1.67,10.63,15.65,10.64a22.54,22.54,0,0,0,16-5.93l16,13.07q-13.07,13.23-33.44,13.23-19.31,0-29.26-12t-7.06-29.64a44.18,44.18,0,0,1,15.5-27.59A44.77,44.77,0,0,1,1095.06,387.49ZM1075,419.41h32.22q-1.07-11.7-13.68-11.7T1075,419.41Z"/><path class="cls-9" d="M176.39,657.75q-23.56,0-32.07-18.7l20.52-10.33q3.34,8.65,13.53,8.66,7.74,0,8.36-4,.45-2.43-3.35-4.11a70.91,70.91,0,0,0-9.27-3.19,69.81,69.81,0,0,1-10.72-4,18,18,0,0,1-8.28-8q-3-5.55-1.52-13.76a24.35,24.35,0,0,1,6.54-13.07,30,30,0,0,1,11.7-7.6,41.26,41.26,0,0,1,13.68-2.28,35.5,35.5,0,0,1,17.71,4.33,26.84,26.84,0,0,1,11.32,11.94L194,603.94q-2.73-6.69-9.88-6.69-6.84,0-7.75,4.71-.62,3,3.12,4.72a51.85,51.85,0,0,0,9.19,3,70,70,0,0,1,10.79,3.5,16.68,16.68,0,0,1,8.36,7.75q3,5.55,1.52,14.21-2.13,11.55-11.09,17.1T176.39,657.75Z"/><path class="cls-9" d="M279.14,579.62h22.8l-13.37,76h-22.8l1.21-7.14q-8.36,9.27-22.34,9.27-12.31,0-19.38-8.44t-4.49-23L229,579.62h22.8l-7.6,43.32q-1.22,7,1.9,10.41t9,3.42a16.18,16.18,0,0,0,10.56-3.65q4.49-3.64,6-11.09Z"/><path class="cls-9" d="M339,593.3A23.86,23.86,0,0,1,349.21,582a30.53,30.53,0,0,1,15.35-3.88l-4.4,25.84a28.45,28.45,0,0,0-10.11.3,21.3,21.3,0,0,0-9.88,5.4,19.44,19.44,0,0,0-6,11.63l.16-.91-6.24,35.26h-22.8l13.38-76h22.8Z"/><path class="cls-9" d="M399.83,655.62l8.51-48.49,10.94-62.47h22.8L431,608.2l-8.36,47.42Z"/><path class="cls-9" d="M488,577.49q16.88,0,26.83,11.55t6.77,28.58a43,43,0,0,1-2.44,9.12H464.73q1.66,10.63,15.65,10.64a22.54,22.54,0,0,0,16-5.93l16,13.07q-13.06,13.23-33.44,13.23-19.31,0-29.26-12t-7.06-29.64A44.18,44.18,0,0,1,458,588.51,44.77,44.77,0,0,1,488,577.49Zm-20.06,31.92h32.22q-1.06-11.7-13.68-11.7T467.92,609.41Z"/><path class="cls-9" d="M663.85,577.49q13.21,0,19.91,8.74T688,609l-8.2,46.66H657l7.75-44.69q1.07-5.77-1.14-9.12t-7.53-3.34q-11.25,0-14.13,13.22l-7.75,43.93h-22.8l7.75-44.69q1.07-5.77-1.14-9.12t-7.53-3.34q-11.25,0-14.13,12.92l-7.75,44.23h-22.8l13.37-76H602l-1.21,6.84q7.89-9,21.12-9,13.53,0,18.55,10.34A30.39,30.39,0,0,1,663.85,577.49Z"/><path class="cls-9" d="M733.46,657.75q-13.38,0-22.27-6.61a31.52,31.52,0,0,1-11.85-16.27,40.77,40.77,0,0,1-.84-20.29,46.73,46.73,0,0,1,15.35-26.37Q726,577.48,744.1,577.49q18.24,0,27.51,13.15A37.7,37.7,0,0,1,778,620.05q-2.75,15.36-15.36,26.53A42.73,42.73,0,0,1,733.46,657.75Zm-9.73-27.13q3.79,4.93,11.25,4.94a19.78,19.78,0,0,0,13.22-4.94,21.19,21.19,0,0,0,7.15-13q1.51-8.05-2.51-13t-11.48-4.94a18.94,18.94,0,0,0-13,4.94,22.39,22.39,0,0,0-7.07,13Q719.94,625.67,723.73,630.62Z"/><path class="cls-9" d="M842.14,577.49q11.1,0,18.77,6.08A31.33,31.33,0,0,1,871.55,599a43.59,43.59,0,0,1,1.29,20.14,48.74,48.74,0,0,1-13.52,27.21q-11.1,11.4-27.82,11.4-15.66,0-22.5-10.79l-1.52,8.66h-22.8l18.7-106.4h22.8L819.64,586A32.45,32.45,0,0,1,842.14,577.49Zm.61,53.73q5.78-4.94,7.29-13.6T847.38,604q-4.17-4.95-11.93-4.94a21.08,21.08,0,0,0-13.91,5,21.4,21.4,0,0,0-7.37,13.53q-1.36,8.52,2.89,13.53t12.16,5A20.13,20.13,0,0,0,842.75,631.22Z"/><path class="cls-9" d="M879.38,655.62l13.37-76h22.8l-13.37,76Zm36.55-86.72a15.44,15.44,0,0,1-10.41,4,11,11,0,0,1-9-4,11.65,11.65,0,0,1-2.36-9.65,16.12,16.12,0,0,1,5.55-9.57,15.11,15.11,0,0,1,10.26-4.11,11.46,11.46,0,0,1,11.55,13.68A15.89,15.89,0,0,1,915.93,568.9Z"/><path class="cls-9" d="M919.05,655.62l8.51-48.49,10.94-62.47h22.81l-11.1,63.54-8.36,47.42Z"/><path class="cls-9" d="M1007.21,577.49q16.86,0,26.83,11.55t6.76,28.58a43.6,43.6,0,0,1-2.43,9.12H984q1.66,10.63,15.66,10.64a22.58,22.58,0,0,0,16-5.93l16,13.07q-13.08,13.23-33.44,13.23-19.3,0-29.26-12t-7.07-29.64a44.18,44.18,0,0,1,15.5-27.59A44.8,44.8,0,0,1,1007.21,577.49Zm-20.07,31.92h32.23q-1.07-11.7-13.68-11.7T987.14,609.41Z"/><g class="cls-10"><g class="cls-11"><line class="cls-12" x1="-0.86" y1="0.17" x2="321.27" y2="0.17"/><line class="cls-12" x1="-0.86" y1="42.5" x2="321.27" y2="42.5"/><line class="cls-12" x1="-0.86" y1="84.83" x2="321.27" y2="84.83"/></g><g class="cls-13"><line class="cls-14" x1="1052.06" y1="888.47" x2="1052.06" y2="471.85"/><line class="cls-14" x1="1093.95" y1="888.47" x2="1093.95" y2="471.85"/><line class="cls-14" x1="1135.84" y1="888.47" x2="1135.84" y2="471.85"/><line class="cls-14" x1="1177.73" y1="888.47" x2="1177.73" y2="471.85"/><line class="cls-14" x1="1219.62" y1="888.47" x2="1219.62" y2="471.85"/><line class="cls-14" x1="1261.51" y1="888.47" x2="1261.51" y2="471.85"/></g><path class="cls-15" d="M899.64-66.29S870.43,124.2,988.94,88.2s163.52-4.93,156,63.53,88.63,117.64,258.5,93.85c0,0,135.15-343.37,129.56-341.87S899.64-66.29,899.64-66.29Z"/><path class="cls-4" d="M-57.52,884.49s59.7-37.84,102.67-41.66c47.33-4.2,54.67,21.56,41.33,61.92C68.79,958.31,43.48,1010,120.71,978s126.2,48.75,82.32,109.2-13.09,63.46,12,69.46,64.38,15,54.75,50c0,0-421.64,22-420.64,19S-57.52,884.49-57.52,884.49Z"/><g class="cls-5"><g class="cls-16"><g class="cls-17"><line class="cls-12" x1="19.21" y1="1080.2" x2="19.21" y2="758.07"/><line class="cls-12" x1="61.54" y1="1080.2" x2="61.54" y2="758.07"/><line class="cls-12" x1="103.87" y1="1080.2" x2="103.87" y2="758.07"/><line class="cls-12" x1="146.21" y1="1080.2" x2="146.21" y2="758.07"/><line class="cls-12" x1="188.54" y1="1080.2" x2="188.54" y2="758.07"/></g></g></g></g><path class="cls-18" d="M1486.51.08C1483.51,7.29,975,1080,975,1080H2472.46V0Z"/><path class="cls-19" d="M491.22,1034.16h-8l-16-19.32v19.32h-6.68V993.54h6.68v18.22l15.43-18.22h7.95l-16.42,19.79Z"/><path class="cls-20" d="M522.9,1034.16l-2.84-8.18H502.77l-2.85,8.18h-7.25l14.74-40.62h8l14.68,40.62ZM505,1019.71h12.88l-6.44-18.33Z"/><path class="cls-21" d="M558.35,1013.1a10.28,10.28,0,0,1,5.69,9.46,10.87,10.87,0,0,1-3.54,8.29,12.17,12.17,0,0,1-8.64,3.31H534.45V993.54h16.13a11.9,11.9,0,0,1,8.44,3.23,10.52,10.52,0,0,1,3.45,8A9.72,9.72,0,0,1,558.35,1013.1Zm-7.77-13.29h-9.46v10.68h9.46a5,5,0,0,0,3.71-1.54,5.54,5.54,0,0,0,0-7.6A5,5,0,0,0,550.58,999.81Zm1.28,28.09a5.24,5.24,0,0,0,3.91-1.66,5.88,5.88,0,0,0,0-8.06,5.2,5.2,0,0,0-3.91-1.66H541.12v11.38Z"/><path class="cls-22" d="M596.3,1034.16l-2.84-8.18H576.17l-2.85,8.18h-7.25l14.74-40.62h8l14.68,40.62Zm-17.93-14.45h12.88l-6.44-18.33Z"/><path class="cls-23" d="M634.6,1034.16l-2.85-8.18H614.46l-2.84,8.18h-7.25l14.73-40.62h8l14.68,40.62Zm-17.93-14.45h12.88l-6.44-18.33Z"/><path class="cls-24" d="M663.84,1034.92A21.07,21.07,0,1,1,674,995.4a19,19,0,0,1,7.29,7.08l-5.81,3.37a12,12,0,0,0-4.73-4.79,13.74,13.74,0,0,0-6.93-1.77,14.07,14.07,0,0,0-10.53,4.12,15.55,15.55,0,0,0,0,20.89,14.11,14.11,0,0,0,10.53,4.12,13.91,13.91,0,0,0,7-1.77,11.53,11.53,0,0,0,4.7-4.79l5.81,3.31a18.86,18.86,0,0,1-7.23,7.11A20.45,20.45,0,0,1,663.84,1034.92Z"/><path class="cls-25" d="M710.9,993.54h6.67v40.62H710.9v-17.58H693.49v17.58h-6.67V993.54h6.67v16.66H710.9Z"/><path class="cls-26" d="M752.15,1034.16l-2.84-8.18H732l-2.84,8.18h-7.26l14.74-40.62h8l14.68,40.62Zm-17.93-14.45H747.1l-6.44-18.33Z"/><path class="cls-27" d="M435.21,987.86a19.38,19.38,0,0,1-24.81,0,19.38,19.38,0,0,1-24.82,0,19.59,19.59,0,0,1-11.46,4.35v25.69l27.6-4.81-15,21.24h55.57a4.44,4.44,0,0,0,4.44-4.44V992.33A19.33,19.33,0,0,1,435.21,987.86Zm-18.41,24.42,2.84,10.09-8.83-5.67a.7.7,0,0,0-.79,0l-8.83,5.67,2.84-10.09c0-.32,0-.63-.32-.79l-8.2-6.47,10.57-.47c.31,0,.47-.16.63-.47l3.78-9.78,3.63,9.78c0,.31.31.47.63.47l10.57.47-8.2,6.47A.57.57,0,0,0,416.8,1012.28Z"/><path class="cls-28" d="M345.6,1049.42a1.09,1.09,0,0,1-.58-2l20.75-13.09a1.09,1.09,0,0,1,1.16,1.84l-20.75,13.09A1.12,1.12,0,0,1,345.6,1049.42Z"/><path class="cls-29" d="M350.51,1035.67a1.09,1.09,0,0,1-.58-2l7.88-5a1.09,1.09,0,0,1,1.16,1.84l-7.88,5A1,1,0,0,1,350.51,1035.67Z"/><path class="cls-30" d="M356.19,1053.39a1.09,1.09,0,0,1-.58-2l12.08-7.62a1.08,1.08,0,0,1,1.16,1.83l-12.08,7.63A1.12,1.12,0,0,1,356.19,1053.39Z"/><path class="cls-31" d="M396.9,1016.12,384,1034.32l-11.86,16.75c.55-5.42,1-14.43-1.49-18.37s-10.82-7.4-16-9.22l19.4-3.38Z"/><path class="cls-32" d="M457,982.77a4.22,4.22,0,0,1-1.86,5.69,17.23,17.23,0,0,1-19-2.68l-.93-.81-.91.81a17.2,17.2,0,0,1-23,0l-.19-.17-.77-.61-.88.78a17.2,17.2,0,0,1-23,0l-.93-.83-.73.65A17.42,17.42,0,0,1,374.12,990a17.61,17.61,0,0,1-8.36-1.62,4.22,4.22,0,0,1-1.91-5.71L373.21,964a7.37,7.37,0,0,1,6.62-4.09H441a7.37,7.37,0,0,1,6.62,4.09Z"/><g class="cls-33"><path class="cls-7" d="M2163.12-224.77c25.61,53.75,3.77,55-18.3,60.37-21.72,4.81-44.07,13.72-18.3,66,26.22,51.1,75.15,91.74,119.3,136.28,44.53,43.69,83.43,91.31,98.28,136.57,14.26,45.75-4.18,45.69-21.18,49.81-17.36,3.44-33.16,11-17.8,54.67,32.48,82.88,94.05,149,91,218.69-3.18,68.9-41.08,21.7-40,94.94-.12,34.9,4.37,62.41,7.65,85.2,3.21,23.25,5.43,41.78-1.27,69.6-7.21,28.83-15.85,42.44-22.46,54.59-7,12.52-12,23.61-19.38,56-7.29,31.83-10.44,50.73-13.15,65.9-2.87,15.74-5.36,27.76-15.87,59.13-10.78,32.1-17.37,50.69-23,68.09-5.72,17.69-10.67,34.2-21,68.88"/><path class="cls-34" d="M2192.42-227.77c25.61,53.76,3.77,55-18.3,60.37-21.72,4.81-44.06,13.72-18.3,66C2182-50.3,2231-9.66,2275.12,34.88c44.53,43.69,83.44,91.31,98.28,136.57,14.26,45.75-4.18,45.69-21.17,49.81-17.37,3.44-33.17,11-17.8,54.67,32.47,82.88,94,149,91,218.69-3.17,68.9-41.07,21.69-40,94.94-.11,34.9,4.38,62.41,7.66,85.19,3.2,23.26,5.43,41.79-1.27,69.61-7.22,28.83-15.86,42.44-22.47,54.59-7,12.53-12,23.61-19.38,56-7.29,31.82-10.44,50.73-13.14,65.9-2.87,15.74-5.37,27.76-15.88,59.13-10.77,32.1-17.36,50.69-23,68.09-5.72,17.69-10.67,34.2-21,68.88"/><path class="cls-34" d="M2251-233.77c25.61,53.75,3.77,55-18.3,60.37-21.72,4.81-44.07,13.72-18.3,66,26.21,51.1,75.14,91.74,119.29,136.28,44.53,43.69,83.44,91.31,98.28,136.57,14.27,45.76-4.17,45.69-21.17,49.81-17.36,3.44-33.16,11-17.8,54.67,32.48,82.89,94,149,91,218.69-3.18,68.91-41.08,21.69-40,94.93-.12,34.91,4.37,62.42,7.65,85.2,3.21,23.26,5.43,41.79-1.27,69.61-7.22,28.84-15.86,42.44-22.46,54.59-7,12.53-12,23.61-19.38,56-7.29,31.82-10.44,50.73-13.15,65.9-2.87,15.74-5.36,27.76-15.87,59.12-10.78,32.11-17.37,50.7-23,68.1-5.73,17.7-10.68,34.2-21,68.88"/><path class="cls-7" d="M2221.72-230.77c25.61,53.76,3.77,55-18.3,60.37-21.71,4.81-44.06,13.72-18.29,66,26.21,51.1,75.14,91.75,119.29,136.28,44.53,43.69,83.44,91.31,98.28,136.57,14.26,45.75-4.18,45.69-21.17,49.81-17.37,3.44-33.16,11-17.8,54.67,32.48,82.88,94,149,91,218.69-3.17,68.9-41.07,21.69-39.95,94.94-.12,34.9,4.37,62.41,7.65,85.19,3.2,23.26,5.43,41.79-1.27,69.61-7.22,28.83-15.86,42.44-22.46,54.59-7,12.53-12,23.61-19.38,56-7.3,31.82-10.45,50.73-13.15,65.9-2.87,15.74-5.37,27.76-15.88,59.12-10.77,32.11-17.36,50.7-23,68.1-5.73,17.69-10.68,34.2-21,68.88"/><path class="cls-7" d="M2280.33-236.77c25.61,53.75,3.77,55-18.3,60.37-21.72,4.81-44.06,13.72-18.3,66C2270-59.31,2318.88-18.66,2363,25.88c44.53,43.69,83.44,91.31,98.28,136.57,14.25,45.75-4.18,45.69-21.18,49.81-17.36,3.44-33.16,11-17.79,54.67,32.47,82.88,94,149,91,218.69-3.18,68.9-41.08,21.69-40,94.94-.12,34.9,4.37,62.41,7.66,85.19,3.2,23.26,5.43,41.78-1.28,69.61-7.21,28.83-15.85,42.44-22.46,54.59-7,12.53-12,23.61-19.38,56-7.29,31.83-10.44,50.73-13.14,65.9-2.88,15.74-5.37,27.76-15.88,59.12-10.78,32.11-17.36,50.7-23,68.1-5.72,17.69-10.67,34.2-21,68.88"/></g><path class="cls-35" d="M2084.9,793.34s-6.74,44.46-36.43,74.59,42.53,21.66,62.33-35.85S2091.37,779.26,2084.9,793.34Z"/><path class="cls-36" d="M1661.92,1028.84s-385.09-28.16-431.39-215.36,56.32-212.66,91.36-317.51S1198,329.29,1304.37,186.63s263.27-145.15,329.39-78S1790.69,41.6,1927.25,53c95.86,8,159.93,87.73,90.93,173.6-26.38,32.83,5.53,128.89,73.53,120.23,139.07-17.71,199.54,66.87,65.75,221-42.73,49.24-11.09,102.14-4.45,138.48C2173,815.42,2000.75,1073.89,1661.92,1028.84Z"/><path class="cls-37" d="M1271.73,1080h230.76l19.14-51.23A72.69,72.69,0,0,1,1560,988c16.71-7.51,39.2-21.16,61-45.49,42.43-47.35,64.94-98.14,64.94-98.14l-143-.7s12.87-79.52-58.21-185.14a59.5,59.5,0,0,1-9.88-38.43l6.74-77s48.29-53.66,18.66-120.24c0,0-28.34-39-39.58-24.72,0,0-85.59,202.64-93.39,232.77s-18.18,49.07-7.79,143.76a569.31,569.31,0,0,1,3.7,63.17,223,223,0,0,1-21.67,95.4Z"/><path class="cls-38" d="M1487,948.55c-21.42-23.64-51.17-19.91-82.46-30.69s-41.33-88.53-41.33-88.53h0c0,2.93.07,5.78.06,8.53a223,223,0,0,1-21.67,95.4L1271.73,1080h230.76l19.14-51.23A72.69,72.69,0,0,1,1560,988a179.6,179.6,0,0,0,51.24-35.32C1547.72,979.28,1508.38,972.19,1487,948.55Z"/><path class="cls-37" d="M1815,263s48.88-32.52,60-11.09-63.5,97.24-63.5,97.24Z"/><path class="cls-37" d="M1815,404.74s48.88-32.52,60-11.09-63.5,97.24-63.5,97.24Z"/><path class="cls-37" d="M1815,501.28s48.88-32.52,60-11.09-63.5,97.24-63.5,97.24Z"/><path class="cls-39" d="M1781.25,226.6H1512.92a36.07,36.07,0,0,0-36.18,36V807.74a36.08,36.08,0,0,0,36.18,36h268.33a36.07,36.07,0,0,0,36.18-36V262.57A36.08,36.08,0,0,0,1781.25,226.6Z"/><path class="cls-38" d="M1501.18,685s-48.53,118.11-43.82,140.44,34.16,52.2,106.42,42.24S1686,844.41,1686,844.41s3-159.4,0-167.48-132.94-65.46-138-65.46S1501.18,685,1501.18,685Z"/><rect class="cls-40" x="1494.28" y="275.62" width="305.61" height="519.07"/><rect class="cls-41" x="1548.98" y="407.15" width="194.56" height="194.56" rx="28.88" ry="28.88"/><path class="cls-42" d="M1685.63,489.76a30.78,30.78,0,0,1-39.4,0,30.75,30.75,0,0,1-39.4,0,31.15,31.15,0,0,1-18.19,6.91V556.9a6.62,6.62,0,0,0,6.62,6.62h102a6.61,6.61,0,0,0,6.61-6.62v-60A30.71,30.71,0,0,1,1685.63,489.76Zm-29.23,38.77,4.5,16-14-9a1.12,1.12,0,0,0-1.25,0l-14,9,4.5-16c0-.5,0-1-.5-1.25l-13-10.27,16.78-.75c.5,0,.75-.25,1-.75l6-15.53,5.76,15.53c0,.5.5.75,1,.75l16.78.75-13,10.27A.91.91,0,0,0,1656.4,528.53Z"/><path class="cls-42" d="M1720.26,481.79a6.58,6.58,0,0,1-2.9,8.85,27.28,27.28,0,0,1-30.27-4.19l-1.47-1.29-1.45,1.29a27.31,27.31,0,0,1-36.48,0l-.3-.26-1.22-1-1.37,1.23a27.34,27.34,0,0,1-36.5,0l-1.46-1.3-1.15,1a27.68,27.68,0,0,1-17,7,28,28,0,0,1-13.41-2.62,6.58,6.58,0,0,1-3-8.89l14.93-29.85a11.7,11.7,0,0,1,10.51-6.5h97.07a11.7,11.7,0,0,1,10.51,6.5Z"/><rect class="cls-43" x="1581.95" y="252.81" width="130.77" height="6.5" rx="3.19" ry="3.19"/><path class="cls-37" d="M1470.66,589.6s1.84,6.81,6,10.16l5-56.65s35.53-39.48,26.94-92.72a79.46,79.46,0,0,0-26-47.18c-8-7-16.71-11.61-21.86-5.06,0,0-40.25,95.29-68.06,164.9Z"/><path class="cls-44" d="M1661.92,819.7a15,15,0,1,1-15-14.92A15,15,0,0,1,1661.92,819.7Z"/><path class="cls-45" d="M1651.38,825.91h-9a1.77,1.77,0,0,1-1.78-1.76v-8.9a1.78,1.78,0,0,1,1.78-1.77h9a1.78,1.78,0,0,1,1.78,1.77v8.9A1.77,1.77,0,0,1,1651.38,825.91Zm-9-11.95a1.29,1.29,0,0,0-1.29,1.29v8.9a1.28,1.28,0,0,0,1.29,1.28h9a1.29,1.29,0,0,0,1.3-1.28v-8.9a1.3,1.3,0,0,0-1.3-1.29Z"/><rect class="cls-46" x="1494.28" y="763.99" width="305.61" height="30.7"/><rect class="cls-47" x="1494.28" y="275.62" width="305.61" height="27.55"/><path class="cls-48" d="M1468,454.12c11.12-5.09,16.93-33.86,19-46.79-8.93-8.93-20.12-17-26.25-9.18,0,0-8.86,21-21.14,50.45C1448,453.24,1459.63,457.92,1468,454.12Z"/><path class="cls-49" d="M1338.22,944.63c24.42,14.92,103,59.51,184.31,69,4.76.55,8.11,4.89,6.7,8.64L1515,1060.1c-.94,2.5-3.77,4-7,3.58-23.95-2.89-122.79-17.68-192.33-71.16-2.36-1.82-3.36-4.58-2.48-6.94L1327.76,947C1329.13,943.36,1334.25,942.21,1338.22,944.63Z"/><path class="cls-50" d="M1331.09,980.79l-.27-.1a2.73,2.73,0,0,1-1.62-3.52l4.37-11.64a2.76,2.76,0,0,1,3.55-1.61l.27.1a2.72,2.72,0,0,1,1.61,3.52l-4.37,11.64A2.75,2.75,0,0,1,1331.09,980.79Z"/><path class="cls-50" d="M1345.71,989.75l-.27-.1a2.74,2.74,0,0,1-1.62-3.53l4.37-11.64a2.77,2.77,0,0,1,3.55-1.6l.27.09a2.73,2.73,0,0,1,1.61,3.53l-4.37,11.64A2.75,2.75,0,0,1,1345.71,989.75Z"/><path class="cls-50" d="M1360.22,998.59h0a2.87,2.87,0,0,1-1.7-3.7l4.27-11.38a2.91,2.91,0,0,1,3.73-1.69h0a2.88,2.88,0,0,1,1.7,3.71L1364,996.9A2.9,2.9,0,0,1,1360.22,998.59Z"/><path class="cls-50" d="M1375.42,1005.88l-.27-.1a2.73,2.73,0,0,1-1.61-3.52l4.37-11.64a2.75,2.75,0,0,1,3.54-1.61l.27.1a2.73,2.73,0,0,1,1.62,3.52l-4.37,11.64A2.76,2.76,0,0,1,1375.42,1005.88Z"/><path class="cls-50" d="M1390.25,1014.29l-.27-.1a2.73,2.73,0,0,1-1.62-3.52l4.37-11.64a2.76,2.76,0,0,1,3.55-1.61l.27.1a2.73,2.73,0,0,1,1.61,3.52l-4.37,11.64A2.75,2.75,0,0,1,1390.25,1014.29Z"/><path class="cls-50" d="M1405.73,1021l-.27-.1a2.73,2.73,0,0,1-1.62-3.52l4.37-11.64a2.76,2.76,0,0,1,3.55-1.61l.27.1a2.72,2.72,0,0,1,1.61,3.52l-4.37,11.64A2.75,2.75,0,0,1,1405.73,1021Z"/><path class="cls-50" d="M1421.51,1026.82l-.27-.1a2.73,2.73,0,0,1-1.61-3.52l4.37-11.64a2.75,2.75,0,0,1,3.54-1.61l.27.1a2.73,2.73,0,0,1,1.62,3.52l-4.37,11.64A2.76,2.76,0,0,1,1421.51,1026.82Z"/><path class="cls-50" d="M1437.47,1031.82h0a2.88,2.88,0,0,1-1.7-3.71l4.27-11.37a2.91,2.91,0,0,1,3.73-1.7h0a2.88,2.88,0,0,1,1.7,3.71l-4.27,11.38A2.91,2.91,0,0,1,1437.47,1031.82Z"/><path class="cls-50" d="M1454.21,1035.12h0a2.87,2.87,0,0,1-1.7-3.7l4.27-11.38a2.9,2.9,0,0,1,3.73-1.69h0a2.88,2.88,0,0,1,1.7,3.71l-4.27,11.37A2.9,2.9,0,0,1,1454.21,1035.12Z"/><path class="cls-50" d="M1470.65,1039.65l-.27-.09a2.74,2.74,0,0,1-1.62-3.53l4.37-11.64a2.76,2.76,0,0,1,3.55-1.61l.27.1a2.73,2.73,0,0,1,1.61,3.53l-4.37,11.64A2.76,2.76,0,0,1,1470.65,1039.65Z"/><path class="cls-50" d="M1487.57,1042.48l-.27-.1a2.73,2.73,0,0,1-1.61-3.53l4.37-11.64a2.75,2.75,0,0,1,3.54-1.61l.27.1a2.74,2.74,0,0,1,1.62,3.53l-4.37,11.64A2.78,2.78,0,0,1,1487.57,1042.48Z"/><path class="cls-50" d="M1504.39,1045.18h0a2.87,2.87,0,0,1-1.71-3.7l4.28-11.38a2.9,2.9,0,0,1,3.72-1.69h0a2.89,2.89,0,0,1,1.71,3.71l-4.27,11.37A2.9,2.9,0,0,1,1504.39,1045.18Z"/><path class="cls-40" d="M1386.47,1032.19l.07-.18a3,3,0,0,1-.77-.19l-19.24-7.14a3.79,3.79,0,0,1-2-5l17.34-46.19a3.84,3.84,0,0,1,4.83-2.42l19.24,7.14a3.56,3.56,0,0,1,2.2,2.51c1.51.65,3,1.31,4.57,2a8.27,8.27,0,0,0-5.07-9l-19.24-7.14c-4.22-1.57-9,.84-10.73,5.37l-17.34,46.19c-1.7,4.52.34,9.48,4.56,11.05l19.23,7.14a8.16,8.16,0,0,0,8.31-1.78C1390.41,1033.78,1388.44,1033,1386.47,1032.19Z"/><path class="cls-51" d="M1382.25,995.54l-8.37-3.11a3,3,0,0,0-3.81,1.91,3,3,0,0,0,1.62,3.92l8.37,3.11Z"/><path class="cls-37" d="M1748.19,617.48s-41.27,3.45-42.71,14.35,1.73,30.13,40.69,33.86h40.37s-12.08-33.28-11.5-34.43S1748.19,617.48,1748.19,617.48Z"/><path class="cls-37" d="M1682,780.15a11.1,11.1,0,0,0-4.36,15.42c19,32.56,94.52,162,101.33,172.52,7.79,12,26.84,40.46,90,55.09s89.19,56.82,89.19,56.82H2153s-45.89-72.31-84-260c0,0-29.44-155.82-84.86-150.65,0,0-33.77-35.3-66.68-28.41,0,0-62.34-37-97.85-37l-85.27-100.19c-8.44-9.92-23.32-11.86-33.7-4a16.08,16.08,0,0,0-6.59,10.33c-2.59,16.36,19,57.68,53.69,107.61s120.37,208.33,83.13,278.06c0,0-38.1-28.41-71-74C1732.33,783.53,1699.92,770.68,1682,780.15Z"/><path class="cls-48" d="M1820,604a356,356,0,0,1,31.94,31c13.53,14.64,30.6,36.33,40.63,53.09,12.65,20.72,21,38.89,24.94,61.7l-.25,0c-4.55-21.43-16.42-44.51-26.76-60.46-7.73-12.47-22-32.28-40.11-53-9.07-10.4-20.57-22.69-30.57-32.2Z"/><path class="cls-48" d="M1916.93,640.69a96.35,96.35,0,0,1,24.67,18.6,119.24,119.24,0,0,1,18.7,24.8,120.89,120.89,0,0,1,11.7,28.72c2.24,9.36,3.68,15.71,3.92,30.53l-.26,0a149.14,149.14,0,0,0-5.62-30,135.67,135.67,0,0,0-12-28,133,133,0,0,0-18-24.69c-6.52-7.09-15-14.75-23.29-19.75Z"/><path class="cls-48" d="M1983.44,668.64c8.15,6.13,16.39,17,20.39,24.29a108.79,108.79,0,0,1,11.63,29.51c1.93,7,2.42,13.78,2.72,20.89l-.26,0A155.18,155.18,0,0,0,2013.5,723a142.07,142.07,0,0,0-11.82-28.9c-3-6-10.9-17.92-18.35-25.25Z"/><path class="cls-48" d="M1721.3,820.22c1.72-8.71-8.49-22.53-17.76-33a21.66,21.66,0,0,0-23-6.22,11.1,11.1,0,0,0-3,14.53c5.1,8.75,14.29,24.5,25.13,43C1710.85,834.51,1719.7,828.29,1721.3,820.22Z"/><path class="cls-48" d="M1729.48,543.07c4.93-1,27.28-8.37,25.91-12.42h0l-22-25.9a25.21,25.21,0,0,0-16.81-8.73h-.1c-.18,0-.58,0-1.15,0-3,0-10.23.84-11.83,8.8s11.5,27,17.27,34.89A8.68,8.68,0,0,0,1729.48,543.07Z"/><path class="cls-38" d="M1958.18,1080H2153s-30.08-47.41-61.76-165.09c-13.9,86.65-90.6,81.65-121,86.46-35,5.53-171.08-22.66-190.14-31.55,8.47,12.86,28.57,39.39,88.92,53.36C1932.2,1037.82,1958.18,1080,1958.18,1080Z"/><path class="cls-38" d="M1758.06,633.43c38.2,61,106.74,201.19,72.83,262.35l22.51,22.08s56.86-62.63-33.63-200.74A920.54,920.54,0,0,0,1758.06,633.43Z"/><path class="cls-52" d="M1230.69,455.89c-7.93-39.87,51.89-53.27,61.52-13.77a61.13,61.13,0,0,1,1.61,12c1.86,47.47-27,99.15-57.77,90.45s-13-41.12-3.73-60.58C1236.67,474.92,1232.73,466.18,1230.69,455.89Z"/><path class="cls-53" d="M2079.72,195c-13.11-1.14-20.51,17.66-20.73,31.59-.17,10.83-2.67,32.73,10.33,53.07s37.38,37.06,71.34,40,29.84-29.86-6.34-53.67C2108,248.67,2107.61,197.45,2079.72,195Z"/><path class="cls-49" d="M1817.9,336.93v18.39a23.8,23.8,0,0,1-23.79,23.8h-1.17a23.8,23.8,0,0,1-23.79-23.8V336.93L1734,275.62h34.66Z"/><path class="cls-51" d="M1671.76,336.93v18.39a23.8,23.8,0,0,1-23.79,23.8h-1.17a23.8,23.8,0,0,1-23.79-23.8V336.93h-.25l7-61.31h34.66l7,61.31Z"/><path class="cls-49" d="M1630.06,275.62l-7,61.31v18.39a23.8,23.8,0,0,1-23.79,23.8h-1.17a23.8,23.8,0,0,1-23.79-23.8V336.93l21.14-61.31Z"/><path class="cls-51" d="M1595.4,275.62l-21.14,61.31v18.39a23.8,23.8,0,0,1-23.79,23.8h-1.17a23.8,23.8,0,0,1-23.79-23.8V336.93l35.22-61.31Z"/><path class="cls-49" d="M1560.73,275.62l-35.22,61.31v18.39a23.8,23.8,0,0,1-23.79,23.8h-1.17a23.8,23.8,0,0,1-23.79-23.8V336.93l49.31-61.31Z"/><path class="cls-51" d="M1526.07,275.62l-49.31,61.31v18.39a23.8,23.8,0,0,1-23.79,23.8h-1.17a23.8,23.8,0,0,1-23.79-23.8V336.93l63.4-61.31Z"/><path class="cls-51" d="M1866.65,336.93v18.39a23.8,23.8,0,0,1-23.79,23.8h-1.17a23.8,23.8,0,0,1-23.79-23.8V336.93h-.24l-49.44-61.31h34.67l63.52,61.31Z"/><path class="cls-51" d="M1769.26,336.93v18.39a23.8,23.8,0,0,1-23.79,23.8h-1.17a23.8,23.8,0,0,1-23.79-23.8V336.93h-.24l-21.2-61.31h34.67L1769,336.93Z"/><path class="cls-54" d="M1622.76,336.93h48.75a0,0,0,0,1,0,0v18.4a23.79,23.79,0,0,1-23.79,23.79h-1.17a23.79,23.79,0,0,1-23.79-23.79v-18.4A0,0,0,0,1,1622.76,336.93Z"/><path class="cls-54" d="M1525.26,336.93H1574a0,0,0,0,1,0,0v18.4a23.79,23.79,0,0,1-23.79,23.79h-1.17a23.79,23.79,0,0,1-23.79-23.79v-18.4A0,0,0,0,1,1525.26,336.93Z"/><path class="cls-54" d="M1817.66,336.93h48.75a0,0,0,0,1,0,0v18.4a23.79,23.79,0,0,1-23.79,23.79h-1.17a23.79,23.79,0,0,1-23.79-23.79v-18.4A0,0,0,0,1,1817.66,336.93Z"/><path class="cls-54" d="M1720.27,336.93H1769a0,0,0,0,1,0,0v18.4a23.79,23.79,0,0,1-23.79,23.79h-1.17a23.79,23.79,0,0,1-23.79-23.79v-18.4a0,0,0,0,1,0,0Z"/><path class="cls-54" d="M1427.76,336.93h48.75a0,0,0,0,1,0,0v18.4a23.79,23.79,0,0,1-23.79,23.79h-1.17a23.79,23.79,0,0,1-23.79-23.79v-18.4A0,0,0,0,1,1427.76,336.93Z"/><path class="cls-49" d="M1720.51,336.93v18.39a23.8,23.8,0,0,1-23.79,23.8h-1.17a23.8,23.8,0,0,1-23.79-23.8V336.93l-7.1-61.31h34.66Z"/><g class="cls-54"><path d="M1671.52,336.93h48.75a0,0,0,0,1,0,0v18.4a23.79,23.79,0,0,1-23.79,23.79h-1.17a23.79,23.79,0,0,1-23.79-23.79v-18.4a0,0,0,0,1,0,0Z"/><path d="M1574,336.93h48.75a0,0,0,0,1,0,0v18.4A23.79,23.79,0,0,1,1599,379.12h-1.17A23.79,23.79,0,0,1,1574,355.32v-18.4A0,0,0,0,1,1574,336.93Z"/><path d="M1476.51,336.93h48.75a0,0,0,0,1,0,0v18.4a23.79,23.79,0,0,1-23.79,23.79h-1.17a23.79,23.79,0,0,1-23.79-23.79v-18.4a0,0,0,0,1,0,0Z"/><path d="M1768.9,336.93h48.75a0,0,0,0,1,0,0v18.4a23.79,23.79,0,0,1-23.79,23.79h-1.17a23.79,23.79,0,0,1-23.79-23.79v-18.4A0,0,0,0,1,1768.9,336.93Z"/></g><rect class="cls-55" x="1534.16" y="671.36" width="225.86" height="42.44" rx="20.83" ry="20.83"/><path class="cls-42" d="M1565.25,683.18v3H1560V702h-3.09V686.13h-5.32v-3Z"/><path class="cls-42" d="M1571.91,699h8.32v3h-11.41v-18.8h11.28v3h-8.19V691h7.51V694h-7.51Z"/><path class="cls-42" d="M1587.43,699h7.65v3h-10.74v-18.8h3.09Z"/><path class="cls-42" d="M1601.74,699h8.32v3h-11.41v-18.8h11.28v3h-8.19V691h7.52V694h-7.52Z"/><path class="cls-42" d="M1622.9,702.32a9.75,9.75,0,1,1,4.71-18.28,8.62,8.62,0,0,1,3.37,3.27l-2.68,1.56a5.56,5.56,0,0,0-2.19-2.22,6.43,6.43,0,0,0-3.21-.81,6.51,6.51,0,0,0-4.87,1.9,7.19,7.19,0,0,0,0,9.67,7,7,0,0,0,8.09,1.09,5.35,5.35,0,0,0,2.18-2.22l2.68,1.53a8.59,8.59,0,0,1-3.34,3.29A9.4,9.4,0,0,1,1622.9,702.32Z"/><path class="cls-42" d="M1646,683.18h3.09V702H1646v-8.14h-8.06V702h-3.09v-18.8h3.09v7.7H1646Z"/><path class="cls-42" d="M1666.35,702l-1.31-3.79h-8l-1.31,3.79h-3.36l6.82-18.8h3.71l6.79,18.8Zm-8.3-6.69h6l-3-8.49Z"/><path class="cls-42" d="M1683.7,702l-4-6.85h-3.65V702H1673v-18.8h7.52a6,6,0,0,1,6,6,5.64,5.64,0,0,1-1,3.29,6,6,0,0,1-2.7,2.16l4.27,7.31Zm-7.63-15.9v6.28h4.43a2.77,2.77,0,0,0,2.1-.91,3.32,3.32,0,0,0,0-4.46,2.77,2.77,0,0,0-2.1-.91Z"/><path class="cls-42" d="M1708.89,692.25v1.29a8.41,8.41,0,0,1-2.55,6.33,9.18,9.18,0,0,1-6.66,2.45,9.78,9.78,0,0,1-7.19-2.82,9.88,9.88,0,0,1,0-13.84,9.54,9.54,0,0,1,7-2.83,9.67,9.67,0,0,1,4.8,1.21,8.84,8.84,0,0,1,3.39,3.25l-2.66,1.53a5.62,5.62,0,0,0-2.23-2.17,6.78,6.78,0,0,0-3.3-.81,6.82,6.82,0,0,0-4.85,11.57,6.84,6.84,0,0,0,5,1.91,6.62,6.62,0,0,0,4.07-1.17,5.1,5.1,0,0,0,2-3.13h-6.28v-2.77Z"/><path class="cls-42" d="M1716.09,699h8.32v3H1713v-18.8h11.28v3h-8.19V691h7.51V694h-7.51Z"/><path class="cls-42" d="M1739.23,702l-4-6.85h-3.65V702h-3.09v-18.8H1736a6,6,0,0,1,6,6,5.7,5.7,0,0,1-1,3.29,6,6,0,0,1-2.7,2.16l4.27,7.31Zm-7.62-15.9v6.28H1736a2.75,2.75,0,0,0,2.09-.91,3.32,3.32,0,0,0,0-4.46,2.75,2.75,0,0,0-2.09-.91Z"/><path d="M1036.51,859.58a18.58,18.58,0,0,1-18.58,18.58H634.79a18.58,18.58,0,0,1-18.58-18.58V759.26a18.58,18.58,0,0,1,18.58-18.58h383.14a18.58,18.58,0,0,1,18.58,18.58Z"/><path class="cls-42" d="M725.81,831.55a67.81,67.81,0,0,1-6.15,11.5c-4,6.08-9.63,13.66-16.61,13.72-6.21.06-7.8-4-16.22-4s-10.17,4.06-16.38,4c-7-.07-12.32-6.91-16.31-13-11.18-17-12.35-37-5.46-47.6,4.9-7.55,12.63-12,19.9-12s12,4,18.16,4c5.94,0,9.55-4.06,18.11-4.06,6.46,0,13.31,3.52,18.2,9.61C707.05,802.6,709.65,825.45,725.81,831.55Z"/><path class="cls-42" d="M698.36,777.43c3.11-4,5.47-9.62,4.61-15.38-5.08.35-11,3.58-14.48,7.79-3.15,3.82-5.75,9.49-4.74,15C689.3,785,695,781.71,698.36,777.43Z"/><text class="cls-56" transform="translate(743.85 786.51)">D<tspan class="cls-57" x="20.82" y="0">i</tspan><tspan x="27.17" y="0">sponible </tspan><tspan class="cls-58" x="147.91" y="0">s</tspan><tspan x="161.05" y="0">ur</tspan><tspan class="cls-59"><tspan x="0" y="56.07">App </tspan><tspan class="cls-60" x="126.98" y="56.07">S</tspan><tspan class="cls-61" x="160.11" y="56.07">t</tspan><tspan class="cls-62" x="181.18" y="56.07">o</tspan><tspan class="cls-63" x="216.22" y="56.07">r</tspan><tspan x="235.09" y="56.07">e</tspan></tspan></text><path class="cls-64" d="M559.25,858.6A18.21,18.21,0,0,1,541,876.81H165.41a18.21,18.21,0,0,1-18.22-18.21V760.24A18.21,18.21,0,0,1,165.41,742H541a18.21,18.21,0,0,1,18.21,18.21Z"/><g id="PLAY"><g class="cls-65"><polygon class="cls-66" points="178.1 767.98 178.1 813.61 178.1 859.25 224.13 813.62 178.1 767.98"/><polygon class="cls-67" points="236.49 801.36 217.91 790.63 178.1 767.64 178.1 767.98 224.13 813.62 236.49 801.36"/><polygon class="cls-68" points="178.1 859.25 178.1 859.59 217.91 836.6 236.49 825.87 224.13 813.62 178.1 859.25"/><polygon class="cls-69" points="236.49 801.36 224.13 813.62 236.49 825.87 257.72 813.61 236.49 801.36"/></g></g><path class="cls-70" d="M467.87,843.44a11.62,11.62,0,0,1-4.73-1,8.9,8.9,0,0,1-3.6-3h-.29a36.36,36.36,0,0,1,.29,4.41v10.93h-4V816.41h3.27l.56,3.64h.19a9.3,9.3,0,0,1,3.61-3.15,10.91,10.91,0,0,1,4.72-1,9.8,9.8,0,0,1,8.15,3.61q2.88,3.6,2.88,10.12T476,839.82A9.83,9.83,0,0,1,467.87,843.44Zm-.58-24.1c-2.71,0-4.67.76-5.88,2.26s-1.84,3.89-1.87,7.17v.89q0,5.6,1.87,8c1.24,1.6,3.24,2.41,6,2.41a6.22,6.22,0,0,0,5.39-2.79q2-2.77,2-7.68t-2-7.61A6.42,6.42,0,0,0,467.29,819.34Z"/><path class="cls-70" d="M488.2,843h-4V805.27h4Z"/><path class="cls-70" d="M511.32,843l-.8-3.78h-.19a11.25,11.25,0,0,1-4,3.38,12,12,0,0,1-4.92.88,8.9,8.9,0,0,1-6.19-2,7.41,7.41,0,0,1-2.24-5.79q0-8,12.86-8.43l4.5-.14V825.4a6.7,6.7,0,0,0-1.34-4.61,5.51,5.51,0,0,0-4.3-1.49,17.45,17.45,0,0,0-7.51,2L496,818.25a19.22,19.22,0,0,1,4.3-1.67A18.72,18.72,0,0,1,505,816c3.17,0,5.51.7,7,2.1s2.29,3.66,2.29,6.76V843Zm-9.08-2.83a8.16,8.16,0,0,0,5.89-2.06,7.63,7.63,0,0,0,2.15-5.77v-2.4l-4,.17c-3.2.12-5.5.61-6.92,1.49a4.5,4.5,0,0,0-2.12,4.11,4.15,4.15,0,0,0,1.32,3.32A5.48,5.48,0,0,0,502.24,840.13Z"/><path class="cls-70" d="M516.63,816.41h4.31l5.81,15.14a57.63,57.63,0,0,1,2.38,7.49h.19q.31-1.24,1.32-4.23t6.58-18.4h4.31l-11.41,30.23a15.06,15.06,0,0,1-4,6.36,8.43,8.43,0,0,1-5.56,1.88,15.92,15.92,0,0,1-3.63-.42v-3.22a13.63,13.63,0,0,0,3,.29q4.14,0,5.91-4.65l1.48-3.77Z"/><path class="cls-70" d="M393.4,818.88a9.38,9.38,0,0,1,3.94,7.5c0,4.1-2.34,6-4.67,7.88a3.9,3.9,0,0,0-1.55,2.72,3.05,3.05,0,0,0,1.44,2.39l2,1.55c2.44,2.06,4.66,3.94,4.66,7.78,0,5.22-5.05,10.49-14.6,10.49-8.05,0-11.93-3.83-11.93-7.94a8,8,0,0,1,4.27-6.78c3.44-2.11,8.11-2.38,10.6-2.55a5.85,5.85,0,0,1-1.66-3.77,5.13,5.13,0,0,1,.55-2.17c-.61.06-1.22.11-1.77.11a8.78,8.78,0,0,1-9.22-8.71,10,10,0,0,1,3.55-7.44c3.17-2.61,6.94-3.06,9.94-3.06h11.44l-3.55,2Zm-3.95,24.65a9.89,9.89,0,0,0-1.27,0,22.12,22.12,0,0,0-5.83.89c-1.23.44-4.78,1.77-4.78,5.72s3.83,6.77,9.77,6.77c5.33,0,8.17-2.56,8.17-6C395.51,848,393.67,846.53,389.45,843.53ZM391.06,833a5.6,5.6,0,0,0,1.39-4.05c0-4-2.39-10.22-7-10.22a5.16,5.16,0,0,0-3.88,1.84,6.41,6.41,0,0,0-1.22,4.11c0,3.71,2.16,9.88,6.94,9.88A5.66,5.66,0,0,0,391.06,833Z"/><path class="cls-70" d="M358.44,842.64a13.08,13.08,0,0,1-13.52-13.08c0-7.26,5.93-13.47,14.36-13.47a13,13,0,0,1,13.24,13.08C372.52,835.71,367.48,842.64,358.44,842.64Zm6.93-4.48A10.07,10.07,0,0,0,367,832c0-4.88-2.32-14.19-9.2-14.19a7.7,7.7,0,0,0-5,1.89c-2.16,1.93-2.55,4.37-2.55,6.76,0,5.48,2.72,14.52,9.43,14.52A7.08,7.08,0,0,0,365.37,838.16Z"/><path class="cls-70" d="M328.4,842.64a13.08,13.08,0,0,1-13.53-13.08c0-7.26,5.93-13.47,14.36-13.47a13,13,0,0,1,13.24,13.08C342.47,835.71,337.43,842.64,328.4,842.64Zm6.92-4.48A10,10,0,0,0,337,832c0-4.88-2.33-14.19-9.21-14.19a7.7,7.7,0,0,0-5,1.89c-2.16,1.93-2.55,4.37-2.55,6.76,0,5.48,2.71,14.52,9.42,14.52A7.08,7.08,0,0,0,335.32,838.16Z"/><path class="cls-70" d="M310.63,841.78l-8,1.84a59.32,59.32,0,0,1-9.19.94c-15.38,0-21.23-11.31-21.23-20.18,0-10.81,8.3-20.84,22.51-20.84a32.37,32.37,0,0,1,8.53,1.17,21.72,21.72,0,0,1,7.35,3.46l-4.62,4.4-1.95.45,1.39-2.23a15.91,15.91,0,0,0-11.93-5.24c-8.8,0-15.43,6.69-15.43,16.44,0,10.48,7.58,20.34,19.72,20.34a16.61,16.61,0,0,0,7.08-1.39v-9l-8.41.44,4.45-2.4h11.82l-1.45,1.4a1.31,1.31,0,0,0-.56.89c-.05.5-.11,2.12-.11,2.67Z"/><path class="cls-70" d="M411,840.17c-1.84-.17-2.22-.5-2.22-2.68V806c0-.12,0-.24,0-.36.22-2,.78-2.28,2.51-3.29h-8l-4.18,2h4.26v34.41c0,1.11-.22,1.28-1.5,2.95h9.86l2.06-1.22C412.91,840.34,412,840.28,411,840.17Z"/><path class="cls-70" d="M433.69,840.68c-.61.34-1.22.73-1.82,1a12.93,12.93,0,0,1-5.38,1.05,11.8,11.8,0,0,1-7.36-2.16c-3.93-2.77-5.64-7.53-5.64-11.68a12.54,12.54,0,0,1,12.67-12.78,10.82,10.82,0,0,1,5.71,1.55,9.19,9.19,0,0,1,3.87,5.48l-13,5.26-4.26.33c1.38,7,6.14,11.12,11.4,11.12a14.29,14.29,0,0,0,6.75-1.93Zm-5.2-16.49c1.05-.39,1.6-.72,1.6-1.5,0-2.21-2.49-4.76-5.48-4.76-2.22,0-6.36,1.72-6.36,7.7,0,.94.11,1.93.16,2.93Z"/><path class="cls-70" d="M439,816.49v3.65h-.44v-3.65h-1.21v-.38h2.86v.38Z"/><path class="cls-70" d="M444,820.14v-3.69h0l-1.13,3.69h-.34l-1.14-3.69h0v3.69H441v-4h.69l1,3.26h0l1-3.26h.7v4Z"/><text class="cls-56" transform="translate(272.24 786.52)">D<tspan class="cls-57" x="20.82" y="0">i</tspan><tspan x="27.17" y="0">sponible </tspan><tspan class="cls-58" x="147.91" y="0">s</tspan><tspan x="161.05" y="0">ur</tspan></text><path class="cls-42" d="M1772.51,77c17.61-3.46,35.43-5.94,53.35-7.69A535.37,535.37,0,0,1,1880,66.62c18.17.15,36.48,1.21,55,4.84a129.68,129.68,0,0,1,27.75,8.43,76.08,76.08,0,0,1,13.63,7.7,50.32,50.32,0,0,1,12.11,12.2,42.89,42.89,0,0,1,4.41,8.12c.6,1.45,1,3,1.53,4.44l.54,2.28.25,1.14a10.45,10.45,0,0,1,.21,1.07l.56,3.73c.17,1.25.4,2.49.48,3.75l.33,3.76c0,.63.12,1.25.15,1.88l.06,1.88a129.17,129.17,0,0,1-2.56,29.56,248.28,248.28,0,0,1-7.25,27.31c-2.77,8.72-5.62,17.09-8.08,25.32a194.9,194.9,0,0,0-5.85,24.18,107.46,107.46,0,0,0-1.41,23.5,98.2,98.2,0,0,0,3.93,22.89c.56,1.88,1.23,3.74,1.83,5.62.28.94.68,1.86,1,2.78l1.09,2.78c.67,1.86,1.61,3.67,2.42,5.51.43.91.81,1.85,1.27,2.74l1.38,2.67a118.24,118.24,0,0,0,12.81,20,107.42,107.42,0,0,0,16.58,16.58A109.14,109.14,0,0,0,2034,356.05a145.94,145.94,0,0,0,22.49,8.89c15.67,4.77,32.41,7.05,49.46,8.05,4.27.23,8.57.39,12.89.45,2,0,4.74.11,7.22.19l3.8.3c1.27.07,2.54.24,3.81.43a90.18,90.18,0,0,1,15.12,3.29l3.72,1.23c1.23.44,2.45,1,3.67,1.46l1.82.76c.61.26,1.19.58,1.79.86l3.55,1.79,3.43,2c.57.35,1.15.68,1.71,1l1.63,1.16c1.08.78,2.18,1.54,3.23,2.36l3,2.62c.5.44,1,.86,1.5,1.32l1.39,1.43,2.77,2.87,2.51,3.08,1.25,1.54c.41.51.75,1.07,1.13,1.61a82.71,82.71,0,0,1,12.41,27.77,126.45,126.45,0,0,1,3.47,28.68l-.06,7.07c-.11,2.34-.28,4.67-.41,7-.09,1.17-.13,2.33-.24,3.49l-.39,3.46c-.27,2.3-.49,4.61-.81,6.89a311.56,311.56,0,0,1-13,53.07,464.9,464.9,0,0,1-20.11,50.07l1.63-6.53,1.69-6.5.84-3.24.76-3.27,1.52-6.53c.5-2.17,1.09-4.32,1.53-6.51l1.4-6.53,1.41-6.52,1.24-6.55a358.6,358.6,0,0,0,6.39-52.27l.09-6.47,0-3.23c0-1.08-.07-2.15-.1-3.22-.09-2.13-.13-4.27-.24-6.4l-.57-6.32a112.86,112.86,0,0,0-5-24.12,65.46,65.46,0,0,0-10.87-20.18c-.29-.35-.55-.74-.86-1.07l-.95-1-1.87-2-2-1.8-1-.9c-.34-.29-.72-.54-1.08-.81l-2.16-1.62-2.29-1.43-1.14-.73c-.39-.22-.8-.41-1.2-.62l-2.4-1.25-2.52-1.07c-.42-.17-.82-.37-1.26-.52l-1.3-.44c-.88-.28-1.73-.62-2.62-.87l-2.69-.71a66.31,66.31,0,0,0-11.17-1.72c-1-.08-1.9-.15-2.87-.16l-2.89-.09c-2,0-3.7,0-6.18.13-4.61.15-9.26.2-13.92.16a225,225,0,0,1-56.41-7.12,160.38,160.38,0,0,1-27.54-10.15,138,138,0,0,1-25.42-15.68,134.31,134.31,0,0,1-21.41-21.09,145.36,145.36,0,0,1-16.26-25l-1.67-3.3c-.56-1.1-1-2.23-1.54-3.34-1-2.26-2.06-4.44-2.91-6.78l-1.34-3.47c-.44-1.16-.92-2.3-1.28-3.5-.76-2.38-1.57-4.74-2.27-7.15a124,124,0,0,1-4.84-29.86,136.37,136.37,0,0,1,2.35-29.87c.4-2.45,1-4.79,1.49-7.18s1.17-4.68,1.76-7c1.26-4.6,2.67-9.12,4.16-13.52,5.94-17.62,12.67-33.76,16.62-49.66a108.3,108.3,0,0,0,3.23-23.63l.05-1.47c0-.48,0-1,0-1.46l-.08-2.92c0-1-.13-2-.21-2.92l-.25-2.92-.3-2.09c-.21-.63-.31-1.3-.53-1.93a19.46,19.46,0,0,0-1.73-3.76,29.2,29.2,0,0,0-6.27-7.13,52.88,52.88,0,0,0-9.27-6.14,120.06,120.06,0,0,0-22.88-8.86,243.49,243.49,0,0,0-25.17-5.65c-8.57-1.53-17.28-2.66-26-3.64-17.52-1.93-35.25-3-53.05-3.64q-13.35-.47-26.76-.61C1790.42,76.85,1781.48,76.91,1772.51,77Z"/></g><g id="Slide_3" data-name="Slide 3"><g class="cls-71"><g class="cls-11"><line class="cls-12" x1="-0.82" y1="1009.17" x2="321.32" y2="1009.17"/><line class="cls-12" x1="-0.82" y1="1051.5" x2="321.32" y2="1051.5"/></g><path class="cls-15" d="M899.68,1069.71S870.47,1260.2,989,1224.2s163.52-4.93,156,63.53,88.63,117.64,258.5,93.85c0,0,135.14-343.37,129.56-341.87S899.68,1069.71,899.68,1069.71Z"/></g><g class="cls-72"><path class="cls-7" d="M2164,916.08c25.61,53.75,3.77,54.95-18.3,60.36-21.72,4.81-44.06,13.73-18.3,66,26.22,51.09,75.15,91.74,119.3,136.27,44.53,43.7,83.44,91.32,98.28,136.58,14.26,45.75-4.18,45.68-21.18,49.81-17.36,3.44-33.16,11-17.79,54.67,32.47,82.88,94,149,91,218.68-3.18,68.91-41.08,21.7-40,94.94-.11,34.9,4.37,62.41,7.66,85.2,3.2,23.25,5.43,41.78-1.27,69.6-7.22,28.84-15.86,42.45-22.47,54.59-7,12.53-12,23.62-19.38,56-7.29,31.83-10.44,50.74-13.14,65.9-2.87,15.74-5.37,27.76-15.88,59.13-10.78,32.1-17.36,50.69-23,68.1-5.72,17.69-10.67,34.2-21,68.88"/><path class="cls-34" d="M2193.29,913.08c25.61,53.75,3.77,54.95-18.3,60.36-21.71,4.81-44.06,13.72-18.29,66,26.21,51.09,75.14,91.73,119.29,136.27,44.53,43.69,83.44,91.31,98.28,136.58,14.26,45.75-4.18,45.69-21.17,49.81-17.37,3.44-33.16,11-17.8,54.67,32.47,82.88,94,149,91,218.68-3.17,68.9-41.07,21.7-39.95,94.94-.12,34.9,4.37,62.41,7.65,85.2,3.2,23.25,5.43,41.78-1.27,69.6-7.22,28.84-15.86,42.45-22.46,54.6-7,12.52-12,23.6-19.38,56-7.3,31.83-10.45,50.74-13.15,65.9-2.87,15.74-5.37,27.77-15.88,59.13-10.77,32.1-17.36,50.69-22.95,68.09-5.73,17.7-10.68,34.21-21,68.89"/><path class="cls-34" d="M2251.9,907.08c25.61,53.75,3.77,54.95-18.3,60.36-21.72,4.81-44.06,13.73-18.3,66,26.21,51.09,75.14,91.74,119.3,136.27,44.53,43.69,83.43,91.31,98.28,136.58,14.26,45.75-4.18,45.68-21.18,49.81-17.36,3.43-33.16,11-17.79,54.67,32.47,82.88,94,149,91,218.68-3.18,68.91-41.08,21.7-40,94.94-.11,34.9,4.37,62.41,7.65,85.2,3.21,23.25,5.44,41.78-1.27,69.6-7.21,28.84-15.85,42.45-22.46,54.6-7,12.52-12,23.61-19.38,56-7.29,31.82-10.44,50.74-13.15,65.9-2.87,15.74-5.36,27.76-15.87,59.13-10.78,32.1-17.37,50.69-23,68.1-5.72,17.69-10.67,34.2-21,68.87"/><path class="cls-7" d="M2222.6,910.08c25.6,53.75,3.77,54.95-18.31,60.37-21.71,4.81-44.06,13.72-18.29,66,26.21,51.09,75.14,91.74,119.3,136.28,44.53,43.69,83.43,91.3,98.27,136.57,14.26,45.75-4.17,45.68-21.17,49.8-17.36,3.44-33.16,11-17.8,54.68,32.48,82.88,94,149,91,218.68-3.17,68.91-41.07,21.7-40,94.94-.12,34.9,4.37,62.41,7.65,85.2,3.21,23.25,5.43,41.78-1.27,69.6-7.22,28.84-15.86,42.45-22.46,54.6-7,12.52-12,23.6-19.38,56-7.3,31.83-10.45,50.74-13.15,65.9-2.87,15.74-5.36,27.77-15.87,59.13-10.78,32.1-17.37,50.69-23,68.1-5.73,17.69-10.68,34.19-21,68.87"/><path class="cls-7" d="M2281.2,904.08c25.61,53.75,3.77,54.95-18.3,60.36-21.71,4.81-44.06,13.72-18.3,66,26.22,51.09,75.15,91.74,119.3,136.27,44.53,43.69,83.44,91.32,98.28,136.58,14.26,45.75-4.18,45.68-21.17,49.81-17.37,3.43-33.16,11-17.8,54.67,32.47,82.88,94,148.94,91,218.68-3.18,68.91-41.07,21.69-40,94.94-.11,34.9,4.38,62.41,7.66,85.2,3.2,23.25,5.43,41.78-1.27,69.6-7.22,28.84-15.86,42.45-22.46,54.6-7,12.52-12,23.6-19.38,56-7.3,31.83-10.45,50.74-13.15,65.9-2.87,15.74-5.37,27.76-15.88,59.13-10.78,32.1-17.36,50.69-23,68.1-5.72,17.69-10.67,34.2-21,68.87"/></g></g></g></svg>