<svg id="Calque_1" data-name="Calque 1" xmlns="http://www.w3.org/2000/svg" viewBox="0 0 378 108.35"><defs><style>.cls-1{fill:#d81942;}.cls-2{fill:#fff;}.cls-3{fill:#ffce00;}.cls-4{fill:#1f936f;}</style></defs><title>logo web</title><path class="cls-1" d="M86.85,37.77a16.86,16.86,0,0,0,10,3.9V78.36H44.45L57.58,59.8,33.47,64V41.57a17.14,17.14,0,0,0,10-3.81,16.95,16.95,0,0,0,21.69,0,16.95,16.95,0,0,0,21.68,0Z"/><path class="cls-2" d="M52.16,52.77l7.16,5.65c.28.13.28.41.28.69l-2.48,8.82,7.72-5a.63.63,0,0,1,.68,0l7.72,5-2.48-8.82a.5.5,0,0,1,.28-.69l7.16-5.65L69,52.35c-.28,0-.55-.13-.55-.41L65.25,43.4l-3.31,8.54c-.14.28-.27.41-.55.41Z"/><path class="cls-3" d="M8.55,91.56A1,1,0,0,1,8,89.8L26.17,78.36a1,1,0,1,1,1,1.61L9.06,91.41A1,1,0,0,1,8.55,91.56Z"/><path class="cls-3" d="M12.84,79.54a.94.94,0,0,1-.8-.44,1,1,0,0,1,.29-1.31l6.89-4.34a.95.95,0,1,1,1,1.6L13.35,79.4A.94.94,0,0,1,12.84,79.54Z"/><path class="cls-3" d="M17.8,95a.92.92,0,0,1-.8-.44,1,1,0,0,1,.29-1.31l10.56-6.66a1,1,0,1,1,1,1.61L18.31,94.88A1,1,0,0,1,17.8,95Z"/><path class="cls-3" d="M53.37,62.47,42.12,78.36,31.76,93c.49-4.74.88-12.61-1.3-16S21,70.49,16.52,68.89l17-3Z"/><path class="cls-4" d="M107.35,36.28A15,15,0,0,1,87.65,36l-.81-.71-.79.71A15,15,0,0,1,66,36l-.16-.14-.68-.54-.76.68a15,15,0,0,1-20.08,0l-.8-.71-.63.56A15.37,15.37,0,0,1,23,36.27l9.68-19.36a6.44,6.44,0,0,1,5.79-3.58H91.88a6.42,6.42,0,0,1,5.78,3.58Z"/><path class="cls-4" d="M135.89,78.44h-6.95l-14-16.89V78.44h-5.84V42.92h5.84V58.86l13.5-15.94h6.95L121,60.23Z"/><path class="cls-4" d="M163.6,78.44l-2.49-7.15H146l-2.49,7.15h-6.34l12.89-35.52h7l12.84,35.52ZM147.92,65.81h11.26l-5.63-16Z"/><path class="cls-4" d="M194.6,60a9,9,0,0,1,5,8.27,9.51,9.51,0,0,1-3.1,7.26,10.64,10.64,0,0,1-7.56,2.89H173.7V42.92h14.1a10.44,10.44,0,0,1,7.39,2.82,9.21,9.21,0,0,1,3,7A8.49,8.49,0,0,1,194.6,60ZM187.8,48.4h-8.27v9.34h8.27a4.36,4.36,0,0,0,3.25-1.35,4.84,4.84,0,0,0,0-6.64A4.36,4.36,0,0,0,187.8,48.4ZM188.92,73a4.61,4.61,0,0,0,3.43-1.44,5.18,5.18,0,0,0,0-7.06A4.61,4.61,0,0,0,188.92,63h-9.39V73Z"/><path class="cls-4" d="M227.79,78.44l-2.48-7.15H210.18l-2.48,7.15h-6.35l12.89-35.52h7l12.84,35.52ZM212.11,65.81h11.27l-5.63-16Z"/><path class="cls-4" d="M261.29,78.44l-2.49-7.15H243.68l-2.49,7.15h-6.34l12.89-35.52h7l12.84,35.52ZM245.61,65.81h11.26l-5.63-16Z"/><path class="cls-1" d="M286.86,79.1a18.08,18.08,0,0,1-18.57-18.42,18.57,18.57,0,0,1,27.48-16.14,16.65,16.65,0,0,1,6.37,6.2l-5.07,2.94a10.49,10.49,0,0,0-4.14-4.19,12,12,0,0,0-6.07-1.55,12.35,12.35,0,0,0-9.21,3.61,12.52,12.52,0,0,0-3.52,9.13,12.53,12.53,0,0,0,3.52,9.14,12.35,12.35,0,0,0,9.21,3.6,12.11,12.11,0,0,0,6.1-1.55,10.14,10.14,0,0,0,4.11-4.18l5.07,2.89a16.43,16.43,0,0,1-6.32,6.22A17.87,17.87,0,0,1,286.86,79.1Z"/><path class="cls-1" d="M328,42.92h5.84V78.44H328V63.07H312.8V78.44H307V42.92h5.84V57.49H328Z"/><path class="cls-1" d="M364.11,78.44l-2.49-7.15H346.5L344,78.44h-6.34l12.89-35.52h7L370.4,78.44ZM348.42,65.81h11.27l-5.63-16Z"/></svg>