<svg id="Calque_1" data-name="Calque 1" xmlns="http://www.w3.org/2000/svg" viewBox="0 0 378 108.35"><defs><style>.cls-1{fill:#fff;}</style></defs><title>logo web blanc-05</title><path class="cls-1" d="M86.85,37.77h0a16.94,16.94,0,0,1-21.68,0,17,17,0,0,1-21.69,0,17.18,17.18,0,0,1-10,3.81V64l24.11-4.2L44.45,78.36h52.4V41.67A16.92,16.92,0,0,1,86.85,37.77ZM70.76,59.11l2.48,8.82-7.72-5a.64.64,0,0,0-.68,0l-7.72,5,2.48-8.82c0-.28,0-.56-.28-.69l-7.16-5.65,9.23-.42c.28,0,.41-.13.55-.41l3.31-8.54,3.2,8.54c0,.28.27.41.55.41l9.2.42L71,58.42l-.05,0A.5.5,0,0,0,70.76,59.11Z"/><path class="cls-1" d="M8.55,91.56a1,1,0,0,1-.9-1.09A1,1,0,0,1,8,89.8L26.17,78.36a1,1,0,0,1,1.54,1.27,1,1,0,0,1-.54.34L9.06,91.41A.92.92,0,0,1,8.55,91.56Z"/><path class="cls-1" d="M12.84,79.54a.93.93,0,0,1-.8-.44,1,1,0,0,1,.29-1.31l6.89-4.34a.95.95,0,1,1,1.19,1.48.76.76,0,0,1-.19.12L13.35,79.4A1,1,0,0,1,12.84,79.54Z"/><path class="cls-1" d="M17.8,95a.9.9,0,0,1-.8-.44,1,1,0,0,1,.29-1.31l10.56-6.66a1,1,0,0,1,1.54,1.27,1,1,0,0,1-.54.34L18.31,94.88A1,1,0,0,1,17.8,95Z"/><path class="cls-1" d="M53.37,62.47,42.12,78.36,31.76,93c.49-4.74.88-12.61-1.3-16S21,70.49,16.52,68.89l17-3Z"/><path class="cls-1" d="M107.35,36.28A15,15,0,0,1,87.65,36l-.81-.71-.79.71a15,15,0,0,1-20,0l-.16-.14-.68-.54L64.4,36a15,15,0,0,1-20.08,0l-.8-.71-.63.56A15.37,15.37,0,0,1,23,36.27l9.68-19.36a6.44,6.44,0,0,1,5.79-3.58H91.88a6.41,6.41,0,0,1,5.78,3.58Z"/><path class="cls-1" d="M135.89,78.44h-6.95l-14-16.89V78.44H109.1V42.92h5.84V58.86l13.5-15.94h6.95L121,60.23Z"/><path class="cls-1" d="M163.6,78.44l-2.49-7.15H146l-2.49,7.15h-6.34l12.89-35.52h7L169.9,78.44ZM147.92,65.81h11.26l-5.63-16Z"/><path class="cls-1" d="M194.6,60a9,9,0,0,1,5,8.27,9.5,9.5,0,0,1-3.1,7.26,10.65,10.65,0,0,1-7.56,2.89H173.7V42.92h14.1a10.43,10.43,0,0,1,7.39,2.82,9.2,9.2,0,0,1,3,7A8.49,8.49,0,0,1,194.6,60Zm-6.8-11.6h-8.27v9.34h8.27a4.35,4.35,0,0,0,3.25-1.35,4.84,4.84,0,0,0,0-6.64A4.35,4.35,0,0,0,187.8,48.4ZM188.92,73a4.63,4.63,0,0,0,3.43-1.44,5.18,5.18,0,0,0,0-7.06,4.62,4.62,0,0,0-3.43-1.5h-9.39V73Z"/><path class="cls-1" d="M227.79,78.44l-2.48-7.15H210.18l-2.48,7.15h-6.35l12.89-35.52h7l12.84,35.52ZM212.11,65.81h11.27l-5.63-16Z"/><path class="cls-1" d="M261.29,78.44l-2.49-7.15H243.68l-2.49,7.15h-6.34l12.89-35.52h7l12.84,35.52ZM245.61,65.81h11.26l-5.63-16Z"/><path class="cls-1" d="M286.86,79.1a18.09,18.09,0,0,1-18.57-17.58c0-.28,0-.56,0-.84a18.57,18.57,0,0,1,27.48-16.14,16.57,16.57,0,0,1,6.37,6.2l-5.07,2.94a10.5,10.5,0,0,0-4.14-4.19,12,12,0,0,0-6.07-1.55,12.37,12.37,0,0,0-9.21,3.61,12.56,12.56,0,0,0-3.52,9.13,12.52,12.52,0,0,0,3.52,9.14,12.32,12.32,0,0,0,9.21,3.6,12.07,12.07,0,0,0,6.1-1.55,10.15,10.15,0,0,0,4.11-4.18l5.07,2.89a16.42,16.42,0,0,1-6.32,6.22A17.88,17.88,0,0,1,286.86,79.1Z"/><path class="cls-1" d="M328,42.92h5.84V78.44H328V63.07H312.8V78.44H307V42.92h5.84V57.49H328Z"/><path class="cls-1" d="M364.11,78.44l-2.49-7.15H346.5L344,78.44h-6.34l12.89-35.52h7L370.4,78.44ZM348.42,65.81h11.27l-5.63-16Z"/></svg>