<svg xmlns="http://www.w3.org/2000/svg" xmlns:xlink="http://www.w3.org/1999/xlink" viewBox="0 0 1189.96 595.79"><defs><style>.cls-1,.cls-14{fill:none;}.cls-2{fill:#231f20;}.cls-3{fill:url(#Dégradé_sans_nom_10);}.cls-4{opacity:0.08;fill:url(#_10_6_ppp);}.cls-5{fill:url(#Dégradé_sans_nom_14);}.cls-6{clip-path:url(#clip-path);}.cls-16,.cls-7,.cls-8{fill:#d81942;}.cls-7,.cls-9{opacity:0.32;}.cls-10,.cls-8{opacity:0.09;}.cls-10,.cls-11,.cls-39,.cls-54,.cls-9{fill:#1f936f;}.cls-12{fill:url(#Dégradé_sans_nom_11);}.cls-13{fill:#fff;}.cls-14{stroke:#fff;stroke-linecap:round;stroke-linejoin:round;stroke-width:2px;}.cls-15{fill:url(#Dégradé_sans_nom_19);}.cls-17{fill:#163342;}.cls-18{fill:#1c4154;}.cls-19{fill:url(#Íîâûé_îáðàçåö_ãðàäèåíòà_11);}.cls-20{fill:#a1a1a1;}.cls-21,.cls-38{fill:#54dd9b;}.cls-22{fill:#27cc95;}.cls-23{fill:#332f2c;}.cls-24{fill:#2f4563;}.cls-25{fill:#6b5c56;}.cls-26{fill:#6a72c1;}.cls-27{fill:#5b4b43;}.cls-28{fill:#23344a;}.cls-29{fill:#ffd836;}.cls-30{fill:#ffce00;}.cls-31{fill:#33aa83;}.cls-32{fill:#544a47;}.cls-33{fill:#32658f;}.cls-34{fill:#3f74a0;}.cls-35{fill:#eea886;}.cls-36{fill:#545c9b;}.cls-37{fill:#a50e35;}.cls-38{opacity:0.57;}.cls-39{font-size:19.63px;font-family:Gilroy-ExtraBoldItalic, Gilroy;font-weight:700;font-style:italic;}.cls-40{letter-spacing:-0.06em;}.cls-41{letter-spacing:0em;}.cls-42{letter-spacing:0em;}.cls-43{letter-spacing:-0.01em;}.cls-44{fill:#1a1a1a;}.cls-45{fill:#285173;}.cls-46{fill:#193247;}.cls-47{fill:#2a617d;}.cls-48{fill:#326ea0;}.cls-49{fill:#d4d8e8;}.cls-50{fill:#a9adba;}.cls-51{fill:#215b8a;}.cls-52{opacity:0.1;}.cls-53{fill:url(#Dégradé_sans_nom_19-2);}.cls-54{opacity:0.15;}</style><linearGradient id="Dégradé_sans_nom_10" x1="272.24" y1="-81.98" x2="968.25" y2="737.25" gradientUnits="userSpaceOnUse"><stop offset="0" stop-color="#fff"/><stop offset="1" stop-color="#e6e6e6"/></linearGradient><pattern id="_10_6_ppp" data-name="10 % 6 ppp" width="48" height="48" patternTransform="translate(417.68 -504.12)" patternUnits="userSpaceOnUse" viewBox="0 0 48 48"><rect class="cls-1" width="48" height="48"/><circle class="cls-2" cx="24" cy="48" r="1.2"/><circle class="cls-2" cx="48" cy="48" r="1.2"/><circle class="cls-2" cx="24" cy="24" r="1.2"/><circle class="cls-2" cx="48" cy="24" r="1.2"/><circle class="cls-2" cx="36" cy="36" r="1.2"/><circle class="cls-2" cx="12" cy="36" r="1.2"/><circle class="cls-2" cx="36" cy="12" r="1.2"/><circle class="cls-2" cx="12" cy="12" r="1.2"/><circle class="cls-2" cy="48" r="1.2"/><circle class="cls-2" cy="24" r="1.2" transform="translate(-23.69 20.16) rotate(-80.78)"/><circle class="cls-2" cx="24" r="1.2"/><circle class="cls-2" cx="48" r="1.2"/><circle class="cls-2" r="1.2" transform="translate(0 0) rotate(-80.78)"/></pattern><linearGradient id="Dégradé_sans_nom_14" x1="594.16" y1="595.79" x2="594.16" gradientUnits="userSpaceOnUse"><stop offset="0" stop-color="#fff"/><stop offset="1" stop-color="#fff" stop-opacity="0"/></linearGradient><clipPath id="clip-path"><rect class="cls-1" width="1189.96" height="595.79"/></clipPath><linearGradient id="Dégradé_sans_nom_11" x1="478.38" y1="521.62" x2="174.13" y2="527.12" gradientUnits="userSpaceOnUse"><stop offset="0" stop-color="#d81942"/><stop offset="1" stop-color="#de3e60"/></linearGradient><linearGradient id="Dégradé_sans_nom_19" x1="455.58" y1="9.21" x2="729.78" y2="53.2" gradientUnits="userSpaceOnUse"><stop offset="0" stop-color="#1f936f"/><stop offset="1" stop-color="#4aa88a"/></linearGradient><linearGradient id="Íîâûé_îáðàçåö_ãðàäèåíòà_11" x1="683.87" y1="289.6" x2="753.75" y2="289.6" gradientTransform="translate(1745.32 579.19) rotate(-180)" gradientUnits="userSpaceOnUse"><stop offset="0" stop-color="#00503e"/><stop offset="1" stop-color="#023222"/></linearGradient><linearGradient id="Dégradé_sans_nom_19-2" x1="831.46" y1="107.85" x2="913.79" y2="107.85" xlink:href="#Dégradé_sans_nom_19"/></defs><title>banniere</title><g id="Slide_3" data-name="Slide 3"><rect class="cls-3" width="1189.96" height="595.79"/><rect class="cls-4" width="1189.96" height="595.79"/><rect class="cls-5" x="-1.63" width="1191.59" height="595.79"/><g class="cls-6"><path class="cls-7" d="M765.61-15.71S764.22,69,933.29,37.51c93.89-17.47,46.25,11,53.77,31.22s68-26.6,79.38-12.14,3.42,81.67,27.07,86.8,35.79-35.92,49.66-22,18.5,116.88,56.67,94l2.89-221.21Z"/><path class="cls-8" d="M1004.38,0s4.3,25.62,27.07,25-7.81,31.33-13.18,61.33,57.31-31.33,82.64-12.67,14.65,88.16,36.65,86.42S1201,127,1201,127V-21l-200.22,2.59Z"/><path class="cls-9" d="M-10.44,158.29s14.72,1.2,30-10c24.25-17.77-1.08-42.52,24.25-56.52s72.43,30.72,93.08,3.19c19.43-25.9,36.32-50.13,92.49-38.07S384.68,76,399.56,43.62C416.71,6.29,281.29-4.66,380-33,429.18-47.2,180.23-18.45,180.23-18.45L-32.44-23.71Z"/><path class="cls-10" d="M-13.11,84.29S8.21,86,18.89,97.62s32.67,26,66.67-18.66,52-6,99.33,2,38.67-26.67,36-54,41.34-37.34,41.34-37.34-284.67-33.33-288-32S-13.11,84.29-13.11,84.29Z"/></g><path class="cls-11" d="M97.31,160.43H77.79l-1.49,8.31H94.12L92.2,179.39H74.45l-1.56,8.87H92.77L90.85,199.2H59.61l8.74-49.7H99.23Z"/><path class="cls-11" d="M123.66,162.7a11.18,11.18,0,0,1,9.05,4q3.3,3.93,2.09,10.75L131,199.2H120.32L123.87,179q.57-3.26-.89-4.86a5.44,5.44,0,0,0-4.22-1.6,7.57,7.57,0,0,0-4.94,1.71,8.61,8.61,0,0,0-2.8,5.18l-3.48,19.81H96.89l6.25-35.5h10.65l-.57,3.34A13.35,13.35,0,0,1,123.66,162.7Z"/><path class="cls-11" d="M164.48,163.7h11.79l-19,35.5H146.59l-6.53-35.5H151l3,21.72Z"/><path class="cls-11" d="M173.92,199.2l6.25-35.5h10.65l-6.25,35.5ZM191,158.69a7.22,7.22,0,0,1-4.87,1.88,5.13,5.13,0,0,1-4.22-1.88,5.45,5.45,0,0,1-1.1-4.51,7.55,7.55,0,0,1,2.59-4.47,7,7,0,0,1,4.79-1.92,5.36,5.36,0,0,1,5.4,6.39A7.39,7.39,0,0,1,191,158.69Z"/><path class="cls-11" d="M215.1,162.7q7.89,0,12.53,5.4t3.16,13.35a19.89,19.89,0,0,1-1.13,4.26H204.24q.78,5,7.31,5a10.54,10.54,0,0,0,7.46-2.77l7.45,6.11q-6.11,6.16-15.62,6.17-9,0-13.67-5.61t-3.3-13.84a20.63,20.63,0,0,1,7.25-12.89A20.9,20.9,0,0,1,215.1,162.7Zm-9.37,14.91h15.05q-.5-5.46-6.39-5.46A9.13,9.13,0,0,0,205.73,177.61Z"/><path class="cls-11" d="M286.1,149.5h10.65L288,199.2H277.37l.42-2.56q-4.11,3.56-10.79,3.55-8.16,0-11.85-5.93a18.34,18.34,0,0,1-2.21-13.66A23.3,23.3,0,0,1,259.65,168a18.16,18.16,0,0,1,13.25-5.29q6.81,0,10,4.9Zm-15.55,40.61a9.68,9.68,0,0,0,6.36-2.27,10.33,10.33,0,0,0,3.51-6l.14-.71a7.46,7.46,0,0,0-1.42-6.07,6.88,6.88,0,0,0-5.53-2.23,9.71,9.71,0,0,0-6.54,2.38,10.51,10.51,0,0,0-3.48,6.28c-.47,2.6-.06,4.7,1.25,6.28A6.94,6.94,0,0,0,270.55,190.11Z"/><path class="cls-11" d="M318.55,162.7q7.88,0,12.53,5.4t3.16,13.35a20.5,20.5,0,0,1-1.14,4.26H307.69q.78,5,7.31,5a10.51,10.51,0,0,0,7.45-2.77l7.46,6.11q-6.11,6.16-15.62,6.17-9,0-13.67-5.61t-3.3-13.84a20.62,20.62,0,0,1,7.24-12.89A20.92,20.92,0,0,1,318.55,162.7Zm-9.37,14.91h15.05q-.5-5.46-6.39-5.46A9.12,9.12,0,0,0,309.18,177.61Z"/><path class="cls-11" d="M381.67,163.7h11.78l-19,35.5H363.77l-6.53-35.5h10.94l3,21.72Z"/><path class="cls-11" d="M412.41,162.7q7.88,0,12.53,5.4t3.16,13.35a20.5,20.5,0,0,1-1.14,4.26H401.55q.78,5,7.31,5a10.5,10.5,0,0,0,7.45-2.77l7.46,6.11q-6.11,6.16-15.62,6.17-9,0-13.67-5.61t-3.3-13.84a20.62,20.62,0,0,1,7.24-12.89A20.92,20.92,0,0,1,412.41,162.7ZM403,177.61h15q-.49-5.46-6.39-5.46A9.12,9.12,0,0,0,403,177.61Z"/><path class="cls-11" d="M457.42,162.7a11.2,11.2,0,0,1,9.06,4q3.3,3.93,2.09,10.75l-3.83,21.8H454.09L457.64,179c.37-2.17.08-3.79-.89-4.86a5.45,5.45,0,0,0-4.23-1.6,7.55,7.55,0,0,0-4.93,1.71,8.62,8.62,0,0,0-2.81,5.18l-3.47,19.81H430.66l6.24-35.5h10.65L447,167A13.35,13.35,0,0,1,457.42,162.7Z"/><path class="cls-11" d="M506.48,149.5h10.65l-8.73,49.7H497.75l.43-2.56q-4.12,3.56-10.8,3.55-8.16,0-11.85-5.93a18.34,18.34,0,0,1-2.2-13.66A23.17,23.17,0,0,1,480,168a18.12,18.12,0,0,1,13.24-5.29q6.81,0,10,4.9Zm-15.55,40.61a9.67,9.67,0,0,0,6.36-2.27,10.33,10.33,0,0,0,3.51-6l.14-.71a7.42,7.42,0,0,0-1.42-6.07,6.87,6.87,0,0,0-5.53-2.23,9.71,9.71,0,0,0-6.54,2.38,10.45,10.45,0,0,0-3.47,6.28,7.35,7.35,0,0,0,1.24,6.28A6.94,6.94,0,0,0,490.93,190.11Z"/><path class="cls-11" d="M532,170.09a11.16,11.16,0,0,1,4.76-5.29A14.25,14.25,0,0,1,543.9,163l-2.06,12.07a13.17,13.17,0,0,0-4.72.14,10,10,0,0,0-4.62,2.52,9.09,9.09,0,0,0-2.8,5.43l.07-.42-2.91,16.47H516.21l6.25-35.5h10.65Z"/><path class="cls-11" d="M564.2,162.7q7.89,0,12.54,5.4t3.16,13.35a20.5,20.5,0,0,1-1.14,4.26H553.34q.78,5,7.31,5a10.52,10.52,0,0,0,7.46-2.77l7.45,6.11q-6.1,6.16-15.62,6.17-9,0-13.66-5.61T543,180.74a20.57,20.57,0,0,1,7.24-12.89A20.9,20.9,0,0,1,564.2,162.7Zm-9.37,14.91h15q-.5-5.46-6.39-5.46A9.13,9.13,0,0,0,554.83,177.61Z"/><path class="cls-11" d="M81.43,236.81h8.22L84.83,264.2H76.61l.44-2.58A10.32,10.32,0,0,1,69,265a8.66,8.66,0,0,1-7-3q-2.55-3-1.61-8.3l3-16.82h8.22l-2.74,15.61a4.27,4.27,0,0,0,.69,3.75,4.13,4.13,0,0,0,3.25,1.24,5.85,5.85,0,0,0,3.81-1.32,6.66,6.66,0,0,0,2.17-4Z"/><path class="cls-11" d="M111.5,236a8.66,8.66,0,0,1,7,3q2.54,3,1.61,8.3l-3,16.82h-8.21l2.74-15.61a4.3,4.3,0,0,0-.69-3.76,4.19,4.19,0,0,0-3.26-1.23,5.8,5.8,0,0,0-3.8,1.32,6.66,6.66,0,0,0-2.17,4L99.07,264.2H90.85l4.82-27.39h8.22l-.44,2.57A10.33,10.33,0,0,1,111.5,236Z"/><path class="cls-11" d="M150.17,265a13.07,13.07,0,0,1-8-2.39,11.34,11.34,0,0,1-4.27-5.86,14.52,14.52,0,0,1-.3-7.31,16.86,16.86,0,0,1,5.53-9.51A15.9,15.9,0,0,1,154,236q6.57,0,9.91,4.74a13.54,13.54,0,0,1,2.3,10.6,16.32,16.32,0,0,1-5.53,9.56A15.42,15.42,0,0,1,150.17,265Zm-3.5-9.78a4.8,4.8,0,0,0,4.05,1.78,7.17,7.17,0,0,0,4.77-1.78,7.63,7.63,0,0,0,2.57-4.69,5.45,5.45,0,0,0-.9-4.68A5,5,0,0,0,153,244a6.79,6.79,0,0,0-4.68,1.78,8.13,8.13,0,0,0-2.55,4.68A5.82,5.82,0,0,0,146.67,255.19Z"/><path class="cls-11" d="M189.34,236a10.58,10.58,0,0,1,6.77,2.19,11.32,11.32,0,0,1,3.83,5.56,15.82,15.82,0,0,1,.47,7.26,17.58,17.58,0,0,1-4.88,9.81,13.41,13.41,0,0,1-10,4.11q-5.65,0-8.11-3.89l-.55,3.12h-8.22l6.74-38.35h8.22l-2.36,13.26A11.73,11.73,0,0,1,189.34,236Zm.22,19.37a8,8,0,0,0,2.63-4.91,5.76,5.76,0,0,0-1-4.9,5.34,5.34,0,0,0-4.3-1.78,7.55,7.55,0,0,0-5,1.81,7.71,7.71,0,0,0-2.66,4.87,5.8,5.8,0,0,0,1,4.88,5.45,5.45,0,0,0,4.38,1.81A7.3,7.3,0,0,0,189.56,255.41Z"/><path class="cls-11" d="M202.76,264.2l4.82-27.39h8.22L211,264.2q-1.15,6.74-4.63,9.42t-10,2.3l1.42-7.89a5.19,5.19,0,0,0,3.45-.79A4.68,4.68,0,0,0,202.76,264.2ZM210.07,226a5.45,5.45,0,0,1,3.7-1.48A4.06,4.06,0,0,1,217,226a4.11,4.11,0,0,1,.9,3.48,5.72,5.72,0,0,1-2,3.48,5.54,5.54,0,0,1-3.75,1.45,4,4,0,0,1-3.26-1.45,4.23,4.23,0,0,1-.85-3.48A5.81,5.81,0,0,1,210.07,226Z"/><path class="cls-11" d="M234.53,236a12.11,12.11,0,0,1,9.67,4.17q3.59,4.15,2.44,10.29a16,16,0,0,1-.88,3.29H226.15q.6,3.84,5.64,3.84a8.14,8.14,0,0,0,5.75-2.14l5.76,4.71A16.24,16.24,0,0,1,231.24,265q-6.94,0-10.54-4.33T218.15,250a16,16,0,0,1,5.59-10A16.16,16.16,0,0,1,234.53,236Zm-7.23,11.51h11.61c-.25-2.82-1.9-4.22-4.93-4.22A7,7,0,0,0,227.3,247.55Z"/><path class="cls-11" d="M261.92,244.7l-1.7,9.69c-.22,1.14.09,1.85.93,2.14a12.09,12.09,0,0,0,4.33.22l-1.31,7.45q-7.35.82-10.28-1.59T252,254.39l1.7-9.69h-4.38l1.42-7.89h4.33l.93-5.2,8.66-2.47-1.37,7.67H269l-1.43,7.89Z"/><path class="cls-11" d="M303.88,236a10,10,0,0,1,8.87,4.52,14.23,14.23,0,0,1,2.08,10.49A17.29,17.29,0,0,1,310,260.8,13.48,13.48,0,0,1,299.88,265c-3.65,0-6.34-1.3-8.05-3.89l-2.47,14.07h-8.21l6.73-38.34h8.22l-.38,2.3A11.62,11.62,0,0,1,303.88,236Zm.11,19.34a8.14,8.14,0,0,0,2.63-4.88,5.83,5.83,0,0,0-.91-4.87,5.16,5.16,0,0,0-4.3-1.81,7.61,7.61,0,0,0-4.93,1.75,8,8,0,0,0-2.74,4.66l-.1.49a5.78,5.78,0,0,0,1.09,4.71,5.35,5.35,0,0,0,4.33,1.76A7.3,7.3,0,0,0,304,255.38Z"/><path class="cls-11" d="M334.72,236a12.12,12.12,0,0,1,9.67,4.17q3.58,4.15,2.43,10.29a15.42,15.42,0,0,1-.87,3.29H326.34q.6,3.84,5.64,3.84a8.14,8.14,0,0,0,5.75-2.14l5.75,4.71A16.21,16.21,0,0,1,331.43,265q-7,0-10.54-4.33c-2.4-2.89-3.24-6.45-2.55-10.68a15.91,15.91,0,0,1,5.59-10A16.16,16.16,0,0,1,334.72,236Zm-7.23,11.51H339.1c-.26-2.82-1.9-4.22-4.93-4.22A7,7,0,0,0,327.49,247.55Z"/><path class="cls-11" d="M361,241.74a8.54,8.54,0,0,1,3.67-4.08,11,11,0,0,1,5.53-1.4l-1.59,9.31a10.38,10.38,0,0,0-3.64.11,7.71,7.71,0,0,0-3.56,1.95,7.06,7.06,0,0,0-2.17,4.19l.06-.33L357,264.2H348.8l4.82-27.39h8.21Z"/><path class="cls-11" d="M379.53,265Q371,265,368,258.23l7.39-3.73a4.74,4.74,0,0,0,4.88,3.13c1.86,0,2.86-.48,3-1.43.11-.58-.29-1.08-1.2-1.48a26.29,26.29,0,0,0-3.35-1.15,25.24,25.24,0,0,1-3.86-1.42,6.52,6.52,0,0,1-3-2.88,7.3,7.3,0,0,1-.55-5,8.8,8.8,0,0,1,2.35-4.71,11,11,0,0,1,4.22-2.74,15.09,15.09,0,0,1,4.93-.82,12.75,12.75,0,0,1,6.38,1.56,9.7,9.7,0,0,1,4.09,4.3l-7.4,3.67a3.57,3.57,0,0,0-3.56-2.41c-1.64,0-2.57.57-2.79,1.7-.15.73.22,1.3,1.12,1.7a18.7,18.7,0,0,0,3.31,1.07,25.19,25.19,0,0,1,3.89,1.26,6.08,6.08,0,0,1,3,2.79,7.7,7.7,0,0,1,.54,5.12,8.71,8.71,0,0,1-4,6.17A14.71,14.71,0,0,1,379.53,265Z"/><path class="cls-11" d="M407.52,265a13.08,13.08,0,0,1-8-2.39,11.4,11.4,0,0,1-4.27-5.86,14.74,14.74,0,0,1-.3-7.31,16.86,16.86,0,0,1,5.53-9.51,15.9,15.9,0,0,1,10.9-3.86q6.57,0,9.92,4.74a13.62,13.62,0,0,1,2.3,10.6,16.34,16.34,0,0,1-5.54,9.56A15.39,15.39,0,0,1,407.52,265ZM404,255.19a4.8,4.8,0,0,0,4.05,1.78,7.17,7.17,0,0,0,4.77-1.78,7.58,7.58,0,0,0,2.57-4.69,5.45,5.45,0,0,0-.9-4.68,5,5,0,0,0-4.13-1.78,6.81,6.81,0,0,0-4.69,1.78,8.13,8.13,0,0,0-2.55,4.68A5.85,5.85,0,0,0,404,255.19Z"/><path class="cls-11" d="M446.63,236a8.64,8.64,0,0,1,7,3q2.55,3,1.62,8.3l-3,16.82h-8.22l2.74-15.61a4.3,4.3,0,0,0-.68-3.76,4.2,4.2,0,0,0-3.26-1.23,5.85,5.85,0,0,0-3.81,1.32,6.6,6.6,0,0,0-2.16,4l-2.69,15.28H426l4.82-27.39H439l-.43,2.57A10.32,10.32,0,0,1,446.63,236Z"/><path class="cls-11" d="M478.4,236a8.64,8.64,0,0,1,7,3q2.55,3,1.62,8.3l-3,16.82h-8.22l2.74-15.61a4.3,4.3,0,0,0-.68-3.76,4.2,4.2,0,0,0-3.26-1.23,5.85,5.85,0,0,0-3.81,1.32,6.6,6.6,0,0,0-2.16,4L466,264.2h-8.21l4.82-27.39h8.21l-.43,2.57A10.32,10.32,0,0,1,478.4,236Z"/><path class="cls-11" d="M507.05,236a12.09,12.09,0,0,1,9.66,4.17q3.6,4.15,2.44,10.29a15.42,15.42,0,0,1-.87,3.29H498.67q.6,3.84,5.64,3.84a8.14,8.14,0,0,0,5.75-2.14l5.75,4.71a16.21,16.21,0,0,1-12,4.77q-7,0-10.54-4.33T490.67,250a15.91,15.91,0,0,1,5.59-10A16.16,16.16,0,0,1,507.05,236Zm-7.23,11.51h11.61c-.26-2.82-1.9-4.22-4.93-4.22A7,7,0,0,0,499.82,247.55Z"/><path class="cls-11" d="M521.45,264.2l3.07-17.48,3.94-22.51h8.22l-4,22.9-3,17.09Z"/><path class="cls-11" d="M559.19,250.5a9.35,9.35,0,0,1,2.11-4.6,16.15,16.15,0,0,1,3.56-3.26,23.6,23.6,0,0,0,3.48-2.71,5.67,5.67,0,0,0,1.92-3.12,2.48,2.48,0,0,0-.55-2.3,3.16,3.16,0,0,0-2.41-.88,6.32,6.32,0,0,0-4,1.26,11,11,0,0,0-2.8,3.56l-7.12-4.54a15.14,15.14,0,0,1,6.14-6.49,17.42,17.42,0,0,1,8.87-2.33,11.71,11.71,0,0,1,8.55,3.17q3.23,3.18,2.3,8.33a10.82,10.82,0,0,1-1.65,4.16,15.17,15.17,0,0,1-2.76,3.21c-1,.86-2,1.64-3,2.35a27.17,27.17,0,0,0-2.57,2.11A3.82,3.82,0,0,0,568,250.5ZM561,265a4,4,0,0,1-3.37-1.59,4.54,4.54,0,0,1-.85-3.73,6.19,6.19,0,0,1,6.08-5.09,4.11,4.11,0,0,1,3.4,1.59,4.47,4.47,0,0,1,.88,3.72A6.15,6.15,0,0,1,561,265Z"/><path class="cls-11" d="M76.2,328.18H67.45l-.79,4.46h8.58l-.89,5.08H65.77l-1.48,8.48H59l4.05-23.1h14Z"/><path class="cls-11" d="M90.88,329.7h5l-2.9,16.5H88l.2-1.12a7.48,7.48,0,0,1-5,1.58,6,6,0,0,1-5.51-2.75,8.55,8.55,0,0,1-1-6.36,10.8,10.8,0,0,1,3.12-5.85A8.41,8.41,0,0,1,86,329.24a5.23,5.23,0,0,1,4.62,2.21ZM82.2,340.89A3.2,3.2,0,0,0,84.81,342a4.5,4.5,0,0,0,3-1.08A4.81,4.81,0,0,0,89.43,338v0a3.44,3.44,0,0,0-.58-2.94,3.23,3.23,0,0,0-2.62-1.09,4.5,4.5,0,0,0-3,1.09,4.91,4.91,0,0,0-1.6,2.94A3.5,3.5,0,0,0,82.2,340.89Z"/><path class="cls-11" d="M96.56,346.2l2.9-16.5h5l-2.9,16.5Zm7.94-18.83a3.36,3.36,0,0,1-2.27.88,2.37,2.37,0,0,1-2-.88,2.54,2.54,0,0,1-.51-2.09,3.46,3.46,0,0,1,1.2-2.08,3.28,3.28,0,0,1,2.23-.89,2.47,2.47,0,0,1,2,.87,2.5,2.5,0,0,1,.54,2.1A3.43,3.43,0,0,1,104.5,327.37Z"/><path class="cls-11" d="M113.49,334.45l-1,5.84q-.19,1,.57,1.29a7.36,7.36,0,0,0,2.6.13l-.79,4.49q-4.43.49-6.19-1t-1.14-4.95l1-5.84H105.9l.86-4.75h2.6l.56-3.14,5.22-1.48-.83,4.62h3.43l-.85,4.75Z"/><path class="cls-11" d="M127.88,329.24a7.29,7.29,0,0,1,5.82,2.5,7.06,7.06,0,0,1,1.47,6.21,9.6,9.6,0,0,1-.53,2H122.83c.24,1.54,1.37,2.31,3.4,2.31a4.88,4.88,0,0,0,3.46-1.29l3.47,2.84a9.81,9.81,0,0,1-7.26,2.87,7.78,7.78,0,0,1-6.36-2.61,7.65,7.65,0,0,1-1.53-6.43,9.54,9.54,0,0,1,3.36-6A9.7,9.7,0,0,1,127.88,329.24Zm-4.36,6.93h7c-.16-1.7-1.15-2.54-3-2.54A4.23,4.23,0,0,0,123.52,336.17Z"/><path class="cls-11" d="M142.46,346.66q-5.11,0-7-4.06l4.45-2.24a2.86,2.86,0,0,0,2.94,1.88c1.12,0,1.73-.29,1.82-.86.06-.35-.18-.65-.73-.89a15.47,15.47,0,0,0-2-.69,15.17,15.17,0,0,1-2.33-.86,3.9,3.9,0,0,1-1.8-1.73,4.43,4.43,0,0,1-.33-3,5.3,5.3,0,0,1,1.42-2.84,6.49,6.49,0,0,1,2.54-1.65,9,9,0,0,1,3-.49,7.71,7.71,0,0,1,3.85.94,5.73,5.73,0,0,1,2.45,2.59L146.29,335a2.15,2.15,0,0,0-2.15-1.45q-1.48,0-1.68,1c-.09.44.14.78.68,1a11.62,11.62,0,0,0,2,.65,14.3,14.3,0,0,1,2.35.76,3.59,3.59,0,0,1,1.81,1.68,4.64,4.64,0,0,1,.33,3.08,5.26,5.26,0,0,1-2.41,3.72A8.89,8.89,0,0,1,142.46,346.66Z"/><path class="cls-11" d="M172.16,329.7h5.48l-8.85,16.5h-4.95l-3-16.5h5.08l1.39,10.1Z"/><path class="cls-11" d="M184.24,346.66a7.94,7.94,0,0,1-4.84-1.43,6.91,6.91,0,0,1-2.57-3.54,8.81,8.81,0,0,1-.18-4.4,10.13,10.13,0,0,1,3.33-5.73,9.58,9.58,0,0,1,6.57-2.32,6.83,6.83,0,0,1,6,2.85,8.18,8.18,0,0,1,1.39,6.39,9.89,9.89,0,0,1-3.34,5.76A9.27,9.27,0,0,1,184.24,346.66Zm-2.11-5.89a2.87,2.87,0,0,0,2.44,1.07,4.27,4.27,0,0,0,2.87-1.07A4.56,4.56,0,0,0,189,338a3.3,3.3,0,0,0-.54-2.82,3,3,0,0,0-2.5-1.08,4.11,4.11,0,0,0-2.82,1.08A4.84,4.84,0,0,0,181.6,338,3.47,3.47,0,0,0,182.13,340.77Z"/><path class="cls-11" d="M203.38,334.45l-1,5.84c-.14.68,0,1.11.56,1.29a7.36,7.36,0,0,0,2.6.13l-.79,4.49q-4.42.49-6.19-1t-1.13-4.95l1-5.84h-2.64l.86-4.75h2.6l.56-3.14,5.22-1.48-.83,4.62h3.44l-.86,4.75Z"/><path class="cls-11" d="M215.19,332.67a5.2,5.2,0,0,1,2.21-2.46,6.66,6.66,0,0,1,3.34-.84l-1,5.61a6.2,6.2,0,0,0-2.19.06,4.67,4.67,0,0,0-2.15,1.18,4.16,4.16,0,0,0-1.3,2.52l0-.2-1.35,7.66h-4.95l2.9-16.5h4.95Z"/><path class="cls-11" d="M230.17,329.24a7.3,7.3,0,0,1,5.83,2.5,7.06,7.06,0,0,1,1.47,6.21,9.6,9.6,0,0,1-.53,2H225.13q.36,2.31,3.39,2.31A4.89,4.89,0,0,0,232,341l3.46,2.84a9.78,9.78,0,0,1-7.26,2.87,7.77,7.77,0,0,1-6.35-2.61,7.65,7.65,0,0,1-1.53-6.43,9.54,9.54,0,0,1,3.36-6A9.69,9.69,0,0,1,230.17,329.24Zm-4.35,6.93h7c-.15-1.7-1.14-2.54-3-2.54A4.23,4.23,0,0,0,225.82,336.17Z"/><path class="cls-11" d="M262,329.7h4.95L264,346.2h-4.95l.2-1.12a7.48,7.48,0,0,1-4.95,1.58,6,6,0,0,1-5.51-2.75,8.55,8.55,0,0,1-1-6.36,10.8,10.8,0,0,1,3.12-5.85,8.41,8.41,0,0,1,6.16-2.46,5.23,5.23,0,0,1,4.62,2.21Zm-8.68,11.19a3.2,3.2,0,0,0,2.61,1.08,4.51,4.51,0,0,0,3-1.08A4.81,4.81,0,0,0,260.5,338v0a3.44,3.44,0,0,0-.58-2.94,3.23,3.23,0,0,0-2.62-1.09,4.5,4.5,0,0,0-3,1.09,4.91,4.91,0,0,0-1.6,2.94A3.5,3.5,0,0,0,253.27,340.89Z"/><path class="cls-11" d="M280.07,329.24a5.22,5.22,0,0,1,4.21,1.83,5.88,5.88,0,0,1,1,5l-1.78,10.13h-5l1.65-9.41a2.6,2.6,0,0,0-.41-2.26,2.56,2.56,0,0,0-2-.74,3.5,3.5,0,0,0-2.29.79,4,4,0,0,0-1.3,2.41l-1.62,9.21h-4.95l2.9-16.5h5l-.26,1.55A6.2,6.2,0,0,1,280.07,329.24Z"/><path class="cls-11" d="M299.21,329.24a5.22,5.22,0,0,1,4.21,1.83,5.88,5.88,0,0,1,1,5l-1.78,10.13h-4.95l1.65-9.41a2.6,2.6,0,0,0-.41-2.26,2.56,2.56,0,0,0-2-.74,3.5,3.5,0,0,0-2.29.79,4,4,0,0,0-1.3,2.41l-1.62,9.21h-5l2.9-16.5h4.95l-.26,1.55A6.2,6.2,0,0,1,299.21,329.24Z"/><path class="cls-11" d="M314.26,346.66a7.94,7.94,0,0,1-4.84-1.43,6.86,6.86,0,0,1-2.57-3.54,8.81,8.81,0,0,1-.18-4.4,10.13,10.13,0,0,1,3.33-5.73,9.58,9.58,0,0,1,6.57-2.32,6.83,6.83,0,0,1,6,2.85,8.22,8.22,0,0,1,1.39,6.39,9.89,9.89,0,0,1-3.34,5.76A9.29,9.29,0,0,1,314.26,346.66Zm-2.12-5.89a2.89,2.89,0,0,0,2.45,1.07,4.28,4.28,0,0,0,2.87-1.07A4.6,4.6,0,0,0,319,338a3.26,3.26,0,0,0-.55-2.82,3,3,0,0,0-2.49-1.08,4.08,4.08,0,0,0-2.82,1.08,4.84,4.84,0,0,0-1.53,2.82A3.47,3.47,0,0,0,312.14,340.77Z"/><path class="cls-11" d="M337.82,329.24a5.22,5.22,0,0,1,4.21,1.83,5.88,5.88,0,0,1,1,5l-1.78,10.13h-5l1.65-9.41a2.57,2.57,0,0,0-.42-2.26,2.53,2.53,0,0,0-2-.74,3.5,3.5,0,0,0-2.29.79,4,4,0,0,0-1.31,2.41l-1.61,9.21h-4.95l2.9-16.5h5l-.26,1.55A6.2,6.2,0,0,1,337.82,329.24Z"/><path class="cls-11" d="M352.9,346.66a7.53,7.53,0,0,1-6.11-2.61,7.7,7.7,0,0,1-1.58-6.43,9.59,9.59,0,0,1,3.33-6,9.7,9.7,0,0,1,6.5-2.37,7.92,7.92,0,0,1,4.39,1.17,6.79,6.79,0,0,1,2.64,3.12l-4.52,2.37a2.88,2.88,0,0,0-2.94-1.78,4.48,4.48,0,0,0-4.45,3.76,3.33,3.33,0,0,0,.59,2.79,3,3,0,0,0,2.51,1.11,4,4,0,0,0,3.43-1.85l4,2.54a8.1,8.1,0,0,1-3.34,3.13A9.6,9.6,0,0,1,352.9,346.66Z"/><path class="cls-11" d="M372.24,329.24a7.29,7.29,0,0,1,5.82,2.5,7.06,7.06,0,0,1,1.47,6.21,9.6,9.6,0,0,1-.53,2H367.19c.24,1.54,1.37,2.31,3.4,2.31a4.88,4.88,0,0,0,3.46-1.29l3.47,2.84a9.81,9.81,0,0,1-7.26,2.87,7.79,7.79,0,0,1-6.36-2.61,7.65,7.65,0,0,1-1.53-6.43,9.56,9.56,0,0,1,3.37-6A9.68,9.68,0,0,1,372.24,329.24Zm-4.36,6.93h7c-.16-1.7-1.15-2.54-3-2.54A4.23,4.23,0,0,0,367.88,336.17Z"/><path class="cls-11" d="M410.42,329.24a5.11,5.11,0,0,1,4.32,1.89,6.06,6.06,0,0,1,.92,4.94l-1.78,10.13h-4.95l1.69-9.7a2.66,2.66,0,0,0-.25-2,1.81,1.81,0,0,0-1.64-.73c-1.62,0-2.65,1-3.06,2.87L404,346.2h-5l1.68-9.7a2.62,2.62,0,0,0-.24-2,1.81,1.81,0,0,0-1.64-.73c-1.62,0-2.65.94-3.06,2.81l-1.69,9.6h-4.95L392,329.7H397l-.27,1.48a5.85,5.85,0,0,1,4.59-1.94,4.06,4.06,0,0,1,4,2.24A6.56,6.56,0,0,1,410.42,329.24Z"/><path class="cls-11" d="M432.07,329.7H437l-2.9,16.5h-4.95l.2-1.12a7.44,7.44,0,0,1-4.95,1.58,6,6,0,0,1-5.51-2.75,8.5,8.5,0,0,1-1-6.36A10.72,10.72,0,0,1,421,331.7a8.43,8.43,0,0,1,6.16-2.46,5.2,5.2,0,0,1,4.62,2.21Zm-8.68,11.19A3.17,3.17,0,0,0,426,342a4.54,4.54,0,0,0,3-1.08,4.85,4.85,0,0,0,1.61-2.91v0A3.47,3.47,0,0,0,430,335a3.25,3.25,0,0,0-2.63-1.09,4.45,4.45,0,0,0-3,1.09,4.87,4.87,0,0,0-1.61,2.94A3.47,3.47,0,0,0,423.39,340.89Z"/><path class="cls-11" d="M437.74,346.2l2.9-16.5h4.95l-2.9,16.5Zm7.94-18.83a3.34,3.34,0,0,1-2.26.88,2.39,2.39,0,0,1-2-.88,2.54,2.54,0,0,1-.51-2.09,3.43,3.43,0,0,1,1.21-2.08,3.24,3.24,0,0,1,2.22-.89,2.47,2.47,0,0,1,2,.87,2.5,2.5,0,0,1,.54,2.1A3.43,3.43,0,0,1,445.68,327.37Z"/><path class="cls-11" d="M458.76,329.24a5.2,5.2,0,0,1,4.21,1.83,5.85,5.85,0,0,1,1,5l-1.78,10.13h-5l1.65-9.41a2.23,2.23,0,0,0-2.38-3,3.5,3.5,0,0,0-2.29.79,4,4,0,0,0-1.3,2.41l-1.62,9.21h-4.95l2.9-16.5h4.95l-.26,1.55A6.22,6.22,0,0,1,458.76,329.24Z"/><path class="cls-11" d="M473.81,334.45l-1,5.84c-.14.68,0,1.11.56,1.29a7.36,7.36,0,0,0,2.6.13l-.79,4.49q-4.43.49-6.19-1t-1.13-4.95l1-5.84h-2.64l.86-4.75h2.6l.57-3.14,5.21-1.48-.83,4.62h3.44l-.86,4.75Z"/><path class="cls-11" d="M488.2,329.24a7.29,7.29,0,0,1,5.82,2.5,7.06,7.06,0,0,1,1.47,6.21,9.6,9.6,0,0,1-.53,2H483.15c.24,1.54,1.37,2.31,3.4,2.31A4.88,4.88,0,0,0,490,341l3.47,2.84a9.78,9.78,0,0,1-7.26,2.87,7.79,7.79,0,0,1-6.36-2.61,7.65,7.65,0,0,1-1.53-6.43,9.56,9.56,0,0,1,3.37-6A9.68,9.68,0,0,1,488.2,329.24Zm-4.36,6.93h7c-.16-1.7-1.15-2.54-3-2.54A4.23,4.23,0,0,0,483.84,336.17Z"/><path class="cls-11" d="M509.12,329.24a5.22,5.22,0,0,1,4.21,1.83,5.88,5.88,0,0,1,1,5l-1.78,10.13h-4.95l1.65-9.41a2.6,2.6,0,0,0-.41-2.26,2.56,2.56,0,0,0-2-.74,3.5,3.5,0,0,0-2.29.79,4,4,0,0,0-1.3,2.41l-1.62,9.21h-4.95l2.9-16.5h4.95l-.26,1.55A6.2,6.2,0,0,1,509.12,329.24Z"/><path class="cls-11" d="M530.7,329.7h4.95l-2.9,16.5h-5l.19-1.12a7.44,7.44,0,0,1-5,1.58,6,6,0,0,1-5.51-2.75,8.59,8.59,0,0,1-1-6.36,10.8,10.8,0,0,1,3.12-5.85,8.41,8.41,0,0,1,6.15-2.46,5.2,5.2,0,0,1,4.62,2.21ZM522,340.89a3.19,3.19,0,0,0,2.61,1.08,4.53,4.53,0,0,0,3-1.08,4.81,4.81,0,0,0,1.62-2.91v0a3.44,3.44,0,0,0-.58-2.94,3.23,3.23,0,0,0-2.62-1.09,4.48,4.48,0,0,0-3,1.09,4.86,4.86,0,0,0-1.6,2.94A3.5,3.5,0,0,0,522,340.89Z"/><path class="cls-11" d="M548.82,329.24a5.18,5.18,0,0,1,4.2,1.83,5.85,5.85,0,0,1,1,5l-1.78,10.13h-5l1.65-9.41a2.6,2.6,0,0,0-.42-2.26,2.53,2.53,0,0,0-2-.74,3.5,3.5,0,0,0-2.29.79,4,4,0,0,0-1.31,2.41l-1.61,9.21h-5l2.9-16.5h5l-.26,1.55A6.2,6.2,0,0,1,548.82,329.24Z"/><path class="cls-11" d="M563.86,334.45l-1,5.84c-.13.68.06,1.11.56,1.29a7.45,7.45,0,0,0,2.61.13l-.79,4.49q-4.43.49-6.19-1t-1.14-4.95l1-5.84h-2.65l.86-4.75h2.61l.56-3.14,5.21-1.48-.82,4.62h3.43l-.86,4.75Z"/><rect class="cls-12" x="144.09" y="503.35" width="342.28" height="42.44" rx="20.83" ry="20.83"/><path class="cls-13" d="M176.67,533l-.41-3.2h-7.55l-1.62,3.2H162l10.48-20.33h5.92L181.75,533Zm-5.78-7.55h4.85l-1-7.7Z"/><path class="cls-13" d="M183.49,533l2.56-14.52h4.35L187.85,533q-.61,3.57-2.46,5a7.83,7.83,0,0,1-5.33,1.22l.76-4.18a2.77,2.77,0,0,0,1.83-.42A2.47,2.47,0,0,0,183.49,533Zm3.88-20.24a2.89,2.89,0,0,1,2-.78,2.14,2.14,0,0,1,1.72.76,2.17,2.17,0,0,1,.48,1.85,3,3,0,0,1-1.06,1.84,2.92,2.92,0,0,1-2,.77,2.07,2.07,0,0,1-1.72-.77,2.2,2.2,0,0,1-.45-1.84A3,3,0,0,1,187.37,512.75Z"/><path class="cls-13" d="M198.39,533.39a7,7,0,0,1-4.26-1.26,6,6,0,0,1-2.26-3.11,7.76,7.76,0,0,1-.16-3.87,8.86,8.86,0,0,1,2.93-5,8.44,8.44,0,0,1,5.78-2.05,6,6,0,0,1,5.25,2.51,7.2,7.2,0,0,1,1.22,5.62,8.65,8.65,0,0,1-2.93,5.07A8.16,8.16,0,0,1,198.39,533.39Zm-1.86-5.18a2.53,2.53,0,0,0,2.15.94,3.76,3.76,0,0,0,2.52-.94,4.07,4.07,0,0,0,1.37-2.48,2.91,2.91,0,0,0-.48-2.48,2.68,2.68,0,0,0-2.19-1,3.64,3.64,0,0,0-2.49,1,4.3,4.3,0,0,0-1.35,2.48A3.06,3.06,0,0,0,196.53,528.21Z"/><path class="cls-13" d="M220,518.47h4.35L221.82,533h-4.36l.23-1.37a5.44,5.44,0,0,1-4.26,1.77,4.57,4.57,0,0,1-3.71-1.61,5.15,5.15,0,0,1-.85-4.4l1.56-8.91h4.36l-1.45,8.27a2.24,2.24,0,0,0,.36,2,2.21,2.21,0,0,0,1.73.66,3.14,3.14,0,0,0,2-.7,3.52,3.52,0,0,0,1.14-2.12Z"/><path class="cls-13" d="M232.36,522.65l-.9,5.14c-.12.6,0,1,.49,1.13a6.2,6.2,0,0,0,2.29.12l-.69,4c-2.6.29-4.41,0-5.45-.85s-1.37-2.3-1-4.35l.9-5.14h-2.32l.75-4.18h2.3l.49-2.76,4.59-1.31-.73,4.07h3l-.75,4.18Z"/><path class="cls-13" d="M245,518.06a6.44,6.44,0,0,1,5.13,2.21,6.17,6.17,0,0,1,1.29,5.46,8.54,8.54,0,0,1-.46,1.74h-10.4c.22,1.35,1.21,2,3,2a4.33,4.33,0,0,0,3.05-1.13l3,2.5a8.6,8.6,0,0,1-6.39,2.52,6.5,6.5,0,0,1-6.94-7.95,8.45,8.45,0,0,1,3-5.27A8.54,8.54,0,0,1,245,518.06Zm-3.83,6.1h6.16a2.29,2.29,0,0,0-2.62-2.24A3.74,3.74,0,0,0,241.18,524.16Z"/><path class="cls-13" d="M258.92,521.08a4.56,4.56,0,0,1,1.95-2.16,5.88,5.88,0,0,1,2.93-.74l-.84,4.93a5.7,5.7,0,0,0-1.93.06,4.13,4.13,0,0,0-1.89,1,3.76,3.76,0,0,0-1.15,2.22l0-.17L256.83,533h-4.35L255,518.47h4.36Z"/><path class="cls-13" d="M282.35,518.47h4.36L284.15,533H279.8l.23-1.37a5.48,5.48,0,0,1-4.27,1.77,4.55,4.55,0,0,1-3.7-1.61,5.15,5.15,0,0,1-.86-4.4l1.57-8.91h4.36l-1.46,8.27a2.27,2.27,0,0,0,.37,2,2.2,2.2,0,0,0,1.73.66,3.11,3.11,0,0,0,2-.7,3.53,3.53,0,0,0,1.15-2.12Z"/><path class="cls-13" d="M298.29,518.06a4.58,4.58,0,0,1,3.7,1.61,5.16,5.16,0,0,1,.86,4.4L301.28,533h-4.35l1.45-8.28a2.31,2.31,0,0,0-.36-2,2.25,2.25,0,0,0-1.73-.65,3.07,3.07,0,0,0-2,.7,3.55,3.55,0,0,0-1.15,2.12L291.7,533h-4.35l2.55-14.52h4.36l-.24,1.36A5.48,5.48,0,0,1,298.29,518.06Z"/><path class="cls-13" d="M313.48,518.06a6.42,6.42,0,0,1,5.12,2.21,6.17,6.17,0,0,1,1.29,5.46,7.93,7.93,0,0,1-.46,1.74H309c.22,1.35,1.21,2,3,2a4.32,4.32,0,0,0,3-1.13l3.05,2.5a8.6,8.6,0,0,1-6.39,2.52,6.82,6.82,0,0,1-5.58-2.29,6.73,6.73,0,0,1-1.35-5.66,8.36,8.36,0,0,1,3-5.27A8.51,8.51,0,0,1,313.48,518.06Zm-3.84,6.1h6.16a2.28,2.28,0,0,0-2.61-2.24A3.75,3.75,0,0,0,309.64,524.16Z"/><path class="cls-13" d="M341.44,518.47h4.35L343.24,533h-4.36l.18-1a6.55,6.55,0,0,1-4.36,1.39,5.29,5.29,0,0,1-4.85-2.42,7.58,7.58,0,0,1-.9-5.59,9.47,9.47,0,0,1,2.75-5.15,7.37,7.37,0,0,1,5.41-2.17,4.6,4.6,0,0,1,4.07,2Zm-7.64,9.84a2.79,2.79,0,0,0,2.29,1,4,4,0,0,0,2.65-1,4.22,4.22,0,0,0,1.42-2.55v0a3.06,3.06,0,0,0-.51-2.59,2.82,2.82,0,0,0-2.31-.95,3.88,3.88,0,0,0-2.62.95,4.23,4.23,0,0,0-1.41,2.59A3,3,0,0,0,333.8,528.31Z"/><path class="cls-13" d="M357.38,518.06a4.59,4.59,0,0,1,3.7,1.61,5.16,5.16,0,0,1,.85,4.4L360.37,533H356l1.45-8.28a2,2,0,0,0-2.09-2.64,3.06,3.06,0,0,0-2,.7,3.45,3.45,0,0,0-1.15,2.12l-1.42,8.1h-4.36L349,518.47h4.35l-.23,1.36A5.47,5.47,0,0,1,357.38,518.06Z"/><path class="cls-13" d="M374.22,518.06a4.59,4.59,0,0,1,3.7,1.61,5.16,5.16,0,0,1,.85,4.4L377.21,533h-4.36l1.45-8.28a2,2,0,0,0-2.09-2.64,3.1,3.1,0,0,0-2,.7,3.49,3.49,0,0,0-1.14,2.12l-1.42,8.1h-4.36l2.56-14.52h4.35l-.23,1.36A5.47,5.47,0,0,1,374.22,518.06Z"/><path class="cls-13" d="M387.46,533.39a7,7,0,0,1-4.26-1.26,6,6,0,0,1-2.26-3.11,7.76,7.76,0,0,1-.16-3.87,8.86,8.86,0,0,1,2.93-5,8.44,8.44,0,0,1,5.78-2.05,6,6,0,0,1,5.25,2.51,7.2,7.2,0,0,1,1.22,5.62,8.65,8.65,0,0,1-2.93,5.07A8.16,8.16,0,0,1,387.46,533.39Zm-1.86-5.18a2.53,2.53,0,0,0,2.15.94,3.76,3.76,0,0,0,2.52-.94,4.07,4.07,0,0,0,1.37-2.48,2.91,2.91,0,0,0-.48-2.48,2.68,2.68,0,0,0-2.19-1,3.64,3.64,0,0,0-2.49,1,4.3,4.3,0,0,0-1.35,2.48A3.06,3.06,0,0,0,385.6,528.21Z"/><path class="cls-13" d="M408.19,518.06a4.59,4.59,0,0,1,3.7,1.61,5.16,5.16,0,0,1,.85,4.4L411.18,533h-4.36l1.45-8.28a2,2,0,0,0-2.09-2.64,3.06,3.06,0,0,0-2,.7,3.45,3.45,0,0,0-1.15,2.12L401.6,533h-4.36l2.56-14.52h4.35l-.23,1.36A5.47,5.47,0,0,1,408.19,518.06Z"/><path class="cls-13" d="M421.46,533.39a6.62,6.62,0,0,1-5.38-2.29,6.82,6.82,0,0,1-1.39-5.66,8.67,8.67,0,0,1,8.65-7.38,7,7,0,0,1,3.86,1,6,6,0,0,1,2.33,2.75l-4,2.09a2.55,2.55,0,0,0-2.59-1.57,3.94,3.94,0,0,0-3.92,3.31,2.9,2.9,0,0,0,.53,2.45,2.67,2.67,0,0,0,2.2,1,3.56,3.56,0,0,0,3-1.63l3.52,2.24a7.26,7.26,0,0,1-2.94,2.75A8.47,8.47,0,0,1,421.46,533.39Z"/><path class="cls-13" d="M438.47,518.06a6.4,6.4,0,0,1,5.12,2.21,6.2,6.2,0,0,1,1.3,5.46,8.54,8.54,0,0,1-.47,1.74H434c.21,1.35,1.21,2,3,2a4.34,4.34,0,0,0,3.05-1.13l3,2.5a8.59,8.59,0,0,1-6.38,2.52,6.84,6.84,0,0,1-5.59-2.29,6.73,6.73,0,0,1-1.35-5.66,8.41,8.41,0,0,1,3-5.27A8.51,8.51,0,0,1,438.47,518.06Zm-3.83,6.1h6.15a2.27,2.27,0,0,0-2.61-2.24A3.72,3.72,0,0,0,434.64,524.16Z"/><polyline class="cls-14" points="457.84 514.75 468.45 525.35 457.84 535.96"/><polyline class="cls-14" points="454.59 518.85 461.09 525.35 454.59 531.85"/><path class="cls-15" d="M457.06,0h274a0,0,0,0,1,0,0V43.28a23,23,0,0,1-23,23h-228a23,23,0,0,1-23-23V0A0,0,0,0,1,457.06,0Z"/><path class="cls-13" d="M563.71,46.4h-4.07l-8.21-9.9v9.9H548V25.58h3.42v9.34l7.91-9.34h4.08L555,35.72Z"/><path class="cls-13" d="M580,46.4l-1.46-4.19h-8.86l-1.46,4.19h-3.71L572,25.58h4.1l7.53,20.82ZM570.76,39h6.6l-3.3-9.39Z"/><path class="cls-13" d="M598.12,35.6a5.43,5.43,0,0,1,2.14,2,5.3,5.3,0,0,1,.77,2.88,5.56,5.56,0,0,1-1.81,4.25,6.26,6.26,0,0,1-4.43,1.7h-8.92V25.58h8.26a6.11,6.11,0,0,1,4.33,1.65,5.41,5.41,0,0,1,1.77,4.12A5,5,0,0,1,598.12,35.6Zm-4-6.81h-4.84v5.48h4.84a2.6,2.6,0,0,0,1.91-.79,2.85,2.85,0,0,0,0-3.9A2.6,2.6,0,0,0,594.13,28.79Zm.66,14.4a2.68,2.68,0,0,0,2-.85,3,3,0,0,0,0-4.13,2.68,2.68,0,0,0-2-.85h-5.5v5.83Z"/><path class="cls-13" d="M617.57,46.4l-1.46-4.19h-8.86l-1.46,4.19h-3.72l7.56-20.82h4.1l7.52,20.82ZM608.38,39H615l-3.3-9.39Z"/><path class="cls-13" d="M637.19,46.4l-1.45-4.19h-8.86l-1.46,4.19H621.7l7.55-20.82h4.11l7.52,20.82ZM628,39h6.61l-3.3-9.39Z"/><path class="cls-13" d="M652.18,46.79A10.59,10.59,0,0,1,641.3,36a10.89,10.89,0,0,1,16.1-9.46,9.79,9.79,0,0,1,3.73,3.63l-3,1.73a6.22,6.22,0,0,0-2.42-2.46,7.14,7.14,0,0,0-3.56-.9,7.22,7.22,0,0,0-5.4,2.11A7.36,7.36,0,0,0,644.72,36a7.35,7.35,0,0,0,2.06,5.35,7.75,7.75,0,0,0,9,1.21,6,6,0,0,0,2.41-2.45l3,1.69a9.52,9.52,0,0,1-3.7,3.64A10.43,10.43,0,0,1,652.18,46.79Z"/><path class="cls-13" d="M676.3,25.58h3.42V46.4H676.3v-9h-8.92v9H664V25.58h3.42v8.54h8.92Z"/><path class="cls-13" d="M697.44,46.4,696,42.21h-8.86l-1.45,4.19H682l7.55-20.82h4.11l7.52,20.82ZM688.25,39h6.61l-3.31-9.39Z"/><path class="cls-13" d="M535,22.67a9.94,9.94,0,0,1-12.72,0,9.94,9.94,0,0,1-12.72,0,10.12,10.12,0,0,1-5.87,2.23V38.06l14.14-2.47-7.7,10.89h28.48a2.28,2.28,0,0,0,2.28-2.28V25A9.9,9.9,0,0,1,535,22.67Zm-9.44,12.51L527,40.36l-4.53-2.91a.36.36,0,0,0-.4,0l-4.53,2.91L519,35.18c0-.16,0-.32-.16-.4l-4.2-3.31,5.42-.25c.16,0,.24-.08.32-.24l1.94-5,1.86,5c0,.16.16.24.32.24l5.42.25-4.21,3.31A.29.29,0,0,0,525.57,35.18Z"/><path class="cls-13" d="M489.08,54.22a.56.56,0,0,1-.29-1l10.63-6.71a.55.55,0,1,1,.59.94l-10.63,6.71A.53.53,0,0,1,489.08,54.22Z"/><path class="cls-13" d="M491.6,47.17a.55.55,0,0,1-.47-.26.55.55,0,0,1,.17-.77l4-2.54a.55.55,0,0,1,.77.17.57.57,0,0,1-.18.77l-4,2.55A.67.67,0,0,1,491.6,47.17Z"/><path class="cls-13" d="M494.51,56.25A.54.54,0,0,1,494,56a.55.55,0,0,1,.17-.77l6.19-3.9a.55.55,0,0,1,.77.17.56.56,0,0,1-.17.77l-6.2,3.91A.6.6,0,0,1,494.51,56.25Z"/><path class="cls-13" d="M515.37,37.15l-6.6,9.33-6.07,8.59c.28-2.78.51-7.4-.76-9.42s-5.55-3.79-8.18-4.73l9.94-1.73Z"/><path class="cls-13" d="M546.17,20.06a2.16,2.16,0,0,1-1,2.91,8.82,8.82,0,0,1-9.73-1.37l-.48-.41-.46.41a8.81,8.81,0,0,1-11.78,0l-.09-.08-.4-.32-.45.4a8.81,8.81,0,0,1-11.77,0l-.47-.43-.38.33a8.86,8.86,0,0,1-5.5,2.27,9,9,0,0,1-4.29-.83,2.15,2.15,0,0,1-1-2.92l4.79-9.6a3.79,3.79,0,0,1,3.4-2.1H538a3.78,3.78,0,0,1,3.39,2.1Z"/><path class="cls-16" d="M155.62,405.29q-8.76,0-13.58-6t-3.4-14.52a22.75,22.75,0,0,1,7.81-13.91,22.21,22.21,0,0,1,14.93-5.48,17.89,17.89,0,0,1,9.39,2.36,14.49,14.49,0,0,1,5.83,6.57l-8,4.22q-2.25-4.6-8.11-4.6a12.62,12.62,0,0,0-8.57,3.12,13.58,13.58,0,0,0-4.46,8.27q-.89,5.1,1.53,8.25t7.18,3.15a11.83,11.83,0,0,0,10-4.88l7.12,4.66a22.06,22.06,0,0,1-7.73,6.43A21.4,21.4,0,0,1,155.62,405.29Z"/><path class="cls-16" d="M193.86,366.18l-7.23,16.16h-6.58l5-16.16Z"/><path class="cls-16" d="M205.75,376.37a12.11,12.11,0,0,1,9.66,4.16q3.59,4.17,2.44,10.3a15,15,0,0,1-.88,3.29H197.36Q198,397.95,203,398a8.11,8.11,0,0,0,5.75-2.14l5.75,4.72a16.24,16.24,0,0,1-12,4.76q-7,0-10.55-4.33t-2.54-10.68a15.92,15.92,0,0,1,5.58-9.94A16.13,16.13,0,0,1,205.75,376.37Zm-7.24,11.5h11.62q-.39-4.22-4.93-4.22A7.06,7.06,0,0,0,198.51,387.87Z"/><path class="cls-16" d="M230,405.29q-8.49,0-11.56-6.74l7.39-3.72a4.73,4.73,0,0,0,4.88,3.12c1.86,0,2.86-.47,3-1.42.11-.59-.29-1.08-1.2-1.48a24.82,24.82,0,0,0-3.35-1.15,25.29,25.29,0,0,1-3.86-1.43,6.45,6.45,0,0,1-3-2.87,7.32,7.32,0,0,1-.55-5,8.8,8.8,0,0,1,2.35-4.71,10.87,10.87,0,0,1,4.22-2.74,14.83,14.83,0,0,1,4.93-.82,12.75,12.75,0,0,1,6.38,1.56,9.64,9.64,0,0,1,4.09,4.3l-7.4,3.67a3.56,3.56,0,0,0-3.56-2.41c-1.64,0-2.57.57-2.79,1.7-.15.73.22,1.29,1.12,1.7a18.75,18.75,0,0,0,3.31,1.06,26.31,26.31,0,0,1,3.89,1.26,6.06,6.06,0,0,1,3,2.8,7.69,7.69,0,0,1,.54,5.12,8.67,8.67,0,0,1-4,6.16A14.71,14.71,0,0,1,230,405.29Z"/><path class="cls-16" d="M257.13,385l-1.7,9.7c-.22,1.13.09,1.84.93,2.14a12.15,12.15,0,0,0,4.33.21l-1.32,7.45q-7.34.83-10.27-1.58t-1.89-8.22l1.7-9.7h-4.38l1.42-7.88h4.33l.93-5.21,8.65-2.46-1.36,7.67h5.69L262.77,385Z"/><path class="cls-16" d="M320.28,383.16l-.54,3.29q-1.49,8.82-7.59,13.83a22.37,22.37,0,0,1-14.65,5q-8.88,0-13.73-6t-3.42-14.52a22.75,22.75,0,0,1,7.81-13.91,22.2,22.2,0,0,1,14.92-5.48,19.12,19.12,0,0,1,9.81,2.41,15.57,15.57,0,0,1,6.24,6.8l-8.05,4.21q-2.62-4.87-8.93-4.87a12.62,12.62,0,0,0-8.57,3.12,13.58,13.58,0,0,0-4.46,8.27c-.63,3.44-.09,6.19,1.61,8.27s4.25,3.13,7.64,3.13q8.22,0,11.23-5.92h-9.86l1.32-7.67Z"/><path class="cls-16" d="M333.38,382.07a8.61,8.61,0,0,1,3.67-4.09,11,11,0,0,1,5.53-1.39L341,385.9a10.15,10.15,0,0,0-3.64.11,7.69,7.69,0,0,0-3.56,1.94,7.06,7.06,0,0,0-2.17,4.19l.06-.32-2.25,12.7h-8.21L326,377.14h8.21Z"/><path class="cls-16" d="M365.42,377.14h8.22l-4.82,27.38H360.6l.33-1.86a12.29,12.29,0,0,1-8.22,2.63q-6.3,0-9.15-4.57a14.18,14.18,0,0,1-1.69-10.55,17.88,17.88,0,0,1,5.17-9.72,14,14,0,0,1,10.22-4.08q5.14,0,7.67,3.67ZM351,395.71a5.29,5.29,0,0,0,4.33,1.8,7.52,7.52,0,0,0,5-1.8,8,8,0,0,0,2.68-4.83v-.05a5.73,5.73,0,0,0-1-4.88,5.34,5.34,0,0,0-4.35-1.8,7.39,7.39,0,0,0-5,1.8,8.1,8.1,0,0,0-2.66,4.88A5.82,5.82,0,0,0,351,395.71Z"/><path class="cls-16" d="M388.7,385l-1.7,9.7c-.22,1.13.09,1.84.93,2.14a12.17,12.17,0,0,0,4.33.21L391,404.52q-7.35.83-10.27-1.58t-1.89-8.22l1.69-9.7H376.1l1.43-7.88h4.32l.93-5.21,8.66-2.46-1.37,7.67h5.7L394.34,385Z"/><path class="cls-16" d="M418.5,377.14h8.22l-4.82,27.38h-8.22l.44-2.57a10.32,10.32,0,0,1-8.06,3.34,8.62,8.62,0,0,1-7-3c-1.7-2-2.24-4.79-1.62-8.3l3-16.81h8.22l-2.74,15.61a4.3,4.3,0,0,0,.68,3.75,4.2,4.2,0,0,0,3.26,1.23,5.89,5.89,0,0,0,3.81-1.31,6.69,6.69,0,0,0,2.17-4Z"/><path class="cls-16" d="M427.92,404.52l4.82-27.38H441l-4.82,27.38Zm13.17-31.25a5.56,5.56,0,0,1-3.75,1.46,4,4,0,0,1-3.26-1.46,4.21,4.21,0,0,1-.85-3.48,5.87,5.87,0,0,1,2-3.45,5.5,5.5,0,0,1,3.7-1.48,4.13,4.13,0,0,1,4.16,4.93A5.66,5.66,0,0,1,441.09,373.27Z"/><path class="cls-16" d="M456,385l-1.7,9.7c-.22,1.13.09,1.84.93,2.14a12.17,12.17,0,0,0,4.33.21l-1.31,7.45q-7.35.83-10.27-1.58t-1.89-8.22l1.69-9.7h-4.38l1.43-7.88h4.32l.94-5.21,8.65-2.46-1.37,7.67h5.7L461.66,385Z"/><path class="cls-16" d="M481.66,405.29a4.11,4.11,0,0,1-3.4-1.59,4.47,4.47,0,0,1-.88-3.72,6.09,6.09,0,0,1,2.11-3.62,6,6,0,0,1,4-1.48,4.13,4.13,0,0,1,3.4,1.59,4.48,4.48,0,0,1,.87,3.73,6.13,6.13,0,0,1-6.13,5.09Zm-.72-14.46.77-13.69,1.92-11h9.86l-1.92,11-4.05,13.69Z"/><path class="cls-17" d="M804,508.62s-2.43,7.34-2.3,8.93,9.26,1.66,9.26,1.66l3-4.27Z"/><path class="cls-18" d="M801.18,515.91S799,518.44,798.9,520s-2.77,8.33-1.79,10,8.76,1.91,12.65,1.29,12.34.68,13.2-1,1.36-4.1-1.17-5-8.33-3.42-9.38-6S801.18,515.91,801.18,515.91Z"/><rect class="cls-19" x="741.9" y="97.52" width="261.51" height="384.15" rx="16.22" ry="16.22" transform="translate(1745.32 579.19) rotate(180)"/><rect class="cls-13" x="756.95" y="155.03" width="231.42" height="294.25"/><path class="cls-20" d="M881.12,464.56a8.46,8.46,0,1,1-8.46-8.46A8.47,8.47,0,0,1,881.12,464.56Z"/><rect class="cls-21" x="783.07" y="326.83" width="106.87" height="4.23"/><rect class="cls-21" x="783.07" y="338.15" width="94.03" height="4.23"/><path class="cls-11" d="M826.7,250.52H790.4a7.34,7.34,0,0,1-7.33-7.34v-36.3a7.34,7.34,0,0,1,7.33-7.33h36.3a7.34,7.34,0,0,1,7.34,7.33v36.3A7.34,7.34,0,0,1,826.7,250.52Zm-36.3-48.88a5.25,5.25,0,0,0-5.24,5.24v36.3a5.25,5.25,0,0,0,5.24,5.25h36.3a5.25,5.25,0,0,0,5.25-5.25v-36.3a5.25,5.25,0,0,0-5.25-5.24Z"/><path class="cls-11" d="M784.11,235.63H833a0,0,0,0,1,0,0v7.14a6.71,6.71,0,0,1-6.71,6.71H790.82a6.71,6.71,0,0,1-6.71-6.71v-7.14A0,0,0,0,1,784.11,235.63Z"/><rect class="cls-21" x="840.45" y="211.77" width="66.03" height="3.22"/><rect class="cls-21" x="840.45" y="226.29" width="85.7" height="3.22"/><rect class="cls-21" x="840.45" y="219.03" width="33.85" height="3.22"/><path class="cls-11" d="M826.7,317.9H790.4a7.35,7.35,0,0,1-7.33-7.34v-36.3a7.34,7.34,0,0,1,7.33-7.34h36.3a7.34,7.34,0,0,1,7.34,7.34v36.3A7.35,7.35,0,0,1,826.7,317.9ZM790.4,269a5.25,5.25,0,0,0-5.24,5.25v36.3a5.25,5.25,0,0,0,5.24,5.25h36.3a5.26,5.26,0,0,0,5.25-5.25v-36.3A5.26,5.26,0,0,0,826.7,269Z"/><rect class="cls-21" x="840.45" y="279.14" width="79.66" height="3.22"/><rect class="cls-21" x="840.45" y="293.67" width="50.07" height="3.22"/><rect class="cls-21" x="840.45" y="286.41" width="30.59" height="3.22"/><path class="cls-11" d="M784.11,303H833a0,0,0,0,1,0,0v7.14a6.71,6.71,0,0,1-6.71,6.71H790.82a6.71,6.71,0,0,1-6.71-6.71V303A0,0,0,0,1,784.11,303Z"/><path class="cls-22" d="M853.79,237.54a9.87,9.87,0,0,1-9.32,0c-2.8,1-2.29,3.16-2.29,3.16.21,4.28,7,8.78,7,8.78s6.56-4.52,7-8.78C856.09,240.7,856.59,238.56,853.79,237.54Z"/><path class="cls-22" d="M873.33,237.54a9.87,9.87,0,0,1-9.32,0c-2.8,1-2.3,3.16-2.3,3.16.22,4.28,7,8.78,7,8.78s6.55-4.52,7-8.78C875.62,240.7,876.13,238.56,873.33,237.54Z"/><path class="cls-22" d="M892.48,237.54a9.87,9.87,0,0,1-9.32,0c-2.8,1-2.3,3.16-2.3,3.16.22,4.28,7,8.78,7,8.78s6.56-4.52,7-8.78C894.78,240.7,895.28,238.56,892.48,237.54Z"/><path class="cls-22" d="M911.63,237.54a9.85,9.85,0,0,1-9.31,0c-2.81,1-2.3,3.16-2.3,3.16.21,4.28,7,8.78,7,8.78s6.56-4.52,7-8.78C913.93,240.7,914.43,238.56,911.63,237.54Z"/><path class="cls-22" d="M930.93,237.54a9.85,9.85,0,0,1-9.31,0c-2.81,1-2.3,3.16-2.3,3.16.21,4.28,6.95,8.78,6.95,8.78s6.56-4.52,7-8.78C933.23,240.7,933.73,238.56,930.93,237.54Z"/><path class="cls-22" d="M853.79,305.86a9.87,9.87,0,0,1-9.32,0c-2.8,1-2.29,3.15-2.29,3.15.21,4.28,7,8.78,7,8.78s6.56-4.51,7-8.78C856.09,309,856.59,306.87,853.79,305.86Z"/><path class="cls-22" d="M873.33,305.86a9.87,9.87,0,0,1-9.32,0c-2.8,1-2.3,3.15-2.3,3.15.22,4.28,7,8.78,7,8.78s6.55-4.51,7-8.78C875.62,309,876.13,306.87,873.33,305.86Z"/><path class="cls-22" d="M892.48,305.86a9.87,9.87,0,0,1-9.32,0c-2.8,1-2.3,3.15-2.3,3.15.22,4.28,7,8.78,7,8.78s6.56-4.51,7-8.78C894.78,309,895.28,306.87,892.48,305.86Z"/><polygon class="cls-21" points="962.79 293.11 944.62 293.11 944.62 291.71 961.4 291.71 961.4 222.95 944.62 222.95 944.62 221.56 962.79 221.56 962.79 293.11"/><path class="cls-23" d="M661.32,327.79s-4.92-1.29-7.32,3,7.13,17.88,3.12,23.4c-3.53,4.87-6.77,2.41-6.77,2.41s6.76,7.35,12.55-1.31c3.48-5.2,2-10.86,1.8-15.55S661.32,327.79,661.32,327.79Z"/><path class="cls-24" d="M699.42,544.17s1.31,3.51,3.15,4.34,6,4.69,7.64,5,5.67.6,5.89,2.71-.21,4-8.26,2.91a59.37,59.37,0,0,1-15.66-4.83s-1.63-8.16,1-12.19S699.42,544.17,699.42,544.17Z"/><path class="cls-25" d="M699.42,544.17l-1.51-5h-5.75v5.36S700.86,547.77,699.42,544.17Z"/><path class="cls-24" d="M648.93,534.69s.57,3.64,1.46,4.74,2.19,6.34,4,8,6.29,5.44,4.92,7.32-10.93-.54-14.34-6.36-4.59-6.48-4.15-8.06,3.67-7.66,3.6-8.4S648.93,534.69,648.93,534.69Z"/><path class="cls-25" d="M650.33,532.08a9.7,9.7,0,0,0-1.4,2.61c-.24,1-2.35,1.35-4-.75a3.3,3.3,0,0,1-.45-2,18.14,18.14,0,0,1,1.5-4.21Z"/><path class="cls-26" d="M689.1,406.3l.33.41h0l1.63,2c4.1,4.9,13.11,15.35,16.54,17.23,2.43,1.34,2.8-2.86.39-5.44-2.21-2.36-10.72-17.54-14-20.81-1.6-1.59-3.75-16.59-3.75-16.59s-2,12.51-1.77,13.95S687.7,404.55,689.1,406.3Z"/><path class="cls-27" d="M708,420.47s1.41,1.86,2.15,2.09,1.58,1.53,2.19,1.86,2.63.66,3.12,1.22a19.31,19.31,0,0,0,1.3,2.55c.46.42,1.49,1.17,1.1,1.55s-1.51,0-1.51,0a.77.77,0,0,1,.16.85c-.47.85-1.08.84-1.08.84s.12.68-.16,1A1.75,1.75,0,0,1,714,433a1.56,1.56,0,0,1-.63.86A1.4,1.4,0,0,1,712,434s-.7.76-1.24.56-.82-.64-1.19-.91a17.83,17.83,0,0,1-3.48-6.63,13.24,13.24,0,0,0-2.42-5Z"/><path class="cls-28" d="M707.05,442.12c-.1-.21-2.36-5.18-.7-9a6.61,6.61,0,0,1,4.2-3.64,9,9,0,0,1,7.62.46,12.41,12.41,0,0,1,4.7,5.66,18.54,18.54,0,0,1,1.24,3.63l.09.43-17,2.79Zm10.7-11.49a8.15,8.15,0,0,0-6.93-.39,5.76,5.76,0,0,0-3.7,3.17c-1.3,3,.12,7,.57,8.07l15.5-2.54C722.81,437.49,721.33,432.69,717.75,430.63Z"/><polygon class="cls-29" points="752 487.13 697.52 494.21 688.28 444.32 745.24 434.58 752 487.13"/><polygon class="cls-30" points="764.82 483.48 745.24 434.58 752 487.13 757.7 483.79 764.82 483.48"/><path class="cls-28" d="M704.55,441.6c-.07-.23-1.56-5.81.83-9.54a6.94,6.94,0,0,1,5-3.07,9.48,9.48,0,0,1,7.86,1.8,13.1,13.1,0,0,1,3.93,6.71,20.23,20.23,0,0,1,.66,4V442l-18.21,0Zm13.14-10.13a8.66,8.66,0,0,0-7.16-1.61,6.13,6.13,0,0,0-4.4,2.67c-1.87,2.92-1.08,7.29-.81,8.51l16.6,0C721.78,439.5,721.06,434.24,717.69,431.47Z"/><polygon class="cls-31" points="743.62 496.29 685.61 494.26 684.61 440.65 745.66 440.35 743.62 496.29"/><polygon class="cls-11" points="757.62 494.7 745.66 440.35 743.62 496.29 750.14 493.79 757.62 494.7"/><path class="cls-32" d="M716.23,429.33s-2.12-2.83-3.34-2.88-.5,1-.5,1-.69-1.06-1.61-.6,0,1.65,0,1.65a1,1,0,0,0-1.47.11c-.73.78.24,1.61.24,1.61s-1.57-.37-1.37.94a5.31,5.31,0,0,0,2.64,3.4s.59.24,1.24-.56a1.41,1.41,0,0,0,2-1s1.78-.24,1.38-1.64A1.24,1.24,0,0,0,716.23,429.33Z"/><path class="cls-33" d="M674.14,449.37c.3,1.45,2.22,7.52,4.37,14.27h0c2,6.15,4.12,12.86,5.41,17.15.48,1.59.85,2.85,1,3.62,1.24,5.07-.15,13-.6,19.67s6.71,39.35,6.71,39.35c1.69.79,9.19-1.3,9.19-1.3-1.24-2.36-2.9-43.07-2.23-45.66s1.13-9.81.45-12.62a12,12,0,0,1-.22-2.26c-.06-3.56.68-9.44,1.12-15.88.57-8.12-2.59-28.28-3-30.09,0-.16-.1-.39-.19-.68-.83-2.83-3.5-10.86-3.5-10.86-5.42-1.61-9.5-1.9-12.55-1.28a9.33,9.33,0,0,0-7.36,6.31C670.08,436.45,673.75,447.49,674.14,449.37Z"/><path class="cls-34" d="M643.34,531.05l7.4,3.14c.93-4.5,21.59-35.81,23-39.3a51,51,0,0,0,2.81-12.73c0-.45,0-1.19.1-2.16.24-3.76.93-10.84,1.91-16.36.19-1,.38-2,.58-2.89,1.1-4.76,1.28-21,1.3-30.56,0-4.26,0-7.18,0-7.18l-.27-.21c-2.05-1.56-15.23-11-19.83-2.17a26.59,26.59,0,0,0-2.48,7.47,86,86,0,0,0-.25,26.17c1,7.05,4.38,16.16,4.94,23.55.31,4.07.19,7.36-.73,9-2.59,4.5-5.12,8.32-10.36,24.22C649.67,516.17,643.34,531.05,643.34,531.05Z"/><path class="cls-25" d="M673,325.85s10.2.35,10.61,15.13-2.8,17.92-11.9,14.84-12-18.54-12.18-20.93S659,324.07,673,325.85Z"/><path class="cls-26" d="M654.53,376c0,5.09,5.81,17.25,6.71,21s2.33,5,1.13,9.77-4.93,21.07-4.78,22.5,33.52,6.69,38.55,5.71c0,0-6.15-23-6.6-25.59s.55-12.48.77-15.26,3-8.76,3-11.55-1.49-5.29-3.44-8.32c-.61-.94-1.24-1.89-1.88-2.82a52.87,52.87,0,0,0-5.14-6.73,15.94,15.94,0,0,0-2.07-1.66h0a9.33,9.33,0,0,0-2.13-1.12l-8.94-1.43s-5.57,2-8.77,2.76C660.88,363.22,654.62,364.14,654.53,376Z"/><path class="cls-26" d="M680.72,363l5.18,8.16,4.79,7.54a44.14,44.14,0,0,1-.87-4.49c-.11-.62-.22-1.33-.33-2.12a5.73,5.73,0,0,0-.16-.69h0c-2-4.72-8.37-8.28-8.6-8.4Z"/><path class="cls-25" d="M665.85,349.17c.9,1.7,1.85,12.26,1.85,12.26s12.72,4.81,11.42,2.09a10.34,10.34,0,0,1-.78-4.21,21.45,21.45,0,0,1,.14-2.57c0-.28.06-.44.06-.44S665,347.46,665.85,349.17Z"/><path class="cls-32" d="M671.23,355.65c1.95,2.88,7.11,3.66,7.11,3.66h0a21.45,21.45,0,0,1,.14-2.57C675.17,357.38,671.23,355.65,671.23,355.65Z"/><path class="cls-26" d="M689.31,371.35h0a10.51,10.51,0,0,1,.51,2.87l-1.88-2.82s-3.34-4.8-4.49-6a19.84,19.84,0,0,0-2.72-2.34S687.31,366.18,689.31,371.35Z"/><path class="cls-35" d="M678.59,361.89s6,9.21,4,10-13-1.08-17.68-9.83C664.88,362.08,671.86,358.5,678.59,361.89Z"/><path class="cls-26" d="M709.38,422s-3.06,1-4,2.75a27.92,27.92,0,0,0-2.59-3l4.63-2Z"/><path class="cls-24" d="M690.3,394.24c0-.12,0-.2,0-.21a.18.18,0,0,1,0,.06S690.3,394.17,690.3,394.24Z"/><path class="cls-36" d="M689.43,406.71h0c.36.44,1.71,2.08,2.42,2.92,0,0-1.62-13.62-1.55-15.39C690.14,395.65,689.18,403.68,689.43,406.71Z"/><polygon class="cls-16" points="678.41 425.13 641.87 414.1 650.24 379.86 689.1 389.91 678.41 425.13"/><polygon class="cls-37" points="687.58 426.47 689.1 389.91 678.41 425.13 682.98 424.64 687.58 426.47"/><path class="cls-26" d="M655.4,371.27s1.41-9.53,8.39-8c6.7,1.51.42,14-.07,15.48s-5.46,13.55-5.89,15.13c-1.36,5-.09,5.12,2,6.3,6.05,3.49,18.2,4.1,19.63,5.06s1.64,3.09-.77,3.2c-3.14.13-21-1.56-23.55-1.8s-7.25-.44-6-9.05C650,391.83,655.4,371.27,655.4,371.27Z"/><path class="cls-27" d="M668.71,403.11s3.73.62,4.08.56,1.82-2.47,3.53-2.9a36.23,36.23,0,0,0,4.38-1.1c.53-.33.67,1.35-1,2s-2.06,1.61,1,2.22c1.7.34,8.06-.37,7.53.71-.31.63-6.44,1.08-6.44,1.08s6.62,0,6.84.37c.45.79-6.19,1.07-6.46,1,0,0,5.68.33,5.73.84s-5.7.36-5.64.46,4.51.32,4.47.7-4,.57-4.81.48-8.56-1-9.86-1.24-3.52-.41-3.52-.41Z"/><path class="cls-27" d="M661.62,401.12a69.58,69.58,0,0,0,7.09,2c3.43.72-.12,4.84-.12,4.84s-5.94-.57-8.81-.83C658.74,407,661.62,401.12,661.62,401.12Z"/><path class="cls-26" d="M664.41,378s-7.63-2.71-10-2.89c0,0,1.23-13.33,9.11-12S664.41,378,664.41,378Z"/><path class="cls-28" d="M664.05,383.43l11.58,3-.08.26a12.87,12.87,0,0,1-1.06,2.45,8.64,8.64,0,0,1-3.59,3.65,6.24,6.24,0,0,1-5.3-.12,4.59,4.59,0,0,1-2.7-2.76c-.92-2.77.93-6.08,1-6.22Zm10.85,3.39-10.59-2.65c-.37.73-1.58,3.39-.85,5.55a4,4,0,0,0,2.37,2.41,5.69,5.69,0,0,0,4.83.13C673.25,391,674.55,387.8,674.9,386.82Z"/><path class="cls-26" d="M678.39,360.46s-1,1.37-10.95-1.68l-.17,2.4a25.23,25.23,0,0,0-4.9,1.66s17.9,16.87,20.61,10S678.81,362,678.81,362Z"/><path class="cls-23" d="M675.74,335.18s-2,7.25-13.67,9.41c0,0-9.17-15.69,3.74-19s17.05,6.65,17.43,11.54A14.09,14.09,0,0,0,675.74,335.18Z"/><path class="cls-23" d="M682.78,335.24s-5.16-18.59-21.06-8.23c0,0-8,5.3.65,18.32C662.37,345.33,674.4,342.17,682.78,335.24Z"/><path class="cls-28" d="M670.2,403.35s-1.26,1.55-.71,4.67c0,0,.29.39,1.32.14,0,0-.06-3.35,1-4.58A2.44,2.44,0,0,0,670.2,403.35Z"/><path class="cls-25" d="M669.84,343.14c-.69-1.52-1.82-2.85-3.49-1.82s-.57,4.72,1.56,5.29S670.45,344.48,669.84,343.14Z"/><path class="cls-23" d="M665.74,344.27s-1.85,2.51-1.39,5c0,0-2.65-2.76-2.45-4.65S665.74,344.27,665.74,344.27Z"/><rect class="cls-38" x="831.82" y="354.01" width="179.78" height="139.64" rx="9.66" ry="9.66"/><rect class="cls-30" x="916.01" y="373.08" width="78.85" height="35.9" rx="9.63" ry="9.63"/><text class="cls-39" transform="translate(923.8 397.7)"><tspan class="cls-40">V</tspan><tspan class="cls-41" x="11.39" y="0">e</tspan><tspan class="cls-42" x="22.71" y="0">nd</tspan><tspan class="cls-43" x="46.37" y="0">r</tspan><tspan x="53.36" y="0">e</tspan></text><rect class="cls-11" x="844.4" y="373.08" width="60.75" height="5.09"/><rect class="cls-11" x="844.4" y="384.99" width="45.24" height="5.09"/><rect class="cls-11" x="844.4" y="396.91" width="51.52" height="5.09"/><path class="cls-22" d="M994.22,483.32H842.94V419.44H994.22Zm-148.39-2.9H991.32V422.33H845.83Z"/><path class="cls-27" d="M918.42,340.71s10.26,1.83,10.35,10.52-7.85,21.27-13,20.34-11-5.52-10.84-10.8,1.66-12.23,4-16S915.56,340.52,918.42,340.71Z"/><path class="cls-44" d="M905.26,356.75s0,1.77,3.55,3.17,10-.56,11.64-.23,2.11-.46,2.11-.46l.11,1.73,1.38.94s1-4.62,3.87-5,5.31-13.65-7.19-16.16c0,0-9.25-2.51-11.64,2.18S904.82,353.44,905.26,356.75Z"/><path class="cls-27" d="M937.54,408.78a3.1,3.1,0,0,0,1.59-.72c1-1,1.11-3.21,3.14-3.36s3.91,6,3.58,7.29-3,2.28-7.27,2.08S937.54,408.78,937.54,408.78Z"/><path class="cls-27" d="M941.59,404.85a62.9,62.9,0,0,1,6-2.64c2.83-1.07,6.33-1.83,6.71-1.34.85,1.08-2.46,1.84-5.2,3.08l-2.1,1s-.18-.06,2.79-.79c3.19-.79,6.53-1.28,7-.68.21.29.58,1.3-.76,1.26.7-.14.59-.24.66,0,.35,1.44-4.2,3.31-6,4.05,1.39-.56,2.47-.83,2.1.22-.43,1.21-7,3.57-9.25,4.64C941,414.81,941.59,404.85,941.59,404.85Z"/><path class="cls-45" d="M893,366.29a78.47,78.47,0,0,0-10.94,0c-4.52.47-10.77,4.17-14.56,5.24s-12.91,7.2-12.66,8a67.92,67.92,0,0,0,10.32,18.94C870.76,405.45,893,366.29,893,366.29Z"/><path class="cls-46" d="M879.17,370.32s-6.92,5.12-9.32,9.8a37.87,37.87,0,0,0-3.23,10.28Z"/><path class="cls-18" d="M884.4,522.7a17.1,17.1,0,0,0,3.12,2.65c1.14.55,14.77,2.9,15.7,4s.93,5.49-2.59,5.49-15.24-.06-17.21,0-10.32,1.73-11.18,0-.77-9.79.75-11.72S884.4,522.7,884.4,522.7Z"/><path class="cls-47" d="M884,520.24l.42,2.46s-3.64,1.66-11.41.43V520.6Z"/><path class="cls-27" d="M904.92,361.57s-6.21,5.27-8,4.84S903,377.56,903,377.56s7.47-7.36,9.16-7.58S904.92,361.57,904.92,361.57Z"/><path class="cls-45" d="M905.34,382.39c-2.11,1.27-2.47,1.68-2.22,7.73s2.76,10.92,2.94,12.58,3.54,18.19,4.47,19.12,12-1.23,14.22-1.93c3.35-1,17.52-5.83,17.52-5.83l-3.11-6.5s-17.89,4-18.47,2.59-2-13.15-2.47-15.7.37-6.55-2.68-12.6C912.81,376.43,905.34,382.39,905.34,382.39Z"/><path class="cls-48" d="M884.36,427.87s3.8,4,4.86,5.35c7.26,9,17.15,25.46,18.38,28.34s-6.11,23.24-9.13,30.35c-1.58,3.73-12.05,29.43-11.72,30s-11.07,1-16.17-1.67c0,0,7.33-21.73,8.87-26,2.34-6.43,10.43-24.24,10.67-26s-13.07-16-17.52-18.69S857.3,437.25,856.07,436s-8.23-4.53-7.57-10.78,5.31-11.18,5.31-11.18Z"/><path class="cls-48" d="M864.43,443.34s-.69,1.83-1.67,4.38c-2.09,5.5-5.47,14.37-6,15.77-.82,2.06-4.94,10.94-6.91,12.67s-34.47,40.72-34.55,41.05-15.55-2.12-16.29-4.51c0,0,21-26.75,23.69-30.12s8.39-8.39,10.29-16.37,15.46-38.66,15.5-39.82c0,0,2.18-9.45,5.35-12.33s14.68.49,16.49,6.49S864.43,443.34,864.43,443.34Z"/><path class="cls-49" d="M896.39,366.35l2.62-1s6.62,1.52,10.45,6.83l-.33,1.58S899,371.54,896.39,366.35Z"/><path class="cls-50" d="M906.5,405a11.2,11.2,0,0,1-1.24,1.51c-.19.16-.41.35-.68.56h0l-.25-9.95s1.25,3.84,1.43,4.41S906.5,405,906.5,405Z"/><path class="cls-51" d="M864.43,443.34s-.69,1.83-1.67,4.38c-2.21-2.54-7.25-12.16-7.25-12.16.32.24,1.38,1.23,1.63,1.45S864.43,443.34,864.43,443.34Z"/><path class="cls-27" d="M920.94,358.91c.23-.76-.33-3.64-2.17-2s-1.83,5.32-.79,5.62S920.35,360.82,920.94,358.91Z"/><path class="cls-44" d="M914.06,342.73s-8.9-6.33-8.95,15.25Z"/><path class="cls-45" d="M906.5,405a11.2,11.2,0,0,1-1.24,1.51c-.19.16-.41.35-.68.56h0a103.35,103.35,0,0,1-10.75,7.33c-2.88,1.57-8.34,14.74-8.34,14.74s-25.76-1.74-31.68-15.06c0,0,4.19-9.38,8-14.93s12.21-25.55,16.66-28.38,8.26-4.69,17-4.44,13.62,7.19,13.62,7.19,6.66,7.16,7.32,10.94C917,387.7,909.78,400.4,906.5,405Z"/><path class="cls-30" d="M1002.93,164.46v13.81a17.87,17.87,0,0,1-17.86,17.87h-.88a17.87,17.87,0,0,1-17.86-17.87V164.46l-26.4-46h26Z"/><path class="cls-11" d="M893.21,164.46v13.81a17.87,17.87,0,0,1-17.86,17.87h-.88a17.87,17.87,0,0,1-17.86-17.87V164.46h-.19l5.29-46h26l5.29,46Z"/><path class="cls-30" d="M861.9,118.43l-5.29,46v13.81a17.87,17.87,0,0,1-17.86,17.87h-.88A17.87,17.87,0,0,1,820,178.27V164.46l15.87-46Z"/><path class="cls-11" d="M835.88,118.43l-15.87,46v13.81a17.87,17.87,0,0,1-17.86,17.87h-.88a17.87,17.87,0,0,1-17.86-17.87V164.46l26.44-46Z"/><path class="cls-30" d="M809.85,118.43l-26.44,46v13.81a17.88,17.88,0,0,1-17.87,17.87h-.87a17.88,17.88,0,0,1-17.87-17.87V164.46l37-46Z"/><path class="cls-11" d="M783.83,118.43l-37,46v13.81a17.87,17.87,0,0,1-17.86,17.87h-.88a17.87,17.87,0,0,1-17.86-17.87V164.46l47.6-46Z"/><path class="cls-11" d="M1039.54,164.46v13.81a17.88,17.88,0,0,1-17.87,17.87h-.87a17.88,17.88,0,0,1-17.87-17.87V164.46h-.18l-37.12-46h26l47.7,46Z"/><path class="cls-11" d="M966.41,164.46v13.81a17.87,17.87,0,0,1-17.86,17.87h-.88a17.88,17.88,0,0,1-17.86-17.87V164.46h-.18l-15.91-46h26l26.48,46Z"/><path class="cls-52" d="M856.42,164.46H893a0,0,0,0,1,0,0v13.81a17.86,17.86,0,0,1-17.86,17.86h-.88a17.86,17.86,0,0,1-17.86-17.86V164.46a0,0,0,0,1,0,0Z"/><path class="cls-52" d="M783.22,164.46h36.6a0,0,0,0,1,0,0v13.81A17.86,17.86,0,0,1,802,196.13h-.88a17.86,17.86,0,0,1-17.86-17.86V164.46A0,0,0,0,1,783.22,164.46Z"/><path class="cls-52" d="M1002.75,164.46h36.6a0,0,0,0,1,0,0v13.81a17.86,17.86,0,0,1-17.86,17.86h-.88a17.86,17.86,0,0,1-17.86-17.86V164.46A0,0,0,0,1,1002.75,164.46Z"/><path class="cls-52" d="M929.63,164.46h36.6a0,0,0,0,1,0,0v13.81a17.86,17.86,0,0,1-17.86,17.86h-.88a17.86,17.86,0,0,1-17.86-17.86V164.46A0,0,0,0,1,929.63,164.46Z"/><path class="cls-52" d="M710,164.46h36.6a0,0,0,0,1,0,0v13.81a17.86,17.86,0,0,1-17.86,17.86h-.88A17.86,17.86,0,0,1,710,178.27V164.46A0,0,0,0,1,710,164.46Z"/><path class="cls-30" d="M929.81,164.46v13.81A17.87,17.87,0,0,1,912,196.14h-.88a17.87,17.87,0,0,1-17.86-17.87V164.46l-5.33-46h26Z"/><g class="cls-52"><path d="M893,164.46h36.6a0,0,0,0,1,0,0v13.81a17.86,17.86,0,0,1-17.86,17.86h-.88A17.86,17.86,0,0,1,893,178.27V164.46A0,0,0,0,1,893,164.46Z"/><path d="M819.82,164.46h36.6a0,0,0,0,1,0,0v13.81a17.86,17.86,0,0,1-17.86,17.86h-.88a17.86,17.86,0,0,1-17.86-17.86V164.46A0,0,0,0,1,819.82,164.46Z"/><path d="M746.62,164.46h36.6a0,0,0,0,1,0,0v13.81a17.86,17.86,0,0,1-17.86,17.86h-.88a17.86,17.86,0,0,1-17.86-17.86V164.46a0,0,0,0,1,0,0Z"/><path d="M966.15,164.46h36.6a0,0,0,0,1,0,0v13.81a17.86,17.86,0,0,1-17.86,17.86H984a17.86,17.86,0,0,1-17.86-17.86V164.46a0,0,0,0,1,0,0Z"/></g><path class="cls-21" d="M963,333.75H934v-29h29Zm-28.09-.9h27.19V305.66H934.93Z"/><rect class="cls-21" x="948.08" y="312.25" width="0.9" height="14"/><rect class="cls-21" x="941.52" y="318.81" width="14" height="0.9"/><polygon class="cls-30" points="756.09 394.24 760.46 406.94 724.54 419.28 718.79 402.53 750.65 391.58 750.88 391.69 755.85 394.12 756.09 394.24"/><polygon class="cls-11" points="756.09 394.24 752.07 395.62 750.69 391.6 750.79 391.65 751.01 391.76 755.72 394.06 756.09 394.24"/><path class="cls-11" d="M743.21,403.5A4.09,4.09,0,1,1,738,401,4.09,4.09,0,0,1,743.21,403.5Z"/><path class="cls-11" d="M751.12,400.78a1.73,1.73,0,0,1-1.07,2.2,1.73,1.73,0,1,1,1.07-2.2Z"/><path class="cls-11" d="M727.56,408.88a1.73,1.73,0,1,1,2.2,1.07A1.73,1.73,0,0,1,727.56,408.88Z"/><polygon class="cls-30" points="747.38 369.31 736.08 376.57 715.55 344.62 730.45 335.05 748.66 363.39 748.61 363.64 747.43 369.05 747.38 369.31"/><polygon class="cls-11" points="747.38 369.31 745.08 365.74 748.65 363.44 748.63 363.55 748.58 363.79 747.47 368.91 747.38 369.31"/><path class="cls-11" d="M735.32,359a4.09,4.09,0,1,1,1.23-5.65A4.09,4.09,0,0,1,735.32,359Z"/><path class="cls-11" d="M739.84,366a1.73,1.73,0,1,1,.52-2.39A1.73,1.73,0,0,1,739.84,366Z"/><path class="cls-11" d="M726.38,345.08a1.73,1.73,0,1,1-.52,2.39A1.73,1.73,0,0,1,726.38,345.08Z"/><polygon class="cls-30" points="794.27 326.15 799.69 338.44 764.93 353.75 757.79 337.54 788.63 323.96 788.87 324.05 794.02 326.06 794.27 326.15"/><polygon class="cls-11" points="794.27 326.15 790.38 327.87 788.67 323.98 788.78 324.02 789 324.11 793.89 326 794.27 326.15"/><path class="cls-11" d="M782.21,336.46a4.09,4.09,0,1,1-5.39-2.09A4.09,4.09,0,0,1,782.21,336.46Z"/><path class="cls-11" d="M789.87,333.09a1.73,1.73,0,1,1-2.28-.89A1.74,1.74,0,0,1,789.87,333.09Z"/><path class="cls-11" d="M767.07,343.13a1.73,1.73,0,1,1,3.16-1.39,1.73,1.73,0,0,1-3.16,1.39Z"/><rect class="cls-53" x="831.46" y="105.8" width="82.33" height="4.09" rx="2.01" ry="2.01"/><ellipse class="cls-54" cx="675.63" cy="555.39" rx="53.6" ry="10.54"/><ellipse class="cls-54" cx="849.15" cy="531.83" rx="66.87" ry="10.54"/></g></svg>