<svg xmlns="http://www.w3.org/2000/svg" xmlns:xlink="http://www.w3.org/1999/xlink" viewBox="0 0 1191.59 595.79"><defs><style>.cls-1,.cls-45{fill:none;}.cls-2{fill:#231f20;}.cls-3{isolation:isolate;}.cls-4{clip-path:url(#clip-path);}.cls-10,.cls-11,.cls-17,.cls-5{fill:#d81942;}.cls-5{opacity:0.3;}.cls-6{fill:url(#Dégradé_sans_nom_10);}.cls-7{opacity:0.08;fill:url(#_10_6_ppp);}.cls-8{fill:url(#Dégradé_sans_nom_14);}.cls-9{clip-path:url(#clip-path-2);}.cls-10,.cls-12{opacity:0.32;}.cls-11,.cls-13{opacity:0.09;}.cls-12,.cls-13,.cls-28{fill:#1f936f;}.cls-14,.cls-29{fill:#006a4e;}.cls-14{opacity:0.19;}.cls-15{fill:#ffc5d4;}.cls-16{fill:#9b1235;}.cls-18{fill:#6b5c56;}.cls-19{fill:#2e5100;}.cls-20{fill:#fff;}.cls-21{fill:#957447;}.cls-22{fill:#e6a500;}.cls-23{fill:#036d3f;}.cls-24{fill:#035128;}.cls-25{fill:#5da07a;}.cls-26{fill:#fcc332;}.cls-27{fill:#5b4b43;}.cls-30{fill:#ffce00;}.cls-31{fill:#232323;}.cls-32{fill:#161616;}.cls-33{fill:#fcb500;}.cls-34{fill:#fc9700;}.cls-35{fill:#2b446d;}.cls-36{fill:#375ca5;}.cls-37{fill:#3c8f7c;}.cls-38{fill:#50bfa5;}.cls-39{fill:#514036;opacity:0.2;mix-blend-mode:multiply;}.cls-40{fill:#1a1a1a;}.cls-41{fill:#1b775f;}.cls-42{fill:#96d9c9;}.cls-43{fill:url(#Dégradé_sans_nom_10-2);}.cls-44{fill:url(#Dégradé_sans_nom_10-3);}.cls-45{stroke:#fff;stroke-linecap:round;stroke-linejoin:round;stroke-width:2px;}.cls-46{fill:url(#Dégradé_sans_nom_11);}.cls-47{fill:url(#Dégradé_sans_nom_19);}</style><clipPath id="clip-path"><rect class="cls-1" x="-11.05" y="-1181.38" width="2472.42" height="1080"/></clipPath><linearGradient id="Dégradé_sans_nom_10" x1="273.87" y1="-81.98" x2="969.88" y2="737.25" gradientUnits="userSpaceOnUse"><stop offset="0" stop-color="#fff"/><stop offset="1" stop-color="#e6e6e6"/></linearGradient><pattern id="_10_6_ppp" data-name="10 % 6 ppp" width="48" height="48" patternTransform="translate(417.68 -504.12)" patternUnits="userSpaceOnUse" viewBox="0 0 48 48"><rect class="cls-1" width="48" height="48"/><circle class="cls-2" cx="24" cy="48" r="1.2"/><circle class="cls-2" cx="48" cy="48" r="1.2"/><circle class="cls-2" cx="24" cy="24" r="1.2"/><circle class="cls-2" cx="48" cy="24" r="1.2"/><circle class="cls-2" cx="36" cy="36" r="1.2"/><circle class="cls-2" cx="12" cy="36" r="1.2"/><circle class="cls-2" cx="36" cy="12" r="1.2"/><circle class="cls-2" cx="12" cy="12" r="1.2"/><circle class="cls-2" cy="48" r="1.2"/><circle class="cls-2" cy="24" r="1.2" transform="translate(-23.69 20.16) rotate(-80.78)"/><circle class="cls-2" cx="24" r="1.2"/><circle class="cls-2" cx="48" r="1.2"/><circle class="cls-2" r="1.2" transform="translate(0 0) rotate(-80.78)"/></pattern><linearGradient id="Dégradé_sans_nom_14" x1="595.79" y1="595.79" x2="595.79" gradientUnits="userSpaceOnUse"><stop offset="0" stop-color="#fff"/><stop offset="1" stop-color="#fff" stop-opacity="0"/></linearGradient><clipPath id="clip-path-2"><rect class="cls-1" x="1.63" width="1189.96" height="595.79"/></clipPath><linearGradient id="Dégradé_sans_nom_10-2" x1="1103.72" y1="271.27" x2="1128.55" y2="264.18" xlink:href="#Dégradé_sans_nom_10"/><linearGradient id="Dégradé_sans_nom_10-3" x1="1102.65" y1="267.52" x2="1127.48" y2="260.44" xlink:href="#Dégradé_sans_nom_10"/><linearGradient id="Dégradé_sans_nom_11" x1="404.26" y1="588.54" x2="248.71" y2="473.28" gradientUnits="userSpaceOnUse"><stop offset="0" stop-color="#d81942"/><stop offset="1" stop-color="#de3e60"/></linearGradient><linearGradient id="Dégradé_sans_nom_19" x1="457.21" y1="9.21" x2="731.41" y2="53.2" gradientUnits="userSpaceOnUse"><stop offset="0" stop-color="#1f936f"/><stop offset="1" stop-color="#4aa88a"/></linearGradient></defs><title>banniere</title><g class="cls-3"><g id="Slide_3" data-name="Slide 3"><g class="cls-4"><path class="cls-5" d="M-68.62-296.88s59.7-37.85,102.67-41.66c47.33-4.2,54.66,21.56,41.33,61.92-17.69,53.55-43,105.21,34.23,73.21s126.2,48.75,82.32,109.21-13.09,63.46,12,69.46,64.38,15,54.74,50c0,0-421.63,22-420.63,19S-68.62-296.88-68.62-296.88Z"/></g><rect class="cls-6" x="1.63" width="1189.96" height="595.79"/><rect class="cls-7" x="1.63" width="1189.96" height="595.79"/><rect class="cls-8" width="1191.59" height="595.79"/><g class="cls-9"><path class="cls-10" d="M767.24-15.71S765.85,69,934.92,37.51c93.89-17.47,46.25,11,53.77,31.22s68-26.6,79.38-12.14,3.42,81.67,27.07,86.8,35.79-35.92,49.66-22,18.5,116.88,56.67,94l2.89-221.21Z"/><path class="cls-11" d="M1006,0s4.3,25.62,27.07,25-7.81,31.33-13.18,61.33,57.31-31.33,82.63-12.67,14.66,88.16,36.66,86.42,63.43-33,63.43-33V-21L1002.4-18.45Z"/><path class="cls-12" d="M-8.81,158.29s14.71,1.2,30-10c24.25-17.77-1.08-42.52,24.25-56.52s72.43,30.72,93.08,3.19C158,69.06,174.84,44.83,231,56.89S386.31,76,401.19,43.62C418.34,6.29,282.92-4.66,381.58-33,430.81-47.2,181.86-18.45,181.86-18.45L-30.81-23.71Z"/><path class="cls-13" d="M-11.48,84.29S9.84,86,20.52,97.62s32.67,26,66.67-18.66,52-6,99.33,2,38.67-26.67,36-54,41.34-37.34,41.34-37.34-284.67-33.33-288-32S-11.48,84.29-11.48,84.29Z"/></g><ellipse class="cls-14" cx="874.18" cy="495.33" rx="276.71" ry="28.45"/><rect class="cls-15" x="618.01" y="119.73" width="161.8" height="373.67" transform="translate(1397.83 613.12) rotate(180)"/><rect class="cls-16" x="716.13" y="97.92" width="10.61" height="395.59" transform="translate(1442.87 591.42) rotate(180)"/><path class="cls-17" d="M716.14,97.92c0,1,.07,395.42.07,395.42H618V119.74Z"/><path class="cls-16" d="M629.22,152.48l.48,104.43a10.16,10.16,0,0,1,1.23-.08,9.92,9.92,0,0,1,9.89,9.87L695.34,260a9.91,9.91,0,0,1,8.7-9.88l-.49-109.31a9.9,9.9,0,0,1-12-9.65l-54.52,11.59A9.9,9.9,0,0,1,629.22,152.48Zm3.82,2.7a13.82,13.82,0,0,0,7.47-9.28l48-10.21a13.77,13.77,0,0,0,11.2,9l.45,102.45a13.74,13.74,0,0,0-8.26,9.38l-48,5.91a13.79,13.79,0,0,0-10.46-9.21Z"/><path class="cls-16" d="M629.38,342.77l.22,124.47h0a9.9,9.9,0,0,1,9.91,9.89l14.25,0a9.91,9.91,0,0,1,9.89-9.91V341.51a8.38,8.38,0,0,1-.86,0,9.92,9.92,0,0,1-9.9-9.91l-14.47,1.24A9.91,9.91,0,0,1,629.38,342.77Zm3.82,3a13.9,13.9,0,0,0,8.59-9.38l7.93-.68a13.77,13.77,0,0,0,10.14,9.3V463.93a13.81,13.81,0,0,0-9.36,9.37h-7.7a13.78,13.78,0,0,0-9.39-9.35Z"/><path class="cls-16" d="M670,339.25v127.9h0a9.91,9.91,0,0,1,9.91,9.91l11.64,0a9.91,9.91,0,0,1,9.89-9.84l1-129a8.38,8.38,0,0,1-.86,0,9.92,9.92,0,0,1-9.9-10l-12.62,1.09A9.9,9.9,0,0,1,670,339.25Zm3.81,3.05a13.6,13.6,0,0,0,8.61-9.38l6-.52a13.79,13.79,0,0,0,10.13,9.37l-.93,122.16a13.81,13.81,0,0,0-9.35,9.3h-5.12a13.77,13.77,0,0,0-9.39-9.37Z"/><ellipse class="cls-16" cx="693.71" cy="295.84" rx="4" ry="7.76"/><path class="cls-16" d="M686,293.11v6.12h8.38a14,14,0,0,0,.39-3.33,13.76,13.76,0,0,0-.27-2.79Z"/><path class="cls-16" d="M680.18,295.84c0,6.46,2.7,11.7,6,11.7s6-5.24,6-11.7-2.71-11.7-6-11.7S680.18,289.38,680.18,295.84Z"/><ellipse class="cls-16" cx="684.59" cy="295.84" rx="6.03" ry="11.7"/><path class="cls-18" d="M1099.86,474.87s0,.38,0,1a13.24,13.24,0,0,1-3.31,9.1c-3.92,4.09-3.95,9.17.2,10s14-.28,14-.28,2.24-3.89.71-14.27-2.41-21.76-2.41-21.76l-11.27-1.76Z"/><path class="cls-19" d="M1097.65,479.28s-4.18,5.68-5.16,8-.76,8.26,0,8.87c6.77,5.34,19.59.53,19.59.53a75.79,75.79,0,0,0,1.32-8.72c.45-4.8.2-9.28-1.32-9.28s-1.79,2.52-5.26,1.81S1101.21,478.57,1097.65,479.28Z"/><path class="cls-20" d="M1113.14,490.39a45,45,0,0,1-9.44,2.68c-3.51.5-8.24-1.06-11.8-2.63-.19,2.52.08,5.34.59,5.75,6.77,5.34,19.59.53,19.59.53S1112.68,494,1113.14,490.39Z"/><path class="cls-21" d="M1113.14,490.39c-9.7,2.92-11.49,3.44-21.24.05a29.79,29.79,0,0,0,5.1,2.16,14.48,14.48,0,0,0,8.3.53A36,36,0,0,0,1113.14,490.39Z"/><path class="cls-18" d="M987.09,298.28c2.77,1,6.45,2.59,6.45,2.59.48-1.14-8.68-3.1-10-5.89-.69-1.49,10.51,4,11.28,3.35.33-.27-12.66-4.5-12.06-5.52.5-.86,13.65,3.78,13.73,3.13.1-.89-11.39-3.19-10.36-4.48.52-.65,14.47,3.12,16,3.34,1.84,0-4.82-4.53-2.55-5.13,3.08-.82,10.82,8.05,11.43,8.17,1.75.37,16.67,2.19,24-2.58,5.9-3.86,11.62-9.79,13-14.9s3.28-12.17,1.65-17.69a72.4,72.4,0,0,1,19.84-.43c.41,8.28-9.52,41.12-13.67,43.83-9.12,5.94-25.41,4.49-36.89,3.54-9.25-.76-18.31-2.58-26.65-6.81-1.86-.95-4.36-2-5.8-3.65A.54.54,0,0,1,987.09,298.28Z"/><path class="cls-22" d="M1053.81,234.86c-4.94,5.1-9.94,35.71-8.1,43,3.17,5.92,17.54,6.95,22.19,9.76,10.72-4.41,3.38-24.18,3.38-24.18l3.9-38.5A33.16,33.16,0,0,0,1053.81,234.86Z"/><path class="cls-18" d="M1067.33,468a11.76,11.76,0,0,1-3.73,12.7,20.11,20.11,0,0,1-4.5,2.78c-6.57,2.87-15.07,2.22-16.26,8.12s41.64-1.66,41.64-1.66-3-14.34-3.17-16.74.27-11.22.27-11.22L1065,460.82Z"/><path class="cls-19" d="M1082.74,479.82s.52,2.28,1.72,6.14a16.72,16.72,0,0,1,.45,7.5s-40.11,1.9-41.73.63-.79-5.9-.38-6.31,5.5-1.78,8.11-3.39,11.53-7.71,14.54-7.46,4.4,2.47,10.12,2.73S1081.32,478.71,1082.74,479.82Z"/><path class="cls-20" d="M1043.18,494.09c1.62,1.27,41.73-.63,41.73-.63a16.86,16.86,0,0,0,0-5.35c-20.94,3.88-42.15-.33-42.15-.33C1042.39,488.19,1041.56,492.82,1043.18,494.09Z"/><path class="cls-21" d="M1085,488.11a109.17,109.17,0,0,1-42.15-.33,146.53,146.53,0,0,0,38.22.87Z"/><path class="cls-23" d="M1115.93,329c6.88,25.17-1.66,138-1.66,138l-20.61-1.41S1089,353.39,1085.58,350a2.08,2.08,0,0,0-2.89-.12,4.43,4.43,0,0,0-1.7,2.39c-2.12,6.93-14.24,47.26-11.8,56.1,2.68,9.67,14.62,61.48,14.62,61.48l-17.29.69s-23.7-39.58-23.7-67.21,3.85-64.26,15-79.17c5.1-6.78,30.2-12,30.2-12S1113.78,321.18,1115.93,329Z"/><path class="cls-24" d="M1078.69,469.79s-11.93-55.24-14.61-65.55c-1.94-7.49,5.32-36.22,9.45-51.38a6.63,6.63,0,0,1,10.44-3.51h0s-17.45,49.34-14.78,59,14.62,61.48,14.62,61.48l-17.29.69-.13-.22Z"/><path class="cls-24" d="M1111.65,323.82c2.21,1.73,3.81,3.51,4.28,5.22,6.88,25.17-1.66,138-1.66,138l-5.11-.35C1109.45,462.66,1116.85,356.41,1111.65,323.82Z"/><path class="cls-24" d="M1053.91,330.9a39.12,39.12,0,0,1,4-6.75,11.19,11.19,0,0,1,2.52-2.29,77.13,77.13,0,0,0,12.3,4.74c16.51,5.08,34.32,2.37,41.72-.2a7.21,7.21,0,0,1,1.52,2.64,57.37,57.37,0,0,1,1.46,8.4c-3.7,2.75-25.17,9.39-44.7,3.17C1060.29,336.66,1055.67,334.27,1053.91,330.9Z"/><path class="cls-25" d="M1114.26,475.64c-5.28,1.71-18,1.28-21,0-2.8-1.19-3-11.6,0-12.16,4.2-.8,16.09-.71,21,0C1117.27,463.91,1117.15,474.7,1114.26,475.64Z"/><path class="cls-25" d="M1082.93,471c-5.28,1.71-18,1.28-21,0-2.8-1.19-3-11.6,0-12.16,4.2-.8,16.09-.71,21,0C1085.94,459.26,1085.82,470.05,1082.93,471Z"/><path class="cls-26" d="M1090.8,224.08s17.18-.88,24.2,7.44,6.45,95.74,3.61,98.18-27.26,9.8-46.65,4.06-20.63-13.61-20.63-13.61,5.16-58.79,5.16-74.86S1072.17,219.76,1090.8,224.08Z"/><path class="cls-22" d="M1106,312.63c1.52-4.22-.1-17.65-1.83-27.36-1.35.26-2.65.56-3.88.92-2.08-6.43-3.91-23.1-4-33.58-.11-19.67,9.84-25.39,9.84-25.39,2-.45,5.13,1.41,10.07,6.55,5.7,15.59,4.5,88.13,1.83,90.43-1.14,1-3.36,7.11-9.11,8.32C1107.41,326.66,1104.55,316.53,1106,312.63Z"/><path class="cls-22" d="M1092.28,224.26c3.73,3.42,4,3.49.15,8s-16.69,9.6-18.52,8.74c-4.53-2.14-.31-9.29,2.71-14.43C1077.56,224.94,1088.56,220.83,1092.28,224.26Z"/><path class="cls-18" d="M1075.63,211.31s-1,23.66,0,24.7,15.38-4,16.64-6.91-5.24-45.71-5.24-45.71Z"/><path class="cls-27" d="M1075.2,226.91c2.54-.45,4.73-1.1,5.37-1.83,5.86-6.62,1.47-17.37,1.93-20.17.92-5.56,2.79-10.16,1.85-15l-8.72,21.36S1075.27,219.87,1075.2,226.91Z"/><rect class="cls-28" x="958.01" y="239.69" width="80.99" height="61.11" rx="6.7" ry="6.7" transform="translate(1997 540.5) rotate(180)"/><path class="cls-29" d="M963.31,239.69h25.31V300.8H963.31c-2.93,0-5.3-3.79-5.3-8.46V248.16C958,243.48,960.38,239.69,963.31,239.69Z"/><rect class="cls-28" x="1092.5" y="330.66" width="53.91" height="36.21" rx="1.73" ry="1.73" transform="translate(2238.91 697.54) rotate(180)"/><rect class="cls-20" x="1094.56" y="334.83" width="45.66" height="27.87" transform="translate(2234.77 697.54) rotate(180)"/><rect class="cls-30" x="1091.35" y="340.8" width="4.81" height="15.94" rx="0.98" ry="0.98" transform="translate(2187.51 697.54) rotate(180)"/><path class="cls-18" d="M1110.1,312.63c-3.4,10.34,8.57,32.71,3.71,39.87s-2.42,14.68,3.47,18.4,13.21-1.49,12.62-4.33-2.18-10.48-2.9-14,13-31.47,3.33-48.43c-5.72-10.07,2.74-27.4-1.73-38.59-4,7.45-22.94,2.79-21.86,11C1108.47,283.54,1112,306.81,1110.1,312.63Z"/><path class="cls-18" d="M1067.19,186.78s-2.47,8.49-2.47,15.46.17,19,5.1,19,12-1.36,13.65-11.21,0-20.72-4.94-23.27S1067.19,186.78,1067.19,186.78Z"/><path class="cls-31" d="M1069.12,193.06a1.82,1.82,0,0,1,2.44,2.08c-.41,2.33-.31,4.88,1.87,5.41,4.19,1,6.17,0,6.86.71s-2,4.49,0,5.2,3-6.06,4.8-6.06,2.14,9.76,0,12,.31,5.2,3.13,5.2-.36,3.54,3.44,4.72,6.84,1.18,8.06-3.62,0-7.48,0-7.48,3.89-4.54,2.9-9c-.55-2.49-3.07-7-3.07-7a65,65,0,0,1-2.49-8.39c-.54-3.07-8.09-6.14-13.27-6.69s-2.58-3.7-6.93-3.7-4.94,5.73-4.94,5.73-6.2-3.7-6.49-3.53c-3.61,2.2-.61,6.06-.61,6.06s-3,.32-3.58,4.18,1.9,6.21,5.87,4.95C1067.86,193.55,1068.52,193.3,1069.12,193.06Z"/><path class="cls-32" d="M1064.82,179a21.87,21.87,0,0,1,3,.71c1.86,1,4.12,2.38,4.12,2.38a102.57,102.57,0,0,1,12.74,4.48,144.52,144.52,0,0,1,14.65,7.92l.24.65s.93,1.65,1.78,3.51c-3.68-.81-10.88-3.58-18.9-7.4C1073.37,187,1064.31,179.46,1064.82,179Z"/><path class="cls-18" d="M1082.34,199.87s2.1-3.86,4-1.71.89,11.26-2,11.26S1081.32,202.31,1082.34,199.87Z"/><path class="cls-26" d="M1105.58,227.41s-5.84,4.44-5.73,24.11c.05,10.48,3.13,28.24,5,34.67,7.87-2.49,19-2.65,27,0,1.08-8.58-1.1-26.89-2.47-32.8C1126.06,238.84,1113.93,224.08,1105.58,227.41Z"/><path class="cls-33" d="M1070.22,180.05A16.51,16.51,0,0,1,1100,194.26c-.15.31-.31.61-.48.91L1069.81,181C1069.94,180.68,1070.07,180.37,1070.22,180.05Z"/><path class="cls-26" d="M1076.4,183.77c.13-.32.27-.63.42-1a16.38,16.38,0,0,1,17.77-9,17.17,17.17,0,0,0-2.43-1.42,16.44,16.44,0,0,0-21.94,7.66c-.15.32-.28.63-.41.95l29.74,14.17C1099.6,195.08,1076.4,183.77,1076.4,183.77Z"/><path class="cls-34" d="M1056.53,175.08c.32-.67,15.8,5.65,25.7,10.36s17.67,9.09,17.35,9.75-16.73-3.19-26.63-7.91S1056.21,175.74,1056.53,175.08Z"/><path class="cls-27" d="M763.77,467.59s-3.5,3.46-3.58,4.73-.31,14.88,1.12,16.15,5.63,2.17,4.28,3.6c-1,1.08-8.87.85-14.06.56-1.52-.09-3.42-12.36-4-14.16-.87-2.62-3.63-9.21-2.83-11,.38-.89,2.87-2,5.48-3.73s5.36-5.8,5.36-5.8Z"/><path class="cls-27" d="M810.58,476.09s-3.13,9-3.13,9a62.82,62.82,0,0,0-1.15,6.22c0,4.85,21.58-4.11,16.74-6.26a5.22,5.22,0,0,1-1.95-3.4c-.22-2.55,1.82-5.74,1.82-5.74Z"/><path class="cls-35" d="M808.79,316.22l-11.18,13-11,68.21-34.48,63.62s5.18,8,10.75,9.22l49-64.31,26.52-80.51-.93-17.88Z"/><path class="cls-36" d="M836.76,303.64l7.72,23.82s6.8,71,5.83,75.85c-2.36,11.92-26.2,76.86-26.2,76.86l-15.27-1.95,16.76-76.77-27.93-72.13Z"/><path class="cls-27" d="M910.91,222.55c-3.61,4-2.83,4.46-3.3,5s-11.05,2.82-11.05,2.82-30.84,6.8-32.52,7.1l-32-7.27-7.79,15.5s35,7,36.89,7,42.5-14.23,46.12-15.37c0,0,4.81.32,7.83.41s5.92-1.23,6.78-1.34a25.34,25.34,0,0,0,6.24-2.19c2.83-1.41-.49-1.43-.49-1.43s-5.72,1.61-5.77,1.12,3.14-1.07,6.29-2.6l2.35-1.14c1.92-1,1.89-2.47-.28-1.8a20.84,20.84,0,0,0-2.88,1.09,15.71,15.71,0,0,1-2.76.85,23.06,23.06,0,0,1-2.85.87c0-.11-.39-.25.46-.69,1-.54,3.44-1.17,4.88-2.07.81-.52,2.59-1.48,2.59-1.48s3-1.94,2.66-2.34c-.63-.87-2.69,0-3.71.87a14,14,0,0,0-2.76,1.26s-4.19,1.29-4.38.67c-.07-.24,2.09-1.5,4.24-3s3.85-2.84,3.63-3.35c-.34-.8-2.26.32-2.26.32s-1.7,1-2.29,1.28-2.82,1.16-2.82,1.16-7.58,2.54-7.71,1.94a4.09,4.09,0,0,1,.53-2.61c.41-.32,1.48-.5,1.9-.83s1.24-1.12.88-1.69-3.5.2-3.5.2A8.28,8.28,0,0,0,910.91,222.55Z"/><path class="cls-37" d="M843,231.8s-1.1,6.8-1.81,9.31c-.58,2.09-4.72,10.69-4.72,10.69s-14.84-4.87-21.85-7.65c-8.51-3.38-18.34-10.65-17.7-11.57,1.79-2.58,4.68-5.59,8.76-6.61C819.81,222.44,843,231.8,843,231.8Z"/><path class="cls-38" d="M844.73,327c-14.16,5.59-47.43,2.36-47.43,2.36s2.11-14.53,2.86-24.34-5.5-25.33-8.14-52.27c-.56-5.71,1.68-21.14,9.68-26a13.21,13.21,0,0,1,4.54-1.92c.08,0,11-2.24,16.61-.52,1.58,1.42,6.53,5.5,9.38,10.28a94.13,94.13,0,0,1,7.53,16c3.22,10.69,4.59,41.62,4.59,47.45S844.73,327,844.73,327Z"/><path class="cls-27" d="M832.23,234.57h0c-5.44,1.69-26-9.71-26-9.71v-.06l2.49-16.27s12.81-3,12.06,1.61S822.53,224,822.53,224a3.4,3.4,0,0,0,.32.29C824.43,225.71,829.38,229.79,832.23,234.57Z"/><path class="cls-39" d="M820.79,210.14c.74-4.62-12.06-1.6-12.06-1.6l-.21,1.35a7.39,7.39,0,0,0,1.39,2.28,16.9,16.9,0,0,0,11.2,5A24.77,24.77,0,0,1,820.79,210.14Z"/><path class="cls-27" d="M806.25,183.52c-.39-.14-3.14,20.14,2.08,25.72s15.39,7.41,19,3c4-4.86,3.83-26.66-4.28-32.4S806.25,183.52,806.25,183.52Z"/><path class="cls-40" d="M820,169a22.47,22.47,0,0,0-11.83,6.71c-2.85.33-6.72,1.89-10.72,8.47-4.92,8.09-1.29,17,4.43,21.44s5.66,9.5,5.66,9.5,9.7-5,8.76-12.64c-.4-3.22-1.79-3.95-.75-6.47s.28-6.68.48-10.21l.58-2.23s4.06-3.14,8-2.25S828.05,167.37,820,169Z"/><path class="cls-39" d="M817.14,198.12c.05,2.48-.46,4.46-1.9,4.48s-1.84-.94-3-4.43c-1.12-3.28.24-4.5,1.68-4.53S817.1,195.65,817.14,198.12Z"/><path class="cls-41" d="M750.31,463.61s7.31,22.45,10.47,23.56c.84.3,5.62,1.61,6.38,3.41,0,.05,0,.1,0,.16a1.87,1.87,0,0,1-1.88,2.2h-15s-2.13-10.14-3-14.6c0,0-4.45-10.88-4-11.87S750.31,463.61,750.31,463.61Z"/><path class="cls-41" d="M805.07,492.9l2.47-7.91s5.19,2.23,7.79,1.85A78.27,78.27,0,0,0,823,485c10.36,3.46,18.85,5.13,17.31,7.91H805.07Z"/><path class="cls-27" d="M911.8,256.83a27.35,27.35,0,0,0-5.11,3.59c-.73.42-12.06-.08-12.06-.08s-33.4-1.24-35.2-1.37L828.63,244l-12.14,12.82s34,15.38,35.89,15.88,47.33-2.92,51.33-3.1c0,0,4.84,1.5,7.91,2.35s6.39.31,7.3.42a29,29,0,0,0,7-.52c3.29-.63-.11-1.49-.11-1.49s-6.29.11-6.21-.38,3.5-.23,7.14-.89l2.71-.51c2.22-.43,2.6-1.87.2-1.78a22.87,22.87,0,0,0-3.24.32,20.25,20.25,0,0,1-3.06.12,26.47,26.47,0,0,1-3.05.11c.05-.1-.43-.33.56-.54,1.19-.26,3.83-.25,5.55-.76,1-.28,3-.76,3-.76a17.27,17.27,0,0,0,2.44-1.66c-.09-1.06-1.85-.56-3.12,0a15.55,15.55,0,0,0-3.16.51s-4.64.18-4.67-.45c0-.25,2.67-.43,5.42-1.3,3.16-1,3.94-2.42,3.85-3-.14-.86-1.91-.06-1.91-.06a28.19,28.19,0,0,1-3.12,1.24c-.79.14-11.2.33-11.18-.28s1-1.39,1.55-1.6,1.48-.49,2-.7a1.81,1.81,0,0,0,.66-1.9c-.21-.63-2.48-.29-2.48-.29A10.48,10.48,0,0,0,911.8,256.83Z"/><path class="cls-42" d="M825.61,270.59s6.06-7.64,8.17-10.74a133.18,133.18,0,0,0,7.54-12.78s-16.89-9.72-23.18-13c-23.1-12.17-22.56,6-21.49,10C799.05,253.05,825.61,270.59,825.61,270.59Z"/><path class="cls-39" d="M911.3,231c2-1.14,3.54-2.93,3-5.17C916.05,227.59,913.89,230.87,911.3,231Z"/><polyline class="cls-17" points="1016.13 239.69 1016.13 300.81 1009.08 300.81 1009.08 239.69 1016.13 239.69"/><rect class="cls-17" x="970.86" y="239.69" width="4.9" height="61.11"/><path class="cls-28" d="M97.4,152.82a23.83,23.83,0,0,1,19.71,9.43q7.44,9.44,5.12,22.61A35.81,35.81,0,0,1,110,206.62a35.06,35.06,0,0,1-23.5,8.5H61.53l11-62.3Zm11.12,30.7q1.42-7.92-2.31-12.46T95,166.52H84.32l-6.15,34.89H88a19.89,19.89,0,0,0,13.53-4.89A21.63,21.63,0,0,0,108.52,183.52Z"/><path class="cls-28" d="M152.93,169.37q9.88,0,15.71,6.77t4,16.73a25.51,25.51,0,0,1-1.42,5.34H139.32q1,6.22,9.16,6.23a13.23,13.23,0,0,0,9.35-3.47l9.34,7.65q-7.65,7.74-19.58,7.74-11.29,0-17.13-7T126.32,192a25.91,25.91,0,0,1,9.08-16.16A26.21,26.21,0,0,1,152.93,169.37Zm-11.74,18.69h18.86q-.62-6.85-8-6.85T141.19,188.06Zm31.41-35.69-12.1,12.46H147.33l8.9-12.46Z"/><path class="cls-28" d="M192.27,216.36q-13.8,0-18.78-10.94l12-6.06q2,5.08,7.92,5.08,4.53,0,4.89-2.32c.18-.94-.47-1.75-2-2.4a41.72,41.72,0,0,0-5.43-1.87,40.79,40.79,0,0,1-6.27-2.31,10.56,10.56,0,0,1-4.85-4.67,11.93,11.93,0,0,1-.89-8.06,14.17,14.17,0,0,1,3.83-7.65,17.45,17.45,0,0,1,6.85-4.45,24.14,24.14,0,0,1,8-1.34A20.75,20.75,0,0,1,208,171.91a15.78,15.78,0,0,1,6.63,7l-12,6a5.78,5.78,0,0,0-5.78-3.92q-4,0-4.54,2.76c-.24,1.19.37,2.11,1.82,2.76a31.12,31.12,0,0,0,5.39,1.74,41.14,41.14,0,0,1,6.32,2,9.81,9.81,0,0,1,4.89,4.54q1.78,3.25.89,8.32a14.17,14.17,0,0,1-6.49,10A24,24,0,0,1,192.27,216.36Z"/><path class="cls-28" d="M216.57,215.12l7.83-44.5h13.35l-7.83,44.5ZM238,164.34a9,9,0,0,1-6.1,2.36,6.41,6.41,0,0,1-5.29-2.36,6.79,6.79,0,0,1-1.38-5.65,9.47,9.47,0,0,1,3.25-5.61,8.86,8.86,0,0,1,6-2.4,6.61,6.61,0,0,1,5.3,2.36,6.67,6.67,0,0,1,1.47,5.65A9.31,9.31,0,0,1,238,164.34Z"/><path class="cls-28" d="M259.46,178.63a14,14,0,0,1,6-6.63,17.82,17.82,0,0,1,9-2.27l-2.59,15.13a16.35,16.35,0,0,0-5.91.18,12.37,12.37,0,0,0-5.79,3.16,11.34,11.34,0,0,0-3.51,6.8l.08-.53-3.64,20.65H239.71l7.83-44.5h13.35Z"/><path class="cls-28" d="M299.87,169.37q9.87,0,15.71,6.77t4,16.73a24.92,24.92,0,0,1-1.43,5.34H286.25q1,6.22,9.17,6.23a13.2,13.2,0,0,0,9.34-3.47l9.35,7.65q-7.67,7.74-19.58,7.74-11.31,0-17.13-7T273.26,192a25.86,25.86,0,0,1,9.08-16.16A26.19,26.19,0,0,1,299.87,169.37Zm-11.75,18.69H307q-.63-6.85-8-6.85T288.12,188.06Z"/><path class="cls-28" d="M361.72,170.62l-1.51,8.9-20.38,23.14H357l-2.23,12.46h-35.6l1.6-8.9,20.29-23.14H325.68l2.22-12.46Z"/><path class="cls-28" d="M417.7,170.62h14.78l-23.86,44.5H395.27l-8.18-44.5h13.7l3.74,27.23Z"/><path class="cls-28" d="M450.28,216.36q-7.83,0-13-3.87A18.43,18.43,0,0,1,430.3,203a23.88,23.88,0,0,1-.49-11.88,27.32,27.32,0,0,1,9-15.44q7.11-6.28,17.71-6.28t16.11,7.7a22.07,22.07,0,0,1,3.73,17.22,26.5,26.5,0,0,1-9,15.53A25,25,0,0,1,450.28,216.36Zm-5.7-15.88a7.79,7.79,0,0,0,6.59,2.89,11.58,11.58,0,0,0,7.74-2.89,12.41,12.41,0,0,0,4.18-7.61c.6-3.15.11-5.68-1.47-7.61a8.16,8.16,0,0,0-6.72-2.89,11,11,0,0,0-7.6,2.89,13.05,13.05,0,0,0-4.14,7.61C442.62,196,443.1,198.55,444.58,200.48Z"/><path class="cls-28" d="M516.58,170.62h13.35l-7.83,44.5H508.75l.71-4.19q-4.89,5.43-13.08,5.43-7.22,0-11.35-4.94t-2.62-13.48l4.8-27.32h13.35L496.11,196q-.71,4.1,1.11,6.1a6.84,6.84,0,0,0,5.3,2,9.56,9.56,0,0,0,6.19-2.13,10.87,10.87,0,0,0,3.51-6.5Z"/><path class="cls-28" d="M548.8,216.36q-13.8,0-18.78-10.94l12-6.06q2,5.08,7.92,5.08,4.53,0,4.89-2.32c.18-.94-.47-1.75-2-2.4a41.72,41.72,0,0,0-5.43-1.87,40.79,40.79,0,0,1-6.27-2.31,10.56,10.56,0,0,1-4.85-4.67,11.93,11.93,0,0,1-.89-8.06,14.17,14.17,0,0,1,3.83-7.65,17.45,17.45,0,0,1,6.85-4.45,24.14,24.14,0,0,1,8-1.34,20.75,20.75,0,0,1,10.37,2.54,15.78,15.78,0,0,1,6.63,7l-12,6a5.78,5.78,0,0,0-5.78-3.92q-4,0-4.54,2.76c-.24,1.19.37,2.11,1.82,2.76A31.12,31.12,0,0,0,556,188.2a41.14,41.14,0,0,1,6.32,2,9.85,9.85,0,0,1,4.89,4.54c1.19,2.17,1.48,4.94.89,8.32a14.17,14.17,0,0,1-6.49,10A24,24,0,0,1,548.8,216.36Z"/><path class="cls-28" d="M77.2,269.78l-2,11.46c-.26,1.34.1,2.18,1.1,2.53a14.5,14.5,0,0,0,5.11.26l-1.55,8.8q-8.69,1-12.14-1.87t-2.24-9.72l2-11.46H62.31L64,260.45h5.12l1.1-6.15,10.23-2.92-1.62,9.07h6.74l-1.68,9.33Z"/><path class="cls-28" d="M100.39,266.28a10.2,10.2,0,0,1,4.34-4.82,12.93,12.93,0,0,1,6.54-1.66l-1.88,11a12.27,12.27,0,0,0-4.31.13,9.17,9.17,0,0,0-4.2,2.3,8.24,8.24,0,0,0-2.56,5l.06-.39-2.65,15H86l5.7-32.38h9.72Z"/><path class="cls-28" d="M138.28,260.45H148l-5.7,32.38h-9.71l.38-2.2q-3.69,3.11-9.71,3.11-7.45,0-10.82-5.41a16.76,16.76,0,0,1-2-12.46,21.22,21.22,0,0,1,6.12-11.5,16.51,16.51,0,0,1,12.08-4.83c4.05,0,7.08,1.45,9.06,4.34Zm-17,22a6.24,6.24,0,0,0,5.12,2.13,8.86,8.86,0,0,0,5.89-2.13,9.45,9.45,0,0,0,3.18-5.7v-.07a6.74,6.74,0,0,0-1.14-5.76,6.31,6.31,0,0,0-5.15-2.14,8.7,8.7,0,0,0-5.86,2.14,9.52,9.52,0,0,0-3.14,5.76A6.87,6.87,0,0,0,121.24,282.41Z"/><path class="cls-28" d="M173.18,260.45h10.75l-17.35,32.38h-9.72l-6-32.38h10l2.72,19.82Z"/><path class="cls-28" d="M209.71,260.45h9.71l-5.7,32.38H204l.39-2.2q-3.69,3.11-9.72,3.11-7.44,0-10.81-5.41a16.72,16.72,0,0,1-2-12.46,21.22,21.22,0,0,1,6.12-11.5,16.52,16.52,0,0,1,12.08-4.83q6.09,0,9.07,4.34Zm-17,22a6.22,6.22,0,0,0,5.11,2.13,8.88,8.88,0,0,0,5.9-2.13,9.44,9.44,0,0,0,3.17-5.7v-.07a6.78,6.78,0,0,0-1.13-5.76,6.32,6.32,0,0,0-5.15-2.14,8.68,8.68,0,0,0-5.86,2.14,9.47,9.47,0,0,0-3.14,5.76A6.8,6.8,0,0,0,192.68,282.41Z"/><path class="cls-28" d="M220.85,292.83l5.7-32.38h9.71l-5.7,32.38Zm15.57-36.94A6.58,6.58,0,0,1,232,257.6a4.71,4.71,0,0,1-3.86-1.71,5,5,0,0,1-1-4.12,6.94,6.94,0,0,1,2.36-4.08,6.49,6.49,0,0,1,4.37-1.75,4.89,4.89,0,0,1,4.93,5.83A6.8,6.8,0,0,1,236.42,255.89Z"/><path class="cls-28" d="M237.75,292.83l3.63-20.66L246,245.56h9.71L251,272.63l-3.57,20.2Z"/><path class="cls-28" d="M254.65,292.83l3.63-20.66,4.66-26.61h9.72l-4.73,27.07-3.56,20.2Z"/><path class="cls-28" d="M292.21,259.54a14.31,14.31,0,0,1,11.43,4.93q4.25,4.92,2.89,12.17a18.36,18.36,0,0,1-1,3.89H282.31q.7,4.53,6.67,4.53a9.63,9.63,0,0,0,6.8-2.52l6.8,5.57a19.22,19.22,0,0,1-14.25,5.63q-8.24,0-12.47-5.12t-3-12.62a18.8,18.8,0,0,1,6.61-11.76A19,19,0,0,1,292.21,259.54Zm-8.54,13.61H297.4q-.47-5-5.83-5A8.31,8.31,0,0,0,283.67,273.15Z"/><path class="cls-28" d="M337.22,260.45l-1.1,6.48-14.83,16.84h12.5l-1.62,9.06h-25.9l1.16-6.47,14.77-16.84H311l1.61-9.07Z"/><path class="cls-28" d="M370,293.74q-7.69,0-12-5.12T354.9,276a19.4,19.4,0,0,1,19.3-16.46,15.6,15.6,0,0,1,8.62,2.3A13.45,13.45,0,0,1,388,268l-8.87,4.67q-1.5-3.5-5.77-3.5a8.78,8.78,0,0,0-8.74,7.38,6.54,6.54,0,0,0,1.16,5.48,6,6,0,0,0,4.93,2.17,7.93,7.93,0,0,0,6.73-3.63l7.84,5a16,16,0,0,1-6.54,6.15A19.08,19.08,0,0,1,370,293.74Z"/><path class="cls-28" d="M403.61,293.74a15.45,15.45,0,0,1-9.49-2.82,13.39,13.39,0,0,1-5.05-6.93,17.34,17.34,0,0,1-.36-8.64,20,20,0,0,1,6.54-11.24,18.82,18.82,0,0,1,12.89-4.57q7.77,0,11.72,5.61a16.06,16.06,0,0,1,2.72,12.53A19.38,19.38,0,0,1,416,289,18.2,18.2,0,0,1,403.61,293.74Zm-4.15-11.56a5.68,5.68,0,0,0,4.79,2.1,8.44,8.44,0,0,0,5.64-2.1,9,9,0,0,0,3-5.54,6.44,6.44,0,0,0-1.07-5.53A5.92,5.92,0,0,0,407,269a8,8,0,0,0-5.53,2.11,9.53,9.53,0,0,0-3,5.53A6.88,6.88,0,0,0,399.46,282.18Z"/><path class="cls-28" d="M467.2,259.54q5.64,0,8.49,3.73T477.5,273L474,292.83h-9.71l3.3-19a5.24,5.24,0,0,0-.48-3.88,3.56,3.56,0,0,0-3.21-1.43c-3.2,0-5.2,1.88-6,5.64l-3.31,18.71h-9.71l3.3-19a5.24,5.24,0,0,0-.48-3.88,3.56,3.56,0,0,0-3.21-1.43q-4.79,0-6,5.51l-3.3,18.84h-9.72l5.7-32.38h9.71l-.51,2.92a11.38,11.38,0,0,1,9-3.83q5.76,0,7.9,4.41A12.94,12.94,0,0,1,467.2,259.54Z"/><path class="cls-28" d="M522.25,259.54q5.64,0,8.49,3.73t1.81,9.68l-3.5,19.88h-9.71l3.3-19a5.19,5.19,0,0,0-.49-3.88,3.53,3.53,0,0,0-3.2-1.43c-3.2,0-5.2,1.88-6,5.64l-3.31,18.71h-9.71l3.3-19a5.24,5.24,0,0,0-.48-3.88,3.56,3.56,0,0,0-3.21-1.43c-3.2,0-5.2,1.84-6,5.51l-3.31,18.84h-9.71l5.7-32.38h9.71l-.52,2.92a11.42,11.42,0,0,1,9-3.83q5.76,0,7.9,4.41A12.93,12.93,0,0,1,522.25,259.54Z"/><path class="cls-28" d="M556.25,259.54a14.33,14.33,0,0,1,11.43,4.93q4.25,4.92,2.88,12.17a18.36,18.36,0,0,1-1,3.89H546.34q.72,4.53,6.67,4.53a9.62,9.62,0,0,0,6.8-2.52l6.8,5.57a19.18,19.18,0,0,1-14.24,5.63q-8.24,0-12.47-5.12t-3-12.62a18.79,18.79,0,0,1,6.6-11.76A19.09,19.09,0,0,1,556.25,259.54Zm-8.55,13.61h13.73q-.45-5-5.83-5A8.33,8.33,0,0,0,547.7,273.15Z"/><path class="cls-28" d="M60.88,370.55l3.63-20.66,4.66-26.62h9.72l-4.73,27.07L70.6,370.55Z"/><path class="cls-28" d="M77.72,370.55l5.7-32.38h9.72l-5.7,32.38ZM93.3,333.6a6.58,6.58,0,0,1-4.44,1.72A4.67,4.67,0,0,1,85,333.6a5,5,0,0,1-1-4.11,6.9,6.9,0,0,1,2.37-4.08,6.41,6.41,0,0,1,4.37-1.75,4.78,4.78,0,0,1,3.85,1.72,4.85,4.85,0,0,1,1.07,4.11A6.78,6.78,0,0,1,93.3,333.6Z"/><path class="cls-28" d="M118.33,338.17h10.75l-17.36,32.38H102l-6-32.38h10L108.74,358Z"/><path class="cls-28" d="M141.32,344a10.18,10.18,0,0,1,4.34-4.83,13,13,0,0,1,6.54-1.65l-1.88,11a12,12,0,0,0-4.31.13,9,9,0,0,0-4.2,2.3,8.19,8.19,0,0,0-2.56,5l.06-.39-2.65,15h-9.72l5.7-32.38h9.72Z"/><path class="cls-28" d="M170.72,337.26a14.33,14.33,0,0,1,11.43,4.92c2.83,3.29,3.79,7.34,2.88,12.18a18.11,18.11,0,0,1-1,3.88H160.81q.72,4.54,6.67,4.54a9.58,9.58,0,0,0,6.8-2.53l6.8,5.57a19.15,19.15,0,0,1-14.24,5.64q-8.24,0-12.47-5.12t-3-12.63A18.79,18.79,0,0,1,158,342,19.07,19.07,0,0,1,170.72,337.26Zm-8.55,13.6H175.9c-.3-3.32-2.24-5-5.83-5A8.34,8.34,0,0,0,162.17,350.86Z"/><path class="cls-28" d="M214.11,338.17h9.72l-5.7,32.38h-9.72l.52-3a12.2,12.2,0,0,1-9.52,3.95,10.2,10.2,0,0,1-8.26-3.6q-3-3.58-1.91-9.81l3.5-19.88h9.71l-3.23,18.46q-.53,3,.81,4.43a5,5,0,0,0,3.85,1.46,6.88,6.88,0,0,0,4.5-1.56,7.86,7.86,0,0,0,2.56-4.72Z"/><path class="cls-28" d="M239.63,344a10.13,10.13,0,0,1,4.34-4.83,13,13,0,0,1,6.54-1.65l-1.88,11a12,12,0,0,0-4.31.13,9.11,9.11,0,0,0-4.21,2.3,8.3,8.3,0,0,0-2.56,5l.07-.39-2.66,15h-9.71l5.7-32.38h9.71Z"/><path class="cls-28" d="M294.68,338.17h9.71l-5.7,32.38H289l.38-2.2q-3.69,3.11-9.71,3.11-7.45,0-10.82-5.41a16.79,16.79,0,0,1-2-12.47A21.19,21.19,0,0,1,273,342.09,16.51,16.51,0,0,1,285,337.26c4.05,0,7.08,1.45,9.06,4.34Zm-17,21.95a6.22,6.22,0,0,0,5.12,2.14,8.81,8.81,0,0,0,5.89-2.14,9.39,9.39,0,0,0,3.18-5.7v-.06q.65-3.63-1.14-5.76a6.31,6.31,0,0,0-5.15-2.14,8.7,8.7,0,0,0-5.86,2.14,9.49,9.49,0,0,0-3.14,5.76Q275.9,358,277.64,360.12Z"/><path class="cls-28" d="M332.24,338.17H342l-5.7,32.38h-9.71l.52-3a12.21,12.21,0,0,1-9.52,3.95,10.2,10.2,0,0,1-8.26-3.6q-3-3.58-1.91-9.81l3.5-19.88h9.71l-3.24,18.46q-.51,3,.81,4.43a5,5,0,0,0,3.85,1.46,6.93,6.93,0,0,0,4.51-1.56,7.85,7.85,0,0,0,2.55-4.72Z"/><path class="cls-28" d="M359.76,347.49l-2,11.47c-.26,1.34.11,2.18,1.1,2.52a14.09,14.09,0,0,0,5.12.26l-1.55,8.81q-8.69,1-12.15-1.88T348,359l2-11.47h-5.18l1.68-9.32h5.12l1.1-6.15L363,329.1l-1.62,9.07h6.74l-1.69,9.32Z"/><path class="cls-28" d="M383.66,371.46a15.47,15.47,0,0,1-9.49-2.82,13.49,13.49,0,0,1-5.05-6.93,17.49,17.49,0,0,1-.36-8.65,20,20,0,0,1,6.54-11.23,18.77,18.77,0,0,1,12.89-4.57q7.77,0,11.72,5.6a16.05,16.05,0,0,1,2.72,12.54,19.3,19.3,0,0,1-6.54,11.3A18.2,18.2,0,0,1,383.66,371.46Zm-4.15-11.56a5.69,5.69,0,0,0,4.8,2.1,8.43,8.43,0,0,0,5.63-2.1,9,9,0,0,0,3-5.54,6.47,6.47,0,0,0-1.06-5.54,6,6,0,0,0-4.89-2.1,8.06,8.06,0,0,0-5.54,2.1,9.52,9.52,0,0,0-3,5.54A6.85,6.85,0,0,0,379.51,359.9Z"/><path class="cls-28" d="M429.9,337.26a10.2,10.2,0,0,1,8.26,3.6q3,3.58,1.91,9.81l-3.5,19.88h-9.71l3.23-18.46q.53-3-.81-4.43a4.91,4.91,0,0,0-3.85-1.46,6.93,6.93,0,0,0-4.5,1.55,7.92,7.92,0,0,0-2.56,4.73l-3.17,18.07h-9.72l5.7-32.38h9.72l-.52,3A12.2,12.2,0,0,1,429.9,337.26Z"/><path class="cls-28" d="M459.43,371.46a15.47,15.47,0,0,1-9.49-2.82,13.49,13.49,0,0,1-5.05-6.93,17.37,17.37,0,0,1-.35-8.65,19.85,19.85,0,0,1,6.54-11.23A18.75,18.75,0,0,1,464,337.26c5.19,0,9.09,1.87,11.73,5.6a16.09,16.09,0,0,1,2.72,12.54,19.41,19.41,0,0,1-6.54,11.3A18.23,18.23,0,0,1,459.43,371.46Zm-4.14-11.56a5.66,5.66,0,0,0,4.79,2.1,8.43,8.43,0,0,0,5.63-2.1,9.06,9.06,0,0,0,3.05-5.54,6.5,6.5,0,0,0-1.07-5.54,6,6,0,0,0-4.89-2.1,8.08,8.08,0,0,0-5.54,2.1,9.52,9.52,0,0,0-3,5.54A6.85,6.85,0,0,0,455.29,359.9Z"/><path class="cls-28" d="M523,337.26q5.63,0,8.48,3.73t1.82,9.68l-3.5,19.88h-9.72l3.31-19a5.21,5.21,0,0,0-.49-3.89,3.55,3.55,0,0,0-3.21-1.42q-4.79,0-6,5.63l-3.3,18.72h-9.72l3.31-19a5.21,5.21,0,0,0-.49-3.89,3.53,3.53,0,0,0-3.2-1.42q-4.8,0-6,5.5L491,370.55h-9.71L487,338.17h9.72l-.52,2.91a11.44,11.44,0,0,1,9-3.82q5.78,0,7.9,4.41A13,13,0,0,1,523,337.26Z"/><path class="cls-28" d="M557,337.26a14.33,14.33,0,0,1,11.43,4.92c2.83,3.29,3.79,7.34,2.88,12.18a18.11,18.11,0,0,1-1,3.88H547.12c.47,3,2.7,4.54,6.67,4.54a9.58,9.58,0,0,0,6.8-2.53l6.8,5.57a19.16,19.16,0,0,1-14.25,5.64q-8.22,0-12.46-5.12t-3-12.63A18.85,18.85,0,0,1,544.27,342,19.07,19.07,0,0,1,557,337.26Zm-8.55,13.6h13.73c-.3-3.32-2.25-5-5.83-5A8.33,8.33,0,0,0,548.48,350.86Z"/><path class="cls-17" d="M77.27,449.17q-7.71,0-12-5.11t-3.11-12.63A19.36,19.36,0,0,1,81.48,415a15.46,15.46,0,0,1,8.61,2.3,13.29,13.29,0,0,1,5.18,6.12l-8.87,4.66q-1.49-3.49-5.76-3.5A8.8,8.8,0,0,0,71.89,432a6.53,6.53,0,0,0,1.17,5.47A6,6,0,0,0,78,439.59,8,8,0,0,0,84.72,436l7.83,5A16,16,0,0,1,86,447.1,19,19,0,0,1,77.27,449.17Z"/><path class="cls-17" d="M119.24,415a10.2,10.2,0,0,1,8.25,3.59q3,3.6,1.91,9.81l-3.49,19.89h-9.72l3.24-18.46q.52-3-.81-4.44a5,5,0,0,0-3.85-1.46,6.88,6.88,0,0,0-4.6,1.66,8.12,8.12,0,0,0-2.53,5l-3.11,17.68H94.82l8-45.34h9.71l-2.78,16A12.15,12.15,0,0,1,119.24,415Z"/><path class="cls-17" d="M153.11,415a14.33,14.33,0,0,1,11.43,4.92c2.82,3.28,3.79,7.34,2.88,12.17a18.2,18.2,0,0,1-1,3.89H143.2q.7,4.53,6.67,4.53a9.63,9.63,0,0,0,6.8-2.52l6.8,5.57a19.2,19.2,0,0,1-14.25,5.63q-8.22,0-12.47-5.11t-3-12.63a18.85,18.85,0,0,1,6.61-11.76A19.06,19.06,0,0,1,153.11,415Zm-8.55,13.6h13.73q-.47-5-5.83-5A8.31,8.31,0,0,0,144.56,428.58Z"/><path class="cls-17" d="M198.12,415.88l-1.1,6.48L182.18,439.2h12.5l-1.62,9.07h-25.9l1.17-6.48L183.09,425h-11.2l1.62-9.07Z"/><path class="cls-17" d="M250.25,415.88l-14.31,16.19,8.93,16.2H234.51l-7.77-14.77-2.59,14.77h-9.71l8-45.34h9.72l-4.67,26.36,11.6-13.41Z"/><path class="cls-17" d="M275.7,415.88h9.72l-5.7,32.39H270l.39-2.21q-3.69,3.12-9.71,3.11-7.45,0-10.82-5.41a16.81,16.81,0,0,1-2-12.46A21.22,21.22,0,0,1,254,419.8,16.55,16.55,0,0,1,266.05,415q6.09,0,9.07,4.34Zm-17,22a6.24,6.24,0,0,0,5.12,2.14,8.88,8.88,0,0,0,5.89-2.14,9.44,9.44,0,0,0,3.17-5.7v-.07c.43-2.41.06-4.33-1.13-5.76a6.35,6.35,0,0,0-5.15-2.14,8.73,8.73,0,0,0-5.86,2.14,9.54,9.54,0,0,0-3.14,5.76C257.14,434.49,257.5,436.41,258.67,437.84Z"/><path class="cls-17" d="M311.32,415a12.47,12.47,0,0,1,8,2.59,13.37,13.37,0,0,1,4.53,6.57,18.59,18.59,0,0,1,.55,8.58,20.72,20.72,0,0,1-5.76,11.59,15.84,15.84,0,0,1-11.85,4.86q-6.68,0-9.59-4.6l-.65,3.7h-9.71l8-45.34h9.71l-2.78,15.67A13.82,13.82,0,0,1,311.32,415Zm.26,22.89a9.46,9.46,0,0,0,3.11-5.8q.65-3.69-1.14-5.79a6.29,6.29,0,0,0-5.08-2.11,9,9,0,0,0-5.92,2.14,9.12,9.12,0,0,0-3.15,5.76,6.91,6.91,0,0,0,1.23,5.77,6.45,6.45,0,0,0,5.19,2.14A8.6,8.6,0,0,0,311.58,437.87Z"/><path class="cls-17" d="M356.39,415.88h9.72l-5.7,32.39H350.7l.38-2.21q-3.69,3.12-9.71,3.11-7.46,0-10.82-5.41a16.76,16.76,0,0,1-2-12.46,21.22,21.22,0,0,1,6.12-11.5A16.54,16.54,0,0,1,346.75,415c4.05,0,7.08,1.44,9.06,4.34Zm-17,22a6.25,6.25,0,0,0,5.12,2.14,8.86,8.86,0,0,0,5.89-2.14,9.45,9.45,0,0,0,3.18-5.7v-.07a6.75,6.75,0,0,0-1.14-5.76,6.34,6.34,0,0,0-5.15-2.14,8.75,8.75,0,0,0-5.86,2.14,9.54,9.54,0,0,0-3.14,5.76A6.87,6.87,0,0,0,339.36,437.84Z"/><path class="cls-17" d="M396.74,415.88h9.72l-5.7,32.39H391l.39-2.21q-3.69,3.12-9.71,3.11-7.46,0-10.82-5.41a16.81,16.81,0,0,1-2-12.46A21.22,21.22,0,0,1,375,419.8,16.55,16.55,0,0,1,387.09,415q6.09,0,9.07,4.34Zm-17,22a6.24,6.24,0,0,0,5.12,2.14,8.88,8.88,0,0,0,5.89-2.14,9.44,9.44,0,0,0,3.17-5.7v-.07c.43-2.41.06-4.33-1.13-5.76a6.35,6.35,0,0,0-5.15-2.14,8.73,8.73,0,0,0-5.86,2.14,9.54,9.54,0,0,0-3.14,5.76C378.18,434.49,378.54,436.41,379.71,437.84Z"/><path class="cls-17" d="M424.33,449.17q-7.71,0-12-5.11t-3.11-12.63A19.36,19.36,0,0,1,428.54,415a15.46,15.46,0,0,1,8.61,2.3,13.29,13.29,0,0,1,5.18,6.12l-8.87,4.66q-1.48-3.49-5.76-3.5A8.8,8.8,0,0,0,419,432a6.53,6.53,0,0,0,1.17,5.47,6,6,0,0,0,4.92,2.17,8,8,0,0,0,6.74-3.63l7.83,5a16,16,0,0,1-6.54,6.15A19,19,0,0,1,424.33,449.17Z"/><path class="cls-17" d="M466.3,415a10.2,10.2,0,0,1,8.25,3.59q3,3.6,1.91,9.81L473,448.27h-9.72l3.24-18.46q.52-3-.81-4.44a5,5,0,0,0-3.85-1.46,6.88,6.88,0,0,0-4.6,1.66,8.12,8.12,0,0,0-2.53,5l-3.11,17.68h-9.71l8-45.34h9.71l-2.78,16A12.15,12.15,0,0,1,466.3,415Z"/><path class="cls-17" d="M508.65,415.88h9.71l-5.69,32.39H503l.39-2.21q-3.69,3.12-9.71,3.11-7.45,0-10.82-5.41a16.76,16.76,0,0,1-2-12.46,21.22,21.22,0,0,1,6.12-11.5A16.55,16.55,0,0,1,499,415q6.09,0,9.07,4.34Zm-17,22a6.23,6.23,0,0,0,5.11,2.14,8.89,8.89,0,0,0,5.9-2.14,9.44,9.44,0,0,0,3.17-5.7v-.07a6.78,6.78,0,0,0-1.13-5.76,6.35,6.35,0,0,0-5.15-2.14,8.73,8.73,0,0,0-5.86,2.14,9.49,9.49,0,0,0-3.14,5.76A6.8,6.8,0,0,0,491.62,437.84Z"/><path class="cls-17" d="M547.57,432.07a11.06,11.06,0,0,1,2.5-5.44,18.61,18.61,0,0,1,4.21-3.85,30.3,30.3,0,0,0,4.11-3.2,6.74,6.74,0,0,0,2.26-3.7,3,3,0,0,0-.64-2.72,3.73,3.73,0,0,0-2.85-1,7.46,7.46,0,0,0-4.8,1.49,12.84,12.84,0,0,0-3.3,4.21l-8.42-5.38a17.86,17.86,0,0,1,7.26-7.67A20.63,20.63,0,0,1,558.39,402a13.82,13.82,0,0,1,10.1,3.76q3.82,3.77,2.72,9.84a12.77,12.77,0,0,1-1.94,4.93,18.36,18.36,0,0,1-3.27,3.79q-1.79,1.52-3.53,2.78a29.63,29.63,0,0,0-3.05,2.49,4.53,4.53,0,0,0-1.49,2.46Zm2.14,17.1a4.75,4.75,0,0,1-4-1.88,5.34,5.34,0,0,1-1-4.4,7.32,7.32,0,0,1,7.19-6,4.85,4.85,0,0,1,4,1.88,5.28,5.28,0,0,1,1,4.4,7.23,7.23,0,0,1-7.25,6Z"/><path class="cls-20" d="M1079.19,270.2a2.28,2.28,0,0,1-1.93.3,4.07,4.07,0,0,1-2-1.24,2.67,2.67,0,0,1-2,.18,4.44,4.44,0,0,1-1.93-1.13,3.32,3.32,0,0,1-1.82.37c0,1.25-.11,2.82-.16,4.06,0,.6,0,1.19-.07,1.79a.8.8,0,0,0,.66.75c.46.1.92.22,1.38.35,3.06.87,6.12,1.93,9.18,2.62a.53.53,0,0,0,.66-.57q-.12-3.23-.23-6.45A3.22,3.22,0,0,1,1079.19,270.2Zm-2.86,3.24.48,1.77-1.44-1.37s-.08,0-.13,0l-1.43.43c.16-.47.32-1,.47-1.43a.15.15,0,0,0,0-.13l-1.3-1.39,1.69.42c.05,0,.07,0,.1-.05l.6-1.36c.19.57.38,1.14.58,1.72a.12.12,0,0,0,.1.1q.84.3,1.68.57c-.43.23-.86.45-1.3.66C1076.33,273.34,1076.31,273.38,1076.33,273.44Z"/><path class="cls-20" d="M1082.56,269.67a.73.73,0,0,1-.24,1,2.07,2.07,0,0,1-1.32.22,3,3,0,0,1-1.68-1l-.14-.16-.14.11c-1,.78-2.57.34-3.59-.87l0,0-.12-.13-.14.09c-1,.65-2.59.2-3.59-.86l-.14-.15-.11.07a2.87,2.87,0,0,1-1.71.41,3.5,3.5,0,0,1-1.31-.32.55.55,0,0,1-.25-.8c.54-.9,1.07-1.79,1.58-2.68a1.08,1.08,0,0,1,1-.53c4.64.73,5.7,1,9.27,1.61a1.31,1.31,0,0,1,1,.76C1081.5,267.5,1082,268.59,1082.56,269.67Z"/><path class="cls-20" d="M1064.35,256.6c-.88.66-1.78,1.31-2.69,2,.32.78.66,1.58,1,2.38l-1-.1c-.32-.76-.63-1.5-.93-2.24-.29.69-.59,1.39-.89,2.08l-.94-.07q.94-2.14,1.84-4.3l.92.06-.77,1.85c.8-.58,1.59-1.15,2.37-1.73Z"/><path class="cls-20" d="M1066.37,261.4c0-.27,0-.55,0-.82l-1.92-.25-.6.75-1-.12q1.71-2.07,3.33-4.18l1.14.13c0,1.54.07,3.09.12,4.64Zm-1.3-1.83,1.32.16,0-1.91Z"/><path class="cls-20" d="M1072.26,258.94a1.27,1.27,0,0,1-.71.83,1.06,1.06,0,0,1,.31,1.13,1.38,1.38,0,0,1-.67.86,2,2,0,0,1-1.3.16l-2-.3c.51-1.47,1-3,1.5-4.45l1.77.24a1.34,1.34,0,0,1,.94.52A1.09,1.09,0,0,1,1072.26,258.94Zm-1.32,1.72a.46.46,0,0,0,0-.4.53.53,0,0,0-.37-.21l-1.06-.16c-.12.35-.24.7-.35,1.05l1.05.16a.71.71,0,0,0,.48-.08A.65.65,0,0,0,1070.94,260.66Zm0-2.41-.9-.13c-.11.33-.21.66-.32,1l.92.13a.63.63,0,0,0,.43-.08.58.58,0,0,0,.25-.34.4.4,0,0,0,0-.37A.45.45,0,0,0,1070.94,258.25Z"/><path class="cls-20" d="M1075.24,262.82c0-.3,0-.59,0-.88l-1.94-.32c-.18.25-.36.51-.55.76l-1-.17c1-1.41,2-2.83,3-4.28l1.15.17c.15,1.63.31,3.26.48,4.9Zm-1.45-2,1.34.22-.12-2C1074.61,259.63,1074.21,260.23,1073.79,260.83Z"/><path class="cls-20" d="M1080,263.65l-.09-.9-2-.33-.51.78-1.06-.19c1-1.43,1.93-2.89,2.83-4.38l1.16.17c.22,1.68.44,3.35.67,5Zm-1.52-2,1.34.22c-.07-.69-.13-1.38-.2-2.07C1079.24,260.38,1078.85,261,1078.47,261.61Z"/><path class="cls-20" d="M1083.68,264.38a2.51,2.51,0,0,1-1.28-.58,2.41,2.41,0,0,1-.74-1.08,2.6,2.6,0,0,1-.07-1.33,2.52,2.52,0,0,1,1-1.64,2.47,2.47,0,0,1,1.86-.44,2.35,2.35,0,0,1,1.17.48,2.33,2.33,0,0,1,.74,1l-.86.35a1.39,1.39,0,0,0-1.15-.86,1.54,1.54,0,0,0-1.19.27,1.7,1.7,0,0,0-.65,1.08,1.57,1.57,0,0,0,.2,1.2,1.44,1.44,0,0,0,1,.62,1.39,1.39,0,0,0,1.43-.5l.79.65a2.22,2.22,0,0,1-1,.7A2.44,2.44,0,0,1,1083.68,264.38Z"/><path class="cls-20" d="M1089.9,260.11l.94.1c-.2,1.7-.42,3.39-.65,5.06l-1-.13.3-2.08-1.82-.24c-.1.68-.21,1.37-.32,2.05l-1-.15c.28-1.63.54-3.28.79-4.94l.94.12c-.09.66-.19,1.32-.29,2l1.81.23C1089.73,261.45,1089.82,260.78,1089.9,260.11Z"/><path class="cls-20" d="M1094.33,265.76c-.06-.32-.12-.64-.19-1q-1-.09-2-.21l-.42.88-1.08-.13c.82-1.61,1.59-3.25,2.33-4.93l1.17.09c.41,1.79.82,3.57,1.24,5.36Zm-1.75-2.08,1.37.14c-.15-.74-.29-1.48-.44-2.22C1093.21,262.3,1092.9,263,1092.58,263.68Z"/><path class="cls-43" d="M1131.57,268.85a72,72,0,0,0-10.13-.5,6.63,6.63,0,0,0,.66-7.86,33.25,33.25,0,0,1,8.79,2C1131.14,264.51,1131.37,266.66,1131.57,268.85Z"/><path class="cls-44" d="M1112.11,269.09a65.88,65.88,0,0,0-10.28,2.27c-.37-2.32-.71-4.71-1-7.08a42.45,42.45,0,0,1,9.5-3.07,6.49,6.49,0,0,0-.61,2.76A6.67,6.67,0,0,0,1112.11,269.09Z"/><path class="cls-28" d="M1123.09,264a6.68,6.68,0,0,1-11,5.12,6.67,6.67,0,0,1-2.39-5.12,6.49,6.49,0,0,1,.61-2.76,6.68,6.68,0,0,1,12.76,2.76Z"/><polyline class="cls-45" points="1120.39 261.74 1115.89 266.21 1113.02 263.8"/><rect class="cls-46" x="189.85" y="502.56" width="254.02" height="42.44" rx="20.83" ry="20.83"/><path class="cls-20" d="M216.19,511.88a7.78,7.78,0,0,1,6.43,3.07,8.9,8.9,0,0,1,1.67,7.38,11.67,11.67,0,0,1-4,7.1,11.42,11.42,0,0,1-7.66,2.77h-8.13l3.57-20.32Zm3.63,10a4.76,4.76,0,0,0-.76-4.06,4.45,4.45,0,0,0-3.66-1.48h-3.48l-2,11.38h3.19a6.44,6.44,0,0,0,4.41-1.6A7,7,0,0,0,219.82,521.89Z"/><path class="cls-20" d="M234.31,517.28a6.42,6.42,0,0,1,5.12,2.2,6.17,6.17,0,0,1,1.29,5.46,7.93,7.93,0,0,1-.46,1.74h-10.4c.22,1.36,1.21,2,3,2a4.29,4.29,0,0,0,3.05-1.14l3,2.5a8.6,8.6,0,0,1-6.39,2.53,6.83,6.83,0,0,1-5.58-2.3,6.72,6.72,0,0,1-1.35-5.66,8.36,8.36,0,0,1,3-5.27A8.55,8.55,0,0,1,234.31,517.28Zm-3.84,6.09h6.16a2.28,2.28,0,0,0-2.61-2.23A3.74,3.74,0,0,0,230.47,523.37Z"/><path class="cls-20" d="M251.84,517.68h4.82l-7.78,14.52h-4.35l-2.68-14.52h4.48l1.22,8.89Z"/><path class="cls-20" d="M264.42,517.28a6.42,6.42,0,0,1,5.12,2.2,6.17,6.17,0,0,1,1.29,5.46,7.93,7.93,0,0,1-.46,1.74H260c.22,1.36,1.21,2,3,2a4.29,4.29,0,0,0,3.05-1.14l3.05,2.5a8.6,8.6,0,0,1-6.39,2.53,6.51,6.51,0,0,1-6.94-8,8.42,8.42,0,0,1,3-5.27A8.55,8.55,0,0,1,264.42,517.28Zm-3.84,6.09h6.16a2.28,2.28,0,0,0-2.61-2.23A3.74,3.74,0,0,0,260.58,523.37Z"/><path class="cls-20" d="M282.82,517.28a4.55,4.55,0,0,1,3.7,1.61,5.15,5.15,0,0,1,.86,4.4l-1.57,8.91h-4.35l1.45-8.28a2.28,2.28,0,0,0-.36-2,2.22,2.22,0,0,0-1.73-.66,3.14,3.14,0,0,0-2,.7,3.55,3.55,0,0,0-1.15,2.12l-1.42,8.1h-4.35l2.55-14.52h4.36l-.24,1.37A5.48,5.48,0,0,1,282.82,517.28Z"/><path class="cls-20" d="M288.72,532.2l2.55-14.52h4.36l-2.56,14.52Zm7-16.56a3,3,0,0,1-2,.76,2.11,2.11,0,0,1-1.73-.76,2.29,2.29,0,0,1-.45-1.85,3.15,3.15,0,0,1,1.06-1.83,2.91,2.91,0,0,1,2-.78,2.17,2.17,0,0,1,1.73.77,2.15,2.15,0,0,1,.48,1.84A3.08,3.08,0,0,1,295.7,515.64Z"/><path class="cls-20" d="M302.71,520.3a4.63,4.63,0,0,1,2-2.17,5.85,5.85,0,0,1,2.93-.74l-.84,4.94a5.23,5.23,0,0,0-1.93.06,4,4,0,0,0-1.89,1,3.73,3.73,0,0,0-1.15,2.22l0-.18-1.19,6.74h-4.35l2.55-14.52h4.36Z"/><path class="cls-20" d="M319.87,527.73h7.26l-.79,4.47h-11.9l.78-4.47L318,511.88h4.65Z"/><path class="cls-20" d="M328.23,532.2l2.56-14.52h4.35l-2.55,14.52Zm7-16.56a3,3,0,0,1-2,.76,2.09,2.09,0,0,1-1.73-.76,2.22,2.22,0,0,1-.45-1.85,3.1,3.1,0,0,1,1.06-1.83,2.89,2.89,0,0,1,2-.78,2.18,2.18,0,0,1,2.2,2.61A3,3,0,0,1,335.22,515.64Z"/><path class="cls-20" d="M346.44,517.68h4.82l-7.78,14.52h-4.36l-2.67-14.52h4.47l1.22,8.89Z"/><path class="cls-20" d="M356.74,520.3a4.63,4.63,0,0,1,1.95-2.17,5.88,5.88,0,0,1,2.93-.74l-.84,4.94a5.23,5.23,0,0,0-1.93.06,4,4,0,0,0-1.89,1,3.67,3.67,0,0,0-1.14,2.22l0-.18-1.19,6.74H350.3l2.55-14.52h4.36Z"/><path class="cls-20" d="M369.93,517.28a6.42,6.42,0,0,1,5.12,2.2,6.17,6.17,0,0,1,1.29,5.46,7.93,7.93,0,0,1-.46,1.74h-10.4c.22,1.36,1.21,2,3,2a4.29,4.29,0,0,0,3-1.14l3.05,2.5a8.6,8.6,0,0,1-6.39,2.53,6.51,6.51,0,0,1-6.94-8,8.42,8.42,0,0,1,3-5.27A8.55,8.55,0,0,1,369.93,517.28Zm-3.84,6.09h6.16a2.28,2.28,0,0,0-2.61-2.23A3.74,3.74,0,0,0,366.09,523.37Z"/><path class="cls-20" d="M389.38,517.68h4.35l-2.55,14.52h-4.36l.24-1.37a5.45,5.45,0,0,1-4.27,1.78,4.55,4.55,0,0,1-3.7-1.62,5.14,5.14,0,0,1-.86-4.39l1.57-8.92h4.35L382.7,526a2.31,2.31,0,0,0,.36,2,2.25,2.25,0,0,0,1.73.65,3.08,3.08,0,0,0,2-.7,3.55,3.55,0,0,0,1.15-2.12Z"/><path class="cls-20" d="M400.82,520.3a4.56,4.56,0,0,1,1.94-2.17,5.89,5.89,0,0,1,2.94-.74l-.85,4.94a5.23,5.23,0,0,0-1.93.06,4,4,0,0,0-1.88,1,3.68,3.68,0,0,0-1.15,2.22l0-.18-1.19,6.74h-4.36l2.56-14.52h4.35Z"/><polyline class="cls-45" points="419.08 513.96 429.69 524.57 419.08 535.17"/><polyline class="cls-45" points="415.83 518.07 422.33 524.57 415.83 531.07"/><path class="cls-47" d="M458.69,0h274a0,0,0,0,1,0,0V43.28a23,23,0,0,1-23,23h-228a23,23,0,0,1-23-23V0A0,0,0,0,1,458.69,0Z"/><path class="cls-20" d="M565.34,46.4h-4.07l-8.21-9.9v9.9h-3.42V25.58h3.42v9.34L561,25.58h4.08l-8.42,10.14Z"/><path class="cls-20" d="M581.58,46.4l-1.46-4.19h-8.86L569.8,46.4h-3.71l7.55-20.82h4.1l7.53,20.82ZM572.39,39H579l-3.3-9.39Z"/><path class="cls-20" d="M599.75,35.6a5.43,5.43,0,0,1,2.14,2,5.3,5.3,0,0,1,.77,2.88,5.56,5.56,0,0,1-1.81,4.25,6.26,6.26,0,0,1-4.43,1.7H587.5V25.58h8.26a6.11,6.11,0,0,1,4.33,1.65,5.41,5.41,0,0,1,1.77,4.12A5,5,0,0,1,599.75,35.6Zm-4-6.81h-4.84v5.48h4.84a2.6,2.6,0,0,0,1.91-.79,2.85,2.85,0,0,0,0-3.9A2.6,2.6,0,0,0,595.76,28.79Zm.66,14.4a2.68,2.68,0,0,0,2-.85,3,3,0,0,0,0-4.13,2.68,2.68,0,0,0-2-.85h-5.5v5.83Z"/><path class="cls-20" d="M619.2,46.4l-1.46-4.19h-8.86l-1.46,4.19H603.7l7.56-20.82h4.1l7.52,20.82ZM610,39h6.6l-3.3-9.39Z"/><path class="cls-20" d="M638.82,46.4l-1.45-4.19H628.5l-1.45,4.19h-3.72l7.55-20.82H635l7.52,20.82ZM629.63,39h6.61l-3.3-9.39Z"/><path class="cls-20" d="M653.81,46.79A10.59,10.59,0,0,1,642.93,36,10.89,10.89,0,0,1,659,26.53a9.79,9.79,0,0,1,3.73,3.63l-3,1.73a6.18,6.18,0,0,0-2.43-2.46,7.07,7.07,0,0,0-3.55-.9,7.22,7.22,0,0,0-5.4,2.11A7.36,7.36,0,0,0,646.35,36a7.35,7.35,0,0,0,2.06,5.35,7.75,7.75,0,0,0,9,1.21,6,6,0,0,0,2.41-2.45l3,1.69a9.52,9.52,0,0,1-3.7,3.64A10.43,10.43,0,0,1,653.81,46.79Z"/><path class="cls-20" d="M677.93,25.58h3.42V46.4h-3.42v-9H669v9h-3.42V25.58H669v8.54h8.92Z"/><path class="cls-20" d="M699.07,46.4l-1.46-4.19h-8.86L687.3,46.4h-3.72l7.55-20.82h4.11l7.52,20.82ZM689.88,39h6.6l-3.3-9.39Z"/><path class="cls-20" d="M536.64,22.67a9.94,9.94,0,0,1-12.72,0,9.94,9.94,0,0,1-12.72,0,10.12,10.12,0,0,1-5.87,2.23V38.06l14.14-2.47-7.7,10.89h28.48a2.28,2.28,0,0,0,2.28-2.28V25A9.9,9.9,0,0,1,536.64,22.67ZM527.2,35.18l1.46,5.18-4.53-2.91a.36.36,0,0,0-.4,0l-4.53,2.91,1.45-5.18c0-.16,0-.32-.16-.4l-4.2-3.31,5.42-.25c.16,0,.24-.08.32-.24L524,26l1.86,5c0,.16.16.24.32.24l5.42.25-4.21,3.31A.29.29,0,0,0,527.2,35.18Z"/><path class="cls-20" d="M490.71,54.22a.56.56,0,0,1-.29-1l10.63-6.71a.55.55,0,1,1,.59.94L491,54.13A.55.55,0,0,1,490.71,54.22Z"/><path class="cls-20" d="M493.23,47.17a.54.54,0,0,1-.47-.26.55.55,0,0,1,.17-.77l4-2.54a.55.55,0,0,1,.77.17.57.57,0,0,1-.18.77l-4,2.55A.67.67,0,0,1,493.23,47.17Z"/><path class="cls-20" d="M496.14,56.25a.54.54,0,0,1-.47-.26.55.55,0,0,1,.17-.77l6.19-3.9a.55.55,0,0,1,.77.17.57.57,0,0,1-.18.77l-6.19,3.91A.6.6,0,0,1,496.14,56.25Z"/><path class="cls-20" d="M517,37.15l-6.6,9.33-6.07,8.59c.28-2.78.51-7.4-.76-9.42s-5.55-3.79-8.18-4.73l9.94-1.73Z"/><path class="cls-20" d="M547.8,20.06a2.16,2.16,0,0,1-1,2.91,8.82,8.82,0,0,1-9.73-1.37l-.48-.41-.46.41a8.81,8.81,0,0,1-11.78,0l-.09-.08-.4-.32-.45.4a8.81,8.81,0,0,1-11.77,0l-.47-.43-.38.33a8.89,8.89,0,0,1-5.5,2.27A9,9,0,0,1,501,23a2.17,2.17,0,0,1-1-2.92l4.8-9.6a3.79,3.79,0,0,1,3.4-2.1h31.33a3.78,3.78,0,0,1,3.39,2.1Z"/></g></g></svg>